<?xml version="1.0" encoding="utf-8"?>
<svg xmlns="http://www.w3.org/2000/svg" viewBox="0 0 922 1035" xmlns:bx="https://boxy-svg.com" width="922px" height="1035px"><defs><bx:export><bx:file format="svg" path="未命名.svg"/></bx:export></defs><path d="M 916.111 287.101 L 916.111 915.723 C 916.111 978.589 865.196 1029.5 802.333 1029.5 L 119.669 1029.5 C 56.809 1029.5 5.889 978.589 5.889 915.723 L 5.889 119.278 C 5.889 56.416 56.809 5.501 119.669 5.501 L 634.511 5.501 L 916.111 287.101 Z" p-id="7999" style="stroke-width: 1; fill: rgb(217, 217, 217);"/><path d="M 634.511 173.323 L 634.511 5.501 L 916.111 287.101 L 748.289 287.101 C 685.427 287.101 634.511 236.185 634.511 173.323" p-id="8000" style="stroke-width: 1; fill: rgb(175, 175, 175);"/><path d="M 563.229 573.536 C 562.689 519.492 607.318 493.607 609.309 492.299 C 584.221 455.606 545.167 450.599 531.258 450.03 C 498.035 446.674 466.433 469.572 449.565 469.572 C 432.783 469.572 406.728 450.514 379.165 451.026 C 342.956 451.566 309.562 472.075 290.931 504.502 C 253.299 569.81 281.26 666.521 317.953 719.485 C 335.873 745.398 357.263 774.525 385.309 773.472 C 412.332 772.391 422.572 756.007 455.197 756.007 C 487.852 756.007 497.039 773.472 525.654 772.932 C 554.724 772.391 573.156 746.535 590.934 720.537 C 611.5 690.471 620.004 661.344 620.488 659.837 C 619.834 659.552 563.798 638.077 563.229 573.536 Z M 509.498 414.958 C 524.403 396.896 534.472 371.837 531.684 346.834 C 510.266 347.687 484.268 361.113 468.879 379.147 C 455.055 395.133 442.995 420.647 446.209 445.138 C 470.159 447.015 494.593 432.992 509.498 414.987 L 509.498 414.958 Z" fill="#FFFFFF" p-id="8001" style="stroke-width: 1;"/></svg>