<?xml version="1.0" standalone="no"?><!DOCTYPE svg PUBLIC "-//W3C//DTD SVG 1.1//EN" "http://www.w3.org/Graphics/SVG/1.1/DTD/svg11.dtd"><svg t="1764696206716" class="icon" viewBox="0 0 1024 1024" version="1.1" xmlns="http://www.w3.org/2000/svg" p-id="11919" width="48" height="48" xmlns:xlink="http://www.w3.org/1999/xlink"><path d="M426.666667 170.666667H170.666667c-47.36 0-85.333333 37.973333-85.333334 85.333333v512c0 46.805333 38.528 85.333333 85.333334 85.333333h682.666666c46.805333 0 85.333333-38.528 85.333334-85.333333V341.333333a85.333333 85.333333 0 0 0-85.333334-85.333333h-341.333333l-85.333333-85.333333z" fill="#8BC34A" p-id="11920"></path><path d="M835.797333 474.154667h-25.514666v-25.514667h25.514666m-127.658666 25.514667H682.666667v-25.514667h25.514666m141.226667-46.976l33.408-33.450667a13.098667 13.098667 0 0 0 0-18.133333 13.098667 13.098667 0 0 0-18.133333 0l-37.76 37.802667a154.24 154.24 0 0 0-67.669334-15.829334c-24.490667 0-47.488 5.845333-67.882666 16.085334l-38.058667-38.058667a12.8 12.8 0 0 0-17.877333 0 12.629333 12.629333 0 0 0 0 18.133333l33.450666 33.450667a152.746667 152.746667 0 0 0-62.805333 123.562667h306.346667a154.026667 154.026667 0 0 0-63.061334-123.562667m126.890667 149.077333a38.272 38.272 0 0 0-38.314667 38.272v178.730667a38.272 38.272 0 0 0 38.314667 38.272 38.272 38.272 0 0 0 38.272-38.272v-178.730667a38.272 38.272 0 0 0-38.272-38.272m-434.005333 0a38.272 38.272 0 0 0-38.314667 38.272v178.730667a38.272 38.272 0 0 0 38.314667 38.272 38.272 38.272 0 0 0 38.272-38.272v-178.730667a38.272 38.272 0 0 0-38.272-38.272m63.829333 255.274667a25.514667 25.514667 0 0 0 25.514667 25.514667h25.514666v89.344a38.272 38.272 0 0 0 38.314667 38.314666 38.272 38.272 0 0 0 38.272-38.314666V831.573333h51.072v89.344a38.272 38.272 0 0 0 38.272 38.314667 38.272 38.272 0 0 0 38.314667-38.314667V831.573333h25.514666a25.514667 25.514667 0 0 0 25.514667-25.514666v-255.274667h-306.346667z" fill="#DCEDC8" p-id="11921"></path></svg>