<?xml version="1.0" encoding="utf-8"?>
<svg xmlns="http://www.w3.org/2000/svg" viewBox="0 0 570 500" xmlns:bx="https://boxy-svg.com" width="570px" height="500px"><defs><linearGradient x1="26.599%" y1="146.559136%" x2="73.8446667%" y2="52.3813953%" id="linearGradient-1"><stop stop-color="#0095D5" offset="0.0968"/><stop stop-color="#238AD9" offset="0.3007"/><stop stop-color="#557BDE" offset="0.6211"/><stop stop-color="#7472E2" offset="0.8643"/><stop stop-color="#806EE3" offset="1"/></linearGradient><linearGradient x1="13.9840532%" y1="37.1049231%" x2="68.682392%" y2="-13.5538462%" id="linearGradient-2"><stop stop-color="#0095D5" offset="0.1183"/><stop stop-color="#3C83DC" offset="0.4178"/><stop stop-color="#6D74E1" offset="0.6962"/><stop stop-color="#806EE3" offset="0.8333"/></linearGradient><linearGradient x1="-16.8361667%" y1="91.9396667%" x2="76.2191667%" y2="-1.11566667%" id="linearGradient-3"><stop stop-color="#C757BC" offset="0.1075"/><stop stop-color="#D0609A" offset="0.2138"/><stop stop-color="#E1725C" offset="0.4254"/><stop stop-color="#EE7E2F" offset="0.6048"/><stop stop-color="#F58613" offset="0.743"/><stop stop-color="#F88909" offset="0.8232"/></linearGradient><linearGradient gradientUnits="userSpaceOnUse" x1="-14.251" y1="335.905" x2="-14.251" y2="471.517" id="gradient-0"><stop offset="0" style="stop-color: rgb(69.804% 69.804% 69.804%)"/><stop offset="1" style="stop-color: rgb(40.339% 40.339% 40.339%)"/></linearGradient><linearGradient gradientUnits="userSpaceOnUse" x1="-14.916" y1="290.539" x2="-14.916" y2="335.905" id="gradient-1"><stop offset="0" style="stop-color: rgb(69.804% 69.804% 69.804%)"/><stop offset="1" style="stop-color: rgb(40.339% 40.339% 40.339%)"/></linearGradient><linearGradient gradientUnits="userSpaceOnUse" x1="-14.251" y1="335.905" x2="-14.251" y2="471.517" id="gradient-2" gradientTransform="matrix(0.994073, 0, 0, 1.04, 299.827544, -36.340492)"><stop offset="0" style="stop-color: rgb(69.804% 69.804% 69.804%)"/><stop offset="1" style="stop-color: rgb(40.339% 40.339% 40.339%)"/></linearGradient><linearGradient gradientUnits="userSpaceOnUse" x1="-14.916" y1="290.539" x2="-14.916" y2="335.905" id="gradient-3" gradientTransform="matrix(0.994073, 0, 0, 1.04, 299.827131, -36.340515)"><stop offset="0" style="stop-color: rgb(69.804% 69.804% 69.804%)"/><stop offset="1" style="stop-color: rgb(40.339% 40.339% 40.339%)"/></linearGradient><linearGradient id="color-0"><stop style="stop-color: #c6ffdd;" offset="0"/><stop style="stop-color: #fbd786;" offset="0.5"/><stop style="stop-color: #f7797d;" offset="1"/></linearGradient><linearGradient id="color-1"><stop style="stop-color: #fc4a1a;" offset="0.19"/><stop style="stop-color: #f7b733;" offset="1"/></linearGradient><linearGradient id="color-0-0" href="#color-0" gradientUnits="userSpaceOnUse" x1="285.661" y1="313.001" x2="285.661" y2="454.037"/><linearGradient id="color-1-0" href="#color-1" gradientUnits="userSpaceOnUse" x1="285.661" y1="313.001" x2="285.661" y2="454.037"/><linearGradient id="color-2"><stop style="stop-color: #2980b9;" offset="0"/><stop style="stop-color: #6dd5fa;" offset="0.5"/><stop style="stop-color: #ffffff;" offset="1"/></linearGradient><linearGradient id="color-2-0" href="#color-2" gradientUnits="userSpaceOnUse" x1="285.661" y1="313.001" x2="285.661" y2="454.037"/><linearGradient id="color-3"><stop style="stop-color: #4ac29a;" offset="0"/><stop style="stop-color: #bdfff3;" offset="1"/></linearGradient><linearGradient id="color-3-0" href="#color-3" gradientUnits="userSpaceOnUse" x1="285.661" y1="313.001" x2="285.661" y2="454.037" gradientTransform="matrix(1, 0, 0, 1, -0.000403, -0.000031)"/><linearGradient id="color-4"><stop style="stop-color: rgb(21, 200, 184);" offset="0"/><stop style="stop-color: rgb(171, 235, 250);" offset="1"/></linearGradient><linearGradient id="color-4-0" href="#color-4" gradientUnits="userSpaceOnUse" x1="285.661" y1="313.001" x2="285.661" y2="454.037"/><linearGradient id="a" x1="4.494" y1="-1712.086" x2="13.832" y2="-1695.914" gradientTransform="matrix(7.692305, 0, 0, 7.692305, 44.359512, 13321.682549)" gradientUnits="userSpaceOnUse"><stop offset="0" stop-color="#2368c4"/><stop offset="0.5" stop-color="#1a5dbe"/><stop offset="1" stop-color="#1146ac"/></linearGradient><linearGradient id="color-5"><stop style="stop-color: rgb(255, 252, 158);" offset="0"/><stop style="stop-color: rgb(115, 218, 255);" offset="1"/></linearGradient><linearGradient id="color-5-0" href="#color-5" gradientUnits="userSpaceOnUse" x1="285.661" y1="313.001" x2="285.661" y2="454.037"/></defs><path d="M 509.746 139.301 L 509.746 441.338 C 509.746 471.543 484.576 496 453.497 496 L 116.007 496 C 84.937 496 59.747 471.543 59.747 441.338 L 59.747 58.667 C 59.747 28.462 84.937 4 116.007 4 L 370.526 4 L 509.746 139.301 Z" p-id="7999" style="stroke-width: 1; fill: rgb(227, 228, 233);"/><path d="M 370.526 84.635 L 370.526 4.001 L 509.747 139.301 L 426.778 139.301 C 395.698 139.301 370.526 114.841 370.526 84.635" p-id="8000" style="stroke-width: 1; pointer-events: none; fill: rgb(183, 188, 198);"/><path d="M 5.323 313.001 L 565.999 313.001 L 565.999 430.574 C 565.999 443.662 553.344 454.037 538.039 454.037 L 33.595 454.037 C 26.229 454.037 18.873 451.567 13.843 447.121 C 8.574 442.674 5.622 436.745 5.622 430.323 L 5.622 313.001 L 5.323 313.001 Z" p-id="9051" style="stroke-width: 1.017; fill: url(&quot;#color-5-0&quot;);"/><path d="M 60.335 313.001 L 60.335 265.82 L 4.001 313.001 L 60.335 313.001 Z M 509.385 313.001 L 509.976 265.82 L 565.999 313.001 L 509.385 313.001 Z" p-id="9052" style="stroke-width: 1.017; fill: url(&quot;#gradient-3&quot;);"/><title/><title>text-right</title><title>text-center-solid</title><title>file_type_word</title><title/><g transform="matrix(1.132578, 0, 0, 0.798159, -106.238609, -48.411091)" style=""><path d="M 376.314 498.405 C 377.369 494.722 375.232 490.885 371.548 489.83 C 367.865 488.776 364.029 490.913 362.973 494.597 L 335.225 591.717 C 334.171 595.402 336.307 599.237 339.99 600.292 C 343.675 601.346 347.51 599.21 348.565 595.525 L 376.314 498.405 Z" fill="#0F0F0F" style="stroke-width: 1;"/><path d="M 312.756 513.14 C 315.059 516.206 314.441 520.555 311.382 522.858 L 289.232 539.514 C 285.547 542.297 285.547 547.833 289.232 550.608 L 311.382 567.264 C 314.441 569.573 315.059 573.916 312.756 576.982 C 310.445 580.042 306.102 580.659 303.036 578.356 L 280.893 561.694 C 269.827 553.369 269.827 536.753 280.893 528.43 L 303.036 511.766 C 306.102 509.463 310.445 510.08 312.756 513.14 Z" fill="#0F0F0F" style="stroke-width: 1;"/><path d="M 398.784 576.982 C 396.481 573.916 397.097 569.573 400.157 567.264 L 422.308 550.608 C 425.992 547.833 425.992 542.297 422.308 539.514 L 400.157 522.858 C 397.097 520.555 396.481 516.206 398.784 513.14 C 401.087 510.08 405.436 509.463 408.502 511.766 L 430.646 528.43 C 441.711 536.753 441.711 553.369 430.646 561.694 L 408.502 578.356 C 405.436 580.659 401.087 580.042 398.784 576.982 Z" fill="#0F0F0F" style="stroke-width: 1;"/></g><g transform="matrix(1.333331, 0, 0, 1.333331, -163.914382, -577.997373)"><path d="M 336.973 526.663 C 372.179 499.335 354.11 481.562 354.11 481.562 C 356.798 509.815 325.019 516.484 316.501 535.903 C 310.692 549.151 320.482 560.752 336.962 575.373 C 335.504 572.135 333.259 568.987 330.982 565.801 C 323.224 554.938 315.144 543.619 336.973 526.663 Z" fill="#E76F00" style="stroke-width: 1;"/><path d="M 342.594 581.369 C 342.594 581.369 353.187 572.819 344.797 563.322 C 316.368 531.104 375.898 516.484 375.898 516.484 C 339.548 533.995 344.979 544.388 354.11 557.017 C 363.895 570.553 342.594 581.369 342.594 581.369 Z" fill="#E76F00" style="stroke-width: 1;"/><path d="M 373.776 606.848 C 406.406 590.175 391.32 574.153 380.792 576.313 C 378.211 576.842 377.057 577.301 377.057 577.301 C 377.057 577.301 378.018 575.827 379.847 575.186 C 400.677 567.982 416.697 596.421 373.124 607.687 C 373.124 607.687 373.626 607.243 373.776 606.848 Z" fill="#5382A1" style="stroke-width: 1;"/><path d="M 305.888 585.745 C 285.481 583.068 317.084 575.683 317.084 575.683 C 317.084 575.683 304.808 574.871 289.713 582.046 C 271.864 590.538 333.869 594.396 365.958 586.098 C 369.297 583.858 373.909 581.913 373.909 581.913 C 373.909 581.913 360.774 584.222 347.697 585.306 C 331.693 586.627 314.508 586.883 305.888 585.745 Z" fill="#5382A1" style="stroke-width: 1;"/><path d="M 313.657 601.664 C 302.276 600.509 309.724 595.08 309.724 595.08 C 280.27 604.694 326.115 615.6 367.272 603.765 C 362.9 602.246 360.117 599.472 360.117 599.472 C 340.002 603.283 328.374 603.16 313.657 601.664 Z" fill="#5382A1" style="stroke-width: 1;"/><path d="M 318.616 618.892 C 307.24 617.605 313.889 613.805 313.889 613.805 C 287.148 621.153 330.149 636.329 364.194 621.981 C 358.616 619.848 354.623 617.391 354.623 617.391 C 339.442 620.212 332.399 620.437 318.616 618.892 Z" fill="#5382A1" style="stroke-width: 1;"/><path d="M 389.819 627.651 C 389.819 627.651 394.735 631.638 384.405 634.72 C 364.756 640.572 302.618 642.341 285.357 634.95 C 279.154 632.299 290.793 628.614 294.452 627.842 C 298.267 627.025 300.448 627.181 300.448 627.181 C 293.549 622.397 255.849 636.565 281.301 640.62 C 350.707 651.692 407.821 635.64 389.819 627.651 Z" fill="#5382A1" style="stroke-width: 1;"/><path d="M 400.831 636.356 C 399.694 650.929 351.605 653.996 320.29 652.025 C 299.86 650.736 295.767 647.514 295.702 647.471 C 315.257 650.639 348.221 651.217 374.951 646.269 C 398.646 641.882 400.831 636.356 400.831 636.356 Z" fill="#5382A1" style="stroke-width: 1;"/></g></svg>