<?xml version="1.0" encoding="utf-8"?>
<svg xmlns="http://www.w3.org/2000/svg" viewBox="0 0 207 153" xmlns:bx="https://boxy-svg.com" width="207px" height="153px"><defs><linearGradient bx:pinned="true" id="color-0"><stop style="stop-color: #12c2e9;" offset="0"/><stop style="stop-color: #c471ed;" offset="0.891"/><stop style="stop-color: #f64f59;" offset="1"/></linearGradient><linearGradient gradientUnits="userSpaceOnUse" x1="103.7" y1="6" x2="103.7" y2="147" id="gradient-0"><stop offset="0" style="stop-color: rgb(56.471% 64.314% 68.235%)"/><stop offset="1" style="stop-color: rgb(30.495% 37.842% 41.419%)"/></linearGradient><linearGradient id="color-0-0" href="#color-0" gradientUnits="userSpaceOnUse" x1="108.247" y1="16.832" x2="108.247" y2="157.832" gradientTransform="matrix(0.546614, -0.837377, 1.049339, 0.684965, -51.750412, 106.74163)"/><linearGradient bx:pinned="true" id="color-1"><stop style="stop-color: #fc5c7d;" offset="0"/><stop style="stop-color: #6a82fb;" offset="1"/></linearGradient><linearGradient id="color-1-0" href="#color-1" gradientUnits="userSpaceOnUse" x1="103.7" y1="6" x2="103.7" y2="147"/><linearGradient id="gradient-1" x1="102.517" x2="102.517" y1="-19.177" y2="121.823" gradientUnits="userSpaceOnUse" gradientTransform="matrix(0.748922, -0.662652, 0.369313, 0.417387, -19.251107, 138.908827)"><stop style="stop-color: #fc5c7d;" offset="0"/><stop style="stop-color: #6a82fb;" offset="1"/></linearGradient><linearGradient id="color-0-1" href="#color-0" gradientUnits="userSpaceOnUse" x1="98.819" y1="5.489" x2="98.819" y2="146.489" gradientTransform="matrix(0.812468, -0.583001, 1.575454, 2.195508, -75.684021, 57.013442)"/><linearGradient id="a" x1="1.725" x2="22.185" y1="22.67" y2="1.982" gradientTransform="matrix(4.453829, 0, 0, 4.453829, 104.074813, 53.802223)" gradientUnits="userSpaceOnUse"><stop offset="0" stop-color="#7c4dff"/><stop offset="0.5" stop-color="#d500f9"/><stop offset="1" stop-color="#ef5350"/></linearGradient><linearGradient id="gradient-2" x1="49.576" x2="49.576" y1="-40.778" y2="100.222" gradientUnits="userSpaceOnUse" gradientTransform="matrix(0.541634, 0.84061, -1.936638, 1.227277, 69.080986, 43.115931)"><stop style="stop-color: #12c2e9;" offset="0"/><stop style="stop-color: #c471ed;" offset="0.521"/><stop style="stop-color: #f64f59;" offset="1"/></linearGradient><bx:export><bx:file format="svg" path="未命名.svg"/></bx:export><linearGradient id="gradient-3" x1="1.725" x2="22.185" y1="22.67" y2="1.982" gradientTransform="matrix(4.453829, 0, 0, 4.453829, 104.074813, 53.802223)" gradientUnits="userSpaceOnUse"><stop offset="0" stop-color="#7c4dff"/><stop offset="0.5" stop-color="#d500f9"/><stop offset="1" stop-color="#ef5350"/></linearGradient><linearGradient bx:pinned="true" id="color-2"><stop style="stop-color: #bdc3c7;" offset="0"/><stop style="stop-color: #2c3e50;" offset="1"/></linearGradient><linearGradient id="color-2-0" href="#color-2" gradientUnits="userSpaceOnUse" x1="103.7" y1="6" x2="103.7" y2="147"/><linearGradient bx:pinned="true" id="color-3"><stop style="stop-color: #4ac29a;" offset="0"/><stop style="stop-color: #bdfff3;" offset="1"/></linearGradient><linearGradient id="color-3-0" href="#color-3" gradientUnits="userSpaceOnUse" x1="103.7" y1="6" x2="103.7" y2="147"/><linearGradient gradientUnits="userSpaceOnUse" bx:pinned="true" id="color-4"><stop style="stop-color: #27374d;"/></linearGradient><linearGradient gradientUnits="userSpaceOnUse" bx:pinned="true" id="color-5"><stop style="stop-color: #526d82;"/></linearGradient><linearGradient gradientUnits="userSpaceOnUse" bx:pinned="true" id="color-6"><stop style="stop-color: #9db2bf;"/></linearGradient><linearGradient gradientUnits="userSpaceOnUse" bx:pinned="true" id="color-7"><stop style="stop-color: #dde6ed;"/></linearGradient><linearGradient gradientUnits="userSpaceOnUse" bx:pinned="true" id="color-8"><stop style="stop-color: #ffbe98;"/></linearGradient><linearGradient gradientUnits="userSpaceOnUse" bx:pinned="true" id="color-9"><stop style="stop-color: #feece2;"/></linearGradient><linearGradient gradientUnits="userSpaceOnUse" bx:pinned="true" id="color-10"><stop style="stop-color: #f7ded0;"/></linearGradient><linearGradient gradientUnits="userSpaceOnUse" bx:pinned="true" id="color-11"><stop style="stop-color: #e2bfb3;"/></linearGradient><linearGradient gradientUnits="userSpaceOnUse" bx:pinned="true" id="color-12"><stop style="stop-color: #b5eaea;"/></linearGradient><linearGradient gradientUnits="userSpaceOnUse" bx:pinned="true" id="color-13"><stop style="stop-color: #edf6e5;"/></linearGradient><linearGradient gradientUnits="userSpaceOnUse" bx:pinned="true" id="color-14"><stop style="stop-color: #ffbcbc;"/></linearGradient><linearGradient gradientUnits="userSpaceOnUse" bx:pinned="true" id="color-15"><stop style="stop-color: #f38ba0;"/></linearGradient></defs><path d="M 88.5 16.826 L 79.419 9.273 C 76.88 7.153 73.695 6 70.396 6 L 19.097 6 C 11.316 6 5 12.303 5 20.097 L 5 132.896 C 5 140.684 11.316 147 19.097 147 L 188.302 147 C 196.083 147 202.399 140.684 202.399 132.896 L 202.399 34.197 C 202.399 26.399 196.083 20.097 188.302 20.097 L 97.523 20.097 C 94.224 20.097 91.04 18.946 88.5 16.826" style="stroke-width: 1; fill: url(&quot;#color-12&quot;);"/><g transform="matrix(3.416704, 0, 0, 3.416704, -209.275222, -540.438535)"><path d="M 106.829 175.835 C 113.417 170.721 110.036 167.395 110.036 167.395 C 110.539 172.682 104.592 173.931 102.998 177.564 C 101.91 180.043 103.743 182.214 106.827 184.95 C 106.554 184.344 106.134 183.755 105.708 183.159 C 104.256 181.126 102.744 179.008 106.829 175.835 Z" fill="#E76F00" style="stroke-width: 1;"/><path d="M 107.881 186.072 C 107.881 186.072 109.863 184.473 108.293 182.695 C 102.972 176.667 114.113 173.931 114.113 173.931 C 107.311 177.207 108.326 179.152 110.036 181.515 C 111.866 184.048 107.881 186.072 107.881 186.072 Z" fill="#E76F00" style="stroke-width: 1;"/><path d="M 113.716 190.84 C 119.822 187.72 116.999 184.722 115.028 185.126 C 114.545 185.225 114.33 185.311 114.33 185.311 C 114.33 185.311 114.509 185.035 114.852 184.915 C 118.75 183.568 121.747 188.89 113.594 190.997 C 113.594 190.998 113.688 190.914 113.716 190.84 Z" fill="#5382A1" style="stroke-width: 1;"/><path d="M 101.012 186.892 C 97.192 186.39 103.107 185.009 103.107 185.009 C 103.107 185.009 100.81 184.856 97.985 186.199 C 94.645 187.788 106.247 188.51 112.253 186.957 C 112.878 186.538 113.741 186.174 113.741 186.174 C 113.741 186.174 111.283 186.606 108.835 186.809 C 105.84 187.056 102.625 187.104 101.012 186.892 Z" fill="#5382A1" style="stroke-width: 1;"/><path d="M 102.466 189.87 C 100.336 189.654 101.73 188.639 101.73 188.639 C 96.218 190.438 104.797 192.478 112.499 190.263 C 111.68 189.979 111.16 189.46 111.16 189.46 C 107.396 190.173 105.22 190.15 102.466 189.87 Z" fill="#5382A1" style="stroke-width: 1;"/><path d="M 103.394 193.094 C 101.265 192.853 102.509 192.142 102.509 192.142 C 97.505 193.517 105.552 196.357 111.923 193.672 C 110.879 193.273 110.132 192.813 110.132 192.813 C 107.29 193.342 105.972 193.383 103.394 193.094 Z" fill="#5382A1" style="stroke-width: 1;"/><path d="M 116.718 194.733 C 116.718 194.733 117.638 195.479 115.704 196.056 C 112.027 197.151 100.4 197.482 97.17 196.1 C 96.009 195.603 98.187 194.914 98.871 194.769 C 99.586 194.617 99.994 194.645 99.994 194.645 C 98.703 193.75 91.648 196.401 96.41 197.161 C 109.399 199.232 120.087 196.228 116.718 194.733 Z" fill="#5382A1" style="stroke-width: 1;"/><path d="M 118.779 196.363 C 118.566 199.089 109.567 199.663 103.707 199.294 C 99.884 199.053 99.117 198.45 99.106 198.442 C 102.765 199.035 108.934 199.143 113.936 198.217 C 118.37 197.396 118.779 196.363 118.779 196.363 Z" fill="#5382A1" style="stroke-width: 1;"/></g></svg>