<?xml version="1.0" encoding="utf-8"?>
<svg xmlns="http://www.w3.org/2000/svg" viewBox="0 0 207 153" xmlns:bx="https://boxy-svg.com" width="207px" height="153px"><defs><linearGradient bx:pinned="true" id="color-0"><stop style="stop-color: #12c2e9;" offset="0"/><stop style="stop-color: #c471ed;" offset="0.891"/><stop style="stop-color: #f64f59;" offset="1"/></linearGradient><linearGradient gradientUnits="userSpaceOnUse" x1="103.7" y1="6" x2="103.7" y2="147" id="gradient-0"><stop offset="0" style="stop-color: rgb(56.471% 64.314% 68.235%)"/><stop offset="1" style="stop-color: rgb(30.495% 37.842% 41.419%)"/></linearGradient><linearGradient id="color-0-0" href="#color-0" gradientUnits="userSpaceOnUse" x1="108.247" y1="16.832" x2="108.247" y2="157.832" gradientTransform="matrix(0.546614, -0.837377, 1.049339, 0.684965, -51.750412, 106.74163)"/><linearGradient bx:pinned="true" id="color-1"><stop style="stop-color: #fc5c7d;" offset="0"/><stop style="stop-color: #6a82fb;" offset="1"/></linearGradient><linearGradient id="color-1-0" href="#color-1" gradientUnits="userSpaceOnUse" x1="103.7" y1="6" x2="103.7" y2="147"/><linearGradient id="gradient-1" x1="102.517" x2="102.517" y1="-19.177" y2="121.823" gradientUnits="userSpaceOnUse" gradientTransform="matrix(0.748922, -0.662652, 0.369313, 0.417387, -19.251107, 138.908827)"><stop style="stop-color: #fc5c7d;" offset="0"/><stop style="stop-color: #6a82fb;" offset="1"/></linearGradient><linearGradient id="color-0-1" href="#color-0" gradientUnits="userSpaceOnUse" x1="98.819" y1="5.489" x2="98.819" y2="146.489" gradientTransform="matrix(0.812468, -0.583001, 1.575454, 2.195508, -75.684021, 57.013442)"/><linearGradient id="a" x1="1.725" x2="22.185" y1="22.67" y2="1.982" gradientTransform="matrix(4.453829, 0, 0, 4.453829, 104.074813, 53.802223)" gradientUnits="userSpaceOnUse"><stop offset="0" stop-color="#7c4dff"/><stop offset="0.5" stop-color="#d500f9"/><stop offset="1" stop-color="#ef5350"/></linearGradient><linearGradient id="gradient-2" x1="49.576" x2="49.576" y1="-40.778" y2="100.222" gradientUnits="userSpaceOnUse" gradientTransform="matrix(0.541634, 0.84061, -1.936638, 1.227277, 69.080986, 43.115931)"><stop style="stop-color: #12c2e9;" offset="0"/><stop style="stop-color: #c471ed;" offset="0.521"/><stop style="stop-color: #f64f59;" offset="1"/></linearGradient><bx:export><bx:file format="svg" path="未命名.svg"/></bx:export><linearGradient id="gradient-3" x1="1.725" x2="22.185" y1="22.67" y2="1.982" gradientTransform="matrix(4.453829, 0, 0, 4.453829, 104.074813, 53.802223)" gradientUnits="userSpaceOnUse"><stop offset="0" stop-color="#7c4dff"/><stop offset="0.5" stop-color="#d500f9"/><stop offset="1" stop-color="#ef5350"/></linearGradient><linearGradient bx:pinned="true" id="color-2"><stop style="stop-color: #bdc3c7;" offset="0"/><stop style="stop-color: #2c3e50;" offset="1"/></linearGradient><linearGradient id="color-2-0" href="#color-2" gradientUnits="userSpaceOnUse" x1="103.7" y1="6" x2="103.7" y2="147"/><linearGradient bx:pinned="true" id="color-3"><stop style="stop-color: #4ac29a;" offset="0"/><stop style="stop-color: #bdfff3;" offset="1"/></linearGradient><linearGradient id="color-3-0" href="#color-3" gradientUnits="userSpaceOnUse" x1="103.7" y1="6" x2="103.7" y2="147"/><linearGradient gradientUnits="userSpaceOnUse" bx:pinned="true" id="color-4"><stop style="stop-color: #27374d;"/></linearGradient><linearGradient gradientUnits="userSpaceOnUse" bx:pinned="true" id="color-5"><stop style="stop-color: #526d82;"/></linearGradient><linearGradient gradientUnits="userSpaceOnUse" bx:pinned="true" id="color-6"><stop style="stop-color: #9db2bf;"/></linearGradient><linearGradient gradientUnits="userSpaceOnUse" bx:pinned="true" id="color-7"><stop style="stop-color: #dde6ed;"/></linearGradient><linearGradient gradientUnits="userSpaceOnUse" bx:pinned="true" id="color-8"><stop style="stop-color: #ffbe98;"/></linearGradient><linearGradient gradientUnits="userSpaceOnUse" bx:pinned="true" id="color-9"><stop style="stop-color: #feece2;"/></linearGradient><linearGradient gradientUnits="userSpaceOnUse" bx:pinned="true" id="color-10"><stop style="stop-color: #f7ded0;"/></linearGradient><linearGradient gradientUnits="userSpaceOnUse" bx:pinned="true" id="color-11"><stop style="stop-color: #e2bfb3;"/></linearGradient><linearGradient gradientUnits="userSpaceOnUse" bx:pinned="true" id="color-12"><stop style="stop-color: #b5eaea;"/></linearGradient><linearGradient gradientUnits="userSpaceOnUse" bx:pinned="true" id="color-13"><stop style="stop-color: #edf6e5;"/></linearGradient><linearGradient gradientUnits="userSpaceOnUse" bx:pinned="true" id="color-14"><stop style="stop-color: #ffbcbc;"/></linearGradient><linearGradient gradientUnits="userSpaceOnUse" bx:pinned="true" id="color-15"><stop style="stop-color: #f38ba0;"/></linearGradient></defs><path d="M 88.5 16.826 L 79.419 9.273 C 76.88 7.153 73.695 6 70.396 6 L 19.097 6 C 11.316 6 5 12.303 5 20.097 L 5 132.896 C 5 140.684 11.316 147 19.097 147 L 188.302 147 C 196.083 147 202.399 140.684 202.399 132.896 L 202.399 34.197 C 202.399 26.399 196.083 20.097 188.302 20.097 L 97.523 20.097 C 94.224 20.097 91.04 18.946 88.5 16.826" style="stroke-width: 1; fill: url(&quot;#color-7&quot;);"/><g transform="matrix(0.101563, 0, 0, 0.101563, 154.07347, 83.154487)"><path d="M 432.251 283.201 C 420.594 169.472 348.472 110.948 295.128 21.179 C 233.933 -63.652 279.425 -173.09 226.243 -260.51 C 173.062 -354.09 14.003 -367.44 -35.698 -264.15 C -71.476 -178.03 -41.93 -81.056 -46.706 9.199 C -74.228 60.842 -120.04 99.939 -147.48 151.421 C -163.97 210.117 -187.23 266.7 -216.77 320.031 C -231.18 355.566 -208.68 391.83 -189.82 420.809 C -171.85 453.187 -164.16 492.122 -137.45 520.615 C -277.4 749.935 -26.47 614.35 84.669 628.03 C 201.312 629.406 432.17 736.498 290.595 516.892 C 308.355 497.012 323.957 475.305 337.139 452.135 C 418.085 451.083 448.925 350.224 432.493 283.039 L 432.251 283.201 Z M 432.251 283.201" fill="#020204" p-id="6369" style="stroke-width: 1;"/><path d="M -7.447 -40.664 C -13.925 -31.133 -17.239 -19.805 -16.918 -8.285 C -9.714 53.314 -82.97 89.821 -72.285 152.797 C -215.24 330.068 -110.9 673.603 150.397 566.673 C 304.194 490.179 342.805 261.912 232.962 133.937 C 221.953 84.155 187.389 -29.817 140.117 -50.863 C 100.13 -53.453 22.26 -68.833 -7.447 -40.907 M -2.186 -183.61 C -46.949 -174.55 -39.502 -83.241 -1.538 -69.238 C 60.061 -62.519 51.886 -181.19 -2.186 -183.61 M 106.443 -183.61 C 53.667 -153.34 94.949 -48.434 154.525 -73.123 C 207.14 -103.23 169.419 -221.17 105.958 -182.97" fill="#FFFFFF" p-id="6370" style="stroke-width: 1;"/><path d="M 128.461 -154.56 C 124.839 -154.31 121.336 -153.17 118.261 -151.24 C 115.1 -149.28 112.351 -146.72 110.167 -143.71 C 106.28 -137.57 104.152 -130.49 104.015 -123.23 C 103.706 -117.74 104.448 -112.25 106.201 -107.04 C 107.945 -101.91 111.084 -97.369 115.266 -93.926 C 119.54 -90.36 124.846 -88.26 130.403 -87.936 C 135.983 -87.671 141.496 -89.234 146.107 -92.388 C 149.735 -94.981 152.702 -98.392 154.768 -102.34 C 156.824 -106.28 158.141 -110.56 158.653 -114.97 C 159.731 -122.75 158.463 -130.67 155.011 -137.72 C 151.45 -144.73 145.426 -150.18 138.093 -153.02 C 134.914 -154.21 131.53 -154.76 128.137 -154.63" fill="#020204" p-id="6371" style="stroke-width: 1;"/><path d="M -2.186 -183.45 C -8.247 -182.91 -13.949 -180.34 -18.375 -176.17 C -22.887 -171.95 -26.209 -166.62 -28.008 -160.71 C -31.242 -148.68 -32.067 -136.14 -30.436 -123.8 C -30.169 -112.77 -28.203 -101.85 -24.608 -91.417 C -22.629 -86.213 -19.598 -81.473 -15.704 -77.494 C -11.814 -73.547 -6.914 -70.747 -1.538 -69.399 C 3.568 -68.03 8.958 -68.142 14.003 -69.723 C 18.949 -71.355 23.441 -74.128 27.116 -77.818 C 32.471 -83.208 36.322 -89.906 38.287 -97.245 C 40.242 -104.64 41.115 -112.27 40.877 -119.91 C 40.872 -129.46 39.426 -138.96 36.587 -148.08 C 33.632 -157.15 28.681 -165.45 22.098 -172.36 C 18.914 -175.66 15.191 -178.4 11.089 -180.46 C 6.971 -182.51 2.416 -183.54 -2.186 -183.45" fill="#FFFFFF" p-id="6372" style="stroke-width: 1;"/><path d="M -16.918 -132.62 C -18.462 -124.92 -18.044 -116.96 -15.704 -109.47 C -13.902 -104.6 -11.151 -100.14 -7.609 -96.354 C -5.344 -93.789 -2.593 -91.698 0.485 -90.203 C 6.477 -86.848 14.032 -88.519 18.05 -94.088 C 19.928 -96.524 21.379 -99.26 22.341 -102.18 C 25.021 -111.17 24.936 -120.76 22.098 -129.7 C 20.302 -136.22 16.679 -142.09 11.656 -146.62 C 9.349 -148.73 6.575 -150.25 3.561 -151.07 C 0.361 -151.93 -3.037 -151.68 -6.071 -150.34 C -9.263 -148.69 -11.865 -146.09 -13.518 -142.9 C -15.065 -139.68 -16.102 -136.24 -16.594 -132.7" fill="#020204" p-id="6373" style="stroke-width: 1;"/><path d="M -29.222 -35.888 C -21.613 -29.412 -15.623 -28.36 -10.362 -17.189 C -5.1 -6.019 39.744 43.358 80.136 26.926 C 113.081 13.813 135.422 -18.565 167.8 -27.793 C 178.566 -60.172 178.404 -80.975 140.117 -71.18 C 96.487 -65.352 48.243 -77.089 7.042 -63.086 C -2.672 -55.558 -10.442 -43.497 -24.203 -45.52 C -27.684 -43.982 -27.522 -39.207 -29.141 -35.969" fill="#D99A03" p-id="6374" style="stroke-width: 1;"/><path d="M -2.753 -65.271 C -16.513 -58.796 -28.251 -47.382 -22.503 -31.436 C -12.466 -28.684 -7.528 -18.565 1.78 -14.842 C 67.508 10.494 114.376 -23.584 156.63 -57.177 C 170.391 -68.023 128.542 -69.804 117.209 -72.314 C 77.789 -86.803 33.592 -88.503 -3.157 -65.271" fill="#604405" p-id="6375" style="stroke-width: 1;"/><path d="M -4.291 -80.813 C -16.999 -73.852 -45.735 -40.34 -24.122 -32.893 C 11.494 -9.338 51.319 -1.486 92.44 -19.618 C 107.658 -26.336 137.284 -47.868 160.839 -60.091 C 175.005 -54.263 181.885 -71.342 167.315 -76.28 C 109.681 -92.469 44.52 -144.68 -4.372 -80.732 M 520.805 538.504 C 501.621 580.515 447.954 587.072 413.633 612.57 C 363.608 655.471 291.324 729.617 231.262 657.495 C 210.135 574.363 255.546 485.323 239.923 398.468 C 249.556 360.666 304.68 388.673 330.178 393.125 C 360.047 404.862 390.887 384.383 420.675 393.125 C 456.777 402.596 436.298 448.735 458.963 469.943 C 475.152 495.684 523.234 503.859 521.048 537.695 M -197.43 363.013 C -129.11 354.919 -97.864 476.338 -58.524 519.482 C -0.81 569.021 18.293 679.755 -81.756 685.664 C -160.92 661.38 -241.14 640.01 -320.95 616.212 C -335.41 609.996 -341.72 592.946 -334.79 578.815 C -307.03 538.342 -323.3 491.475 -321.03 446.469 C -312.94 399.034 -249.64 438.374 -229.48 403.163 C -219.44 389.321 -214.18 370.784 -197.1 362.69" fill="#F5BD0C" p-id="6376" style="stroke-width: 1;"/><path d="M 70.18 -98.945 C 70.989 -96.354 75.117 -96.84 77.465 -95.626 C 81.026 -92.55 87.421 -89.879 89.607 -95.059 C 88.959 -101.37 72.689 -105.74 70.18 -98.945 Z M 30.84 -100.32 C 26.55 -101.94 20.155 -91.741 26.955 -92.226 C 28.007 -93.683 34.159 -98.459 30.84 -100.32 Z M 30.84 -100.32" fill="#CD8907" p-id="6377" style="stroke-width: 1;"/></g></svg>