<?xml version="1.0" encoding="UTF-8"?>
<!DOCTYPE svg PUBLIC "-//W3C//DTD SVG 1.1//EN" "http://www.w3.org/Graphics/SVG/1.1/DTD/svg11.dtd">
<svg xmlns="http://www.w3.org/2000/svg" version="1.1" width="447px" height="500px" style="shape-rendering:geometricPrecision; text-rendering:geometricPrecision; image-rendering:optimizeQuality; fill-rule:evenodd; clip-rule:evenodd" xmlns:xlink="http://www.w3.org/1999/xlink">
<g><path style="opacity:0.997" fill="#e2e1e4" d="M 306.5,2.5 C 306.333,31.1686 306.5,59.8353 307,88.5C 311.16,115.66 326.66,132.16 353.5,138C 383.336,138.831 413.003,138.664 442.5,137.5C 443.498,166.329 443.831,195.329 443.5,224.5C 442.833,224.5 442.167,224.5 441.5,224.5C 440.608,222.286 438.942,221.286 436.5,221.5C 433.274,222.446 430.274,223.946 427.5,226C 416.833,226.667 406.167,226.667 395.5,226C 373.684,212.403 350.018,207.57 324.5,211.5C 317.776,208.19 310.776,207.69 303.5,210C 291.459,216.891 278.459,219.557 264.5,218C 258.505,218.582 252.838,220.248 247.5,223C 245.437,225.511 243.937,228.344 243,231.5C 234.158,262.416 232.158,293.749 237,325.5C 239.416,328.423 242.25,330.757 245.5,332.5C 249.965,336.803 254.131,336.47 258,331.5C 257.825,320.505 257.825,309.505 258,298.5C 260.212,290.451 265.378,285.784 273.5,284.5C 275.856,287.715 277.356,291.381 278,295.5C 279.098,304.463 279.765,313.463 280,322.5C 282.249,325.91 285.416,327.91 289.5,328.5C 289.953,332.954 292.287,335.954 296.5,337.5C 297.058,338.79 298.058,339.623 299.5,340C 308.788,342.524 317.788,341.858 326.5,338C 327.701,337.097 328.535,335.931 329,334.5C 330.164,326.541 330.664,318.541 330.5,310.5C 338.809,311.288 347.142,311.621 355.5,311.5C 355.194,314.385 355.527,317.052 356.5,319.5C 357.981,325.146 361.647,327.979 367.5,328C 369.551,330.02 371.884,331.52 374.5,332.5C 377.634,335.491 381.468,336.824 386,336.5C 391.913,336.524 397.247,334.858 402,331.5C 403.301,316.926 403.967,302.26 404,287.5C 411.545,276.309 414.212,263.976 412,250.5C 411.535,246.607 410.369,242.94 408.5,239.5C 416.472,238.502 424.472,238.169 432.5,238.5C 432.611,239.117 432.944,239.617 433.5,240C 436.867,241.201 440.2,241.368 443.5,240.5C 443.667,308.167 443.5,375.834 443,443.5C 440.205,472.293 424.705,489.793 396.5,496C 280.833,496.667 165.167,496.667 49.5,496C 25.2293,491.063 10.0626,476.563 4,452.5C 3.33333,317.167 3.33333,181.833 4,46.5C 9.86877,23.2979 24.3688,8.79788 47.5,3C 133.833,2.5 220.166,2.33334 306.5,2.5 Z"/></g>
<g><path style="opacity:1" fill="#afafaf" d="M 306.5,2.5 C 352.451,46.7839 397.784,91.7839 442.5,137.5C 413.003,138.664 383.336,138.831 353.5,138C 326.66,132.16 311.16,115.66 307,88.5C 306.5,59.8353 306.333,31.1686 306.5,2.5 Z"/></g>
<g><path style="opacity:1" fill="#bbbbbb" d="M 52.5,40.5 C 90.1681,40.3333 127.835,40.5 165.5,41C 169.666,41.985 171.666,44.6516 171.5,49C 171.6,52.804 169.934,55.4707 166.5,57C 128.5,57.6667 90.5,57.6667 52.5,57C 47.391,53.6338 46.2243,49.1338 49,43.5C 50.5185,42.8366 51.6851,41.8366 52.5,40.5 Z"/></g>
<g><path style="opacity:1" fill="#bcbcbc" d="M 47.5,70.5 C 101.834,70.3333 156.168,70.5 210.5,71C 217.905,72.9769 220.072,77.4769 217,84.5C 215.681,86.4875 213.848,87.6541 211.5,88C 156.5,88.6667 101.5,88.6667 46.5,88C 41.2685,85.3674 39.4351,81.2008 41,75.5C 42.9651,73.4497 45.1318,71.783 47.5,70.5 Z"/></g>
<g><path style="opacity:1" fill="#bbbbbb" d="M 72.5,105.5 C 110.168,105.333 147.835,105.5 185.5,106C 191.542,108.837 193.042,113.337 190,119.5C 189.097,120.701 187.931,121.535 186.5,122C 148.167,122.667 109.833,122.667 71.5,122C 67.2119,118.229 66.3786,113.729 69,108.5C 70.1451,107.364 71.3117,106.364 72.5,105.5 Z"/></g>
<g><path style="opacity:1" fill="#bbbbbb" d="M 45.5,140.5 C 101.501,140.333 157.501,140.5 213.5,141C 218.069,143.541 219.569,147.375 218,152.5C 216.833,154.333 215.333,155.833 213.5,157C 157.5,157.667 101.5,157.667 45.5,157C 40.391,153.634 39.2243,149.134 42,143.5C 43.1451,142.364 44.3117,141.364 45.5,140.5 Z"/></g>
<g><path style="opacity:1" fill="#bbbbbb" d="M 73.5,174.5 C 110.502,174.333 147.502,174.5 184.5,175C 190.995,176.846 193.162,181.012 191,187.5C 189.363,189.81 187.196,191.31 184.5,192C 147.5,192.667 110.5,192.667 73.5,192C 67.388,188.707 65.888,183.873 69,177.5C 70.6516,176.601 72.1516,175.601 73.5,174.5 Z"/></g>
<g><path style="opacity:1" fill="#bbbbbb" d="M 45.5,208.5 C 101.501,208.333 157.501,208.5 213.5,209C 218.535,212.013 219.702,216.18 217,221.5C 215.786,223.049 214.286,224.215 212.5,225C 156.833,225.667 101.167,225.667 45.5,225C 38.8404,219.327 38.8404,213.827 45.5,208.5 Z"/></g>
<g><path style="opacity:1" fill="#3c3a3d" d="M 441.5,224.5 C 443.929,233.006 440.929,237.673 432.5,238.5C 430.981,237.59 429.315,236.757 427.5,236C 419.841,235.5 412.174,235.334 404.5,235.5C 410.928,252.585 409.428,268.918 400,284.5C 399.667,298.167 399.333,311.833 399,325.5C 396.688,329.58 393.188,332.08 388.5,333C 383.78,333.717 379.114,333.55 374.5,332.5C 371.884,331.52 369.551,330.02 367.5,328C 361.647,327.979 357.981,325.146 356.5,319.5C 356.5,315.5 356.5,311.5 356.5,307.5C 346.179,308.694 335.845,308.694 325.5,307.5C 325.666,314.841 325.5,322.174 325,329.5C 324.598,330.872 324.098,332.205 323.5,333.5C 315.088,338.443 306.088,339.776 296.5,337.5C 292.287,335.954 289.953,332.954 289.5,328.5C 285.416,327.91 282.249,325.91 280,322.5C 279.765,313.463 279.098,304.463 278,295.5C 277.356,291.381 275.856,287.715 273.5,284.5C 271.071,281.974 268.071,281.141 264.5,282C 255.954,286.919 251.954,294.419 252.5,304.5C 253.883,312.123 254.383,319.79 254,327.5C 252.326,331.089 249.493,332.755 245.5,332.5C 242.25,330.757 239.416,328.423 237,325.5C 232.158,293.749 234.158,262.416 243,231.5C 243.937,228.344 245.437,225.511 247.5,223C 252.838,220.248 258.505,218.582 264.5,218C 278.459,219.557 291.459,216.891 303.5,210C 310.776,207.69 317.776,208.19 324.5,211.5C 350.018,207.57 373.684,212.403 395.5,226C 406.167,226.667 416.833,226.667 427.5,226C 430.274,223.946 433.274,222.446 436.5,221.5C 438.942,221.286 440.608,222.286 441.5,224.5 Z"/></g>
<g><path style="opacity:1" fill="#bcc2d9" d="M 366.5,216.5 C 353.408,213.595 340.408,213.929 327.5,217.5C 326.893,217.376 326.56,217.043 326.5,216.5C 336.262,213.628 346.262,212.795 356.5,214C 360.09,214.311 363.423,215.144 366.5,216.5 Z"/></g>
<g><path style="opacity:1" fill="#d9def2" d="M 315.5,211.5 C 307.266,214.428 298.933,217.761 290.5,221.5C 289.893,221.376 289.56,221.043 289.5,220.5C 297.342,215.108 306.009,212.108 315.5,211.5 Z"/></g>
<g><path style="opacity:1" fill="#8295d2" d="M 315.5,211.5 C 317.735,212.228 319.568,213.561 321,215.5C 323.747,220.489 325.247,225.822 325.5,231.5C 325.244,233.776 323.91,234.943 321.5,235C 304.273,239.964 287.107,245.131 270,250.5C 269.235,250.43 268.735,250.097 268.5,249.5C 269.815,248.333 270.481,246.833 270.5,245C 269.316,242.344 267.983,239.844 266.5,237.5C 259.402,238.458 256.902,242.458 259,249.5C 259.708,250.381 260.542,251.047 261.5,251.5C 256.444,254.634 250.778,256.634 244.5,257.5C 245.517,246.314 249.184,236.148 255.5,227C 258.5,226 261.5,225 264.5,224C 270.916,224.129 276.916,223.295 282.5,221.5C 283.268,222.263 283.768,223.263 284,224.5C 285.992,223.335 287.825,222.002 289.5,220.5C 289.56,221.043 289.893,221.376 290.5,221.5C 298.933,217.761 307.266,214.428 315.5,211.5 Z"/></g>
<g><path style="opacity:1" fill="#7e91cc" d="M 366.5,216.5 C 375.637,219.068 383.97,223.235 391.5,229C 393.473,229.495 395.473,229.662 397.5,229.5C 379.866,235.746 361.866,241.079 343.5,245.5C 345.117,238.113 342.451,235.78 335.5,238.5C 332.852,245.218 331.019,252.218 330,259.5C 329.685,257.414 329.185,255.414 328.5,253.5C 330.662,241.727 329.328,230.227 324.5,219C 324.639,217.699 325.305,216.866 326.5,216.5C 326.56,217.043 326.893,217.376 327.5,217.5C 340.408,213.929 353.408,213.595 366.5,216.5 Z"/></g>
<g><path style="opacity:1" fill="#dbdff1" d="M 282.5,221.5 C 276.916,223.295 270.916,224.129 264.5,224C 261.5,225 258.5,226 255.5,227C 249.184,236.148 245.517,246.314 244.5,257.5C 242.853,263.694 241.853,270.028 241.5,276.5C 240.214,291.498 240.38,306.498 242,321.5C 242.573,323.641 243.406,325.641 244.5,327.5C 243.504,327.586 242.671,327.252 242,326.5C 240.438,324.043 239.438,321.376 239,318.5C 235.335,288.138 238.335,258.472 248,229.5C 250.412,225.704 253.912,223.538 258.5,223C 266.447,221.725 274.447,221.225 282.5,221.5 Z"/></g>
<g><path style="opacity:0.937" fill="#c7c7c7" d="M 441.5,224.5 C 442.167,224.5 442.833,224.5 443.5,224.5C 444.778,224.782 445.778,225.449 446.5,226.5C 446.5,230.167 446.5,233.833 446.5,237.5C 445.728,238.694 444.728,239.694 443.5,240.5C 440.2,241.368 436.867,241.201 433.5,240C 432.944,239.617 432.611,239.117 432.5,238.5C 440.929,237.673 443.929,233.006 441.5,224.5 Z"/></g>
<g><path style="opacity:1" fill="#798ac3" d="M 403.5,250.5 C 403.817,253.572 403.484,256.572 402.5,259.5C 400.929,260.309 399.262,260.643 397.5,260.5C 397.723,254.439 395.056,250.272 389.5,248C 381.833,247.333 374.167,247.333 366.5,248C 364.996,249.491 364.163,251.324 364,253.5C 362.729,261.242 361.229,268.909 359.5,276.5C 355.958,276.813 352.625,276.479 349.5,275.5C 353.287,276.186 356.454,275.186 359,272.5C 359.297,269.086 359.964,265.753 361,262.5C 361.667,258.833 361.667,255.167 361,251.5C 359.786,249.951 358.286,248.785 356.5,248C 352.5,247.667 348.5,247.333 344.5,247C 343.944,246.617 343.611,246.117 343.5,245.5C 361.866,241.079 379.866,235.746 397.5,229.5C 408.505,229.667 419.505,229.5 430.5,229C 432.441,227.097 434.774,226.264 437.5,226.5C 437.662,228.527 437.495,230.527 437,232.5C 433.791,233.854 430.624,233.687 427.5,232C 417.172,231.5 406.839,231.334 396.5,231.5C 398.025,235.556 399.859,239.556 402,243.5C 402.977,245.74 403.477,248.073 403.5,250.5 Z"/></g>
<g><path style="opacity:1" fill="#3a383b" d="M 258.5,230.5 C 262.198,230.552 265.865,230.886 269.5,231.5C 269.5,232.5 269.5,233.5 269.5,234.5C 265.796,234.724 262.129,234.89 258.5,235C 257.272,233.51 257.272,232.01 258.5,230.5 Z"/></g>
<g><path style="opacity:1" fill="#7d90ca" d="M 325.5,231.5 C 326.813,237.959 327.479,244.626 327.5,251.5C 325.99,250.164 324.323,248.997 322.5,248C 314.833,247.333 307.167,247.333 299.5,248C 298.667,248.833 297.833,249.667 297,250.5C 296.295,254.665 295.461,258.665 294.5,262.5C 294.265,261.903 293.765,261.57 293,261.5C 289.971,262.505 286.971,263.505 284,264.5C 283.505,262.527 283.338,260.527 283.5,258.5C 284.939,256.412 285.606,254.079 285.5,251.5C 284.167,251.5 282.833,251.5 281.5,251.5C 281.5,252.833 281.5,254.167 281.5,255.5C 279.208,255.756 277.041,255.423 275,254.5C 273.762,257.926 274.929,259.592 278.5,259.5C 278.802,262.059 278.468,264.393 277.5,266.5C 265.558,270.036 253.558,273.37 241.5,276.5C 241.853,270.028 242.853,263.694 244.5,257.5C 250.778,256.634 256.444,254.634 261.5,251.5C 264.079,251.606 266.412,250.939 268.5,249.5C 268.735,250.097 269.235,250.43 270,250.5C 287.107,245.131 304.273,239.964 321.5,235C 323.91,234.943 325.244,233.776 325.5,231.5 Z"/></g>
<g><path style="opacity:1" fill="#c8c8c8" d="M 432.5,238.5 C 424.472,238.169 416.472,238.502 408.5,239.5C 410.369,242.94 411.535,246.607 412,250.5C 414.212,263.976 411.545,276.309 404,287.5C 403.967,302.26 403.301,316.926 402,331.5C 397.247,334.858 391.913,336.524 386,336.5C 381.468,336.824 377.634,335.491 374.5,332.5C 379.114,333.55 383.78,333.717 388.5,333C 393.188,332.08 396.688,329.58 399,325.5C 399.333,311.833 399.667,298.167 400,284.5C 409.428,268.918 410.928,252.585 404.5,235.5C 412.174,235.334 419.841,235.5 427.5,236C 429.315,236.757 430.981,237.59 432.5,238.5 Z"/></g>
<g><path style="opacity:1" fill="#3d3a3d" d="M 268.5,249.5 C 266.412,250.939 264.079,251.606 261.5,251.5C 260.542,251.047 259.708,250.381 259,249.5C 256.902,242.458 259.402,238.458 266.5,237.5C 267.983,239.844 269.316,242.344 270.5,245C 270.481,246.833 269.815,248.333 268.5,249.5 Z"/></g>
<g><path style="opacity:1" fill="#bcbcbc" d="M 73.5,242.5 C 110.502,242.333 147.502,242.5 184.5,243C 190.995,244.846 193.162,249.012 191,255.5C 189.457,257.378 187.624,258.878 185.5,260C 148.167,260.667 110.833,260.667 73.5,260C 67.388,256.707 65.888,251.873 69,245.5C 70.6516,244.601 72.1516,243.601 73.5,242.5 Z"/></g>
<g><path style="opacity:1" fill="#edecec" d="M 263.5,242.5 C 264.552,242.351 265.552,242.517 266.5,243C 265.36,244.973 264.027,246.807 262.5,248.5C 261.23,246.243 261.564,244.243 263.5,242.5 Z"/></g>
<g><path style="opacity:1" fill="#dddee4" d="M 397.5,260.5 C 396.177,268.658 391.51,273.824 383.5,276C 379.129,276.172 374.796,276.672 370.5,277.5C 369.945,285.216 366.112,287.549 359,284.5C 358.57,281.808 358.737,279.141 359.5,276.5C 361.229,268.909 362.729,261.242 364,253.5C 364.163,251.324 364.996,249.491 366.5,248C 374.167,247.333 381.833,247.333 389.5,248C 395.056,250.272 397.723,254.439 397.5,260.5 Z"/></g>
<g><path style="opacity:1" fill="#3b3839" d="M 367.5,249.5 C 375.174,249.334 382.841,249.5 390.5,250C 396.654,255.865 397.154,262.365 392,269.5C 390.59,270.787 389.09,271.954 387.5,273C 381.897,274.124 376.231,274.79 370.5,275C 368.426,277.302 367.092,279.968 366.5,283C 364.527,283.495 362.527,283.662 360.5,283.5C 362.326,272.036 364.659,260.703 367.5,249.5 Z"/></g>
<g><path style="opacity:1" fill="#e2e3e9" d="M 343.5,245.5 C 343.611,246.117 343.944,246.617 344.5,247C 348.5,247.333 352.5,247.667 356.5,248C 358.286,248.785 359.786,249.951 361,251.5C 361.667,255.167 361.667,258.833 361,262.5C 359.964,265.753 359.297,269.086 359,272.5C 356.454,275.186 353.287,276.186 349.5,275.5C 348.833,275.5 348.167,275.5 347.5,275.5C 347.744,269.702 348.744,264.035 350.5,258.5C 350.099,256.053 348.599,255.053 346,255.5C 344.564,255.559 343.231,255.892 342,256.5C 340.206,263.195 338.04,269.695 335.5,276C 332.653,276.944 330.153,276.444 328,274.5C 327.747,271.8 327.747,269.133 328,266.5C 326.5,270.667 323.667,273.5 319.5,275C 313.928,276.351 308.262,276.851 302.5,276.5C 302.76,284.237 299.094,287.237 291.5,285.5C 291.851,277.748 292.851,270.081 294.5,262.5C 295.461,258.665 296.295,254.665 297,250.5C 297.833,249.667 298.667,248.833 299.5,248C 307.167,247.333 314.833,247.333 322.5,248C 324.323,248.997 325.99,250.164 327.5,251.5C 327.833,252.167 328.167,252.833 328.5,253.5C 329.185,255.414 329.685,257.414 330,259.5C 331.019,252.218 332.852,245.218 335.5,238.5C 342.451,235.78 345.117,238.113 343.5,245.5 Z"/></g>
<g><path style="opacity:1" fill="#3b3839" d="M 299.5,249.5 C 307.174,249.334 314.841,249.5 322.5,250C 329.526,255.162 330.359,261.328 325,268.5C 323.062,271.106 320.562,272.939 317.5,274C 312.5,274.333 307.5,274.667 302.5,275C 300.664,277.493 299.664,280.326 299.5,283.5C 297.167,283.5 294.833,283.5 292.5,283.5C 294.466,272.056 296.799,260.723 299.5,249.5 Z"/></g>
<g><path style="opacity:1" fill="#3b3839" d="M 336.5,239.5 C 341.651,238.477 343.318,240.31 341.5,245C 341.439,246.711 342.106,248.044 343.5,249C 347.5,249.333 351.5,249.667 355.5,250C 357.329,250.273 358.829,251.107 360,252.5C 359.675,257.825 359.008,263.159 358,268.5C 357.555,273.938 354.721,275.771 349.5,274C 349.043,273.586 348.709,273.086 348.5,272.5C 350.637,267.011 351.471,261.345 351,255.5C 345.922,252.178 341.922,253.178 339,258.5C 338.197,263.657 336.864,268.657 335,273.5C 333.301,274.406 331.467,274.739 329.5,274.5C 331.197,262.683 333.53,251.016 336.5,239.5 Z"/></g>
<g><path style="opacity:1" fill="#7788bf" d="M 347.5,275.5 C 329.677,281.461 311.677,287.127 293.5,292.5C 289.72,291.248 285.72,289.581 281.5,287.5C 281.167,287.5 280.833,287.5 280.5,287.5C 278.479,285.307 276.812,282.807 275.5,280C 280.623,273.615 283.29,266.449 283.5,258.5C 283.338,260.527 283.505,262.527 284,264.5C 286.971,263.505 289.971,262.505 293,261.5C 293.765,261.57 294.265,261.903 294.5,262.5C 292.851,270.081 291.851,277.748 291.5,285.5C 299.094,287.237 302.76,284.237 302.5,276.5C 308.262,276.851 313.928,276.351 319.5,275C 323.667,273.5 326.5,270.667 328,266.5C 327.747,269.133 327.747,271.8 328,274.5C 330.153,276.444 332.653,276.944 335.5,276C 338.04,269.695 340.206,263.195 342,256.5C 343.231,255.892 344.564,255.559 346,255.5C 348.599,255.053 350.099,256.053 350.5,258.5C 348.744,264.035 347.744,269.702 347.5,275.5 Z"/></g>
<g><path style="opacity:1" fill="#dbdbdb" d="M 375.5,253.5 C 383.442,252.511 386.942,255.844 386,263.5C 382.813,269.236 378.146,270.902 372,268.5C 371.304,264.095 371.637,259.761 373,255.5C 373.995,254.934 374.828,254.267 375.5,253.5 Z"/></g>
<g><path style="opacity:1" fill="#3c393a" d="M 375.5,255.5 C 384.487,254.668 386.821,258.168 382.5,266C 379.783,268.076 376.783,268.743 373.5,268C 372.773,263.708 373.44,259.541 375.5,255.5 Z"/></g>
<g><path style="opacity:1" fill="#dedede" d="M 307.5,253.5 C 312.039,252.957 315.873,254.29 319,257.5C 318.566,267.257 313.566,270.924 304,268.5C 303.082,262.909 304.248,257.909 307.5,253.5 Z"/></g>
<g><path style="opacity:1" fill="#3d3a3b" d="M 307.5,255.5 C 317.813,255.28 319.813,259.113 313.5,267C 310.986,268.252 308.32,268.752 305.5,268.5C 305.271,263.99 305.938,259.657 307.5,255.5 Z"/></g>
<g><path style="opacity:1" fill="#7789c0" d="M 277.5,266.5 C 277.262,270.138 275.596,272.971 272.5,275C 259.284,277.549 251.451,285.382 249,298.5C 248.602,307.851 248.602,317.184 249,326.5C 247.774,328.548 246.274,328.881 244.5,327.5C 243.406,325.641 242.573,323.641 242,321.5C 240.38,306.498 240.214,291.498 241.5,276.5C 253.558,273.37 265.558,270.036 277.5,266.5 Z"/></g>
<g><path style="opacity:1" fill="#7181b7" d="M 403.5,250.5 C 404.899,262.899 401.899,274.232 394.5,284.5C 373.167,290.833 351.833,297.167 330.5,303.5C 325.917,303.543 322.583,301.543 320.5,297.5C 319.893,297.624 319.56,297.957 319.5,298.5C 313.123,300.011 306.79,301.677 300.5,303.5C 298.283,302.631 295.95,302.298 293.5,302.5C 293.5,299.167 293.5,295.833 293.5,292.5C 311.677,287.127 329.677,281.461 347.5,275.5C 348.167,275.5 348.833,275.5 349.5,275.5C 352.625,276.479 355.958,276.813 359.5,276.5C 358.737,279.141 358.57,281.808 359,284.5C 366.112,287.549 369.945,285.216 370.5,277.5C 374.796,276.672 379.129,276.172 383.5,276C 391.51,273.824 396.177,268.658 397.5,260.5C 399.262,260.643 400.929,260.309 402.5,259.5C 403.484,256.572 403.817,253.572 403.5,250.5 Z"/></g>
<g><path style="opacity:1" fill="#bbbbbb" d="M 45.5,277.5 C 101.168,277.333 156.834,277.5 212.5,278C 220.091,282.821 220.424,288.155 213.5,294C 157.5,294.667 101.5,294.667 45.5,294C 40.391,290.634 39.2243,286.134 42,280.5C 43.5185,279.837 44.6851,278.837 45.5,277.5 Z"/></g>
<g><path style="opacity:1" fill="#c7c7c7" d="M 273.5,284.5 C 265.378,285.784 260.212,290.451 258,298.5C 257.825,309.505 257.825,320.505 258,331.5C 254.131,336.47 249.965,336.803 245.5,332.5C 249.493,332.755 252.326,331.089 254,327.5C 254.383,319.79 253.883,312.123 252.5,304.5C 251.954,294.419 255.954,286.919 264.5,282C 268.071,281.141 271.071,281.974 273.5,284.5 Z"/></g>
<g><path style="opacity:1" fill="#6777a8" d="M 394.5,284.5 C 394.297,286.044 393.63,287.378 392.5,288.5C 393.325,289.386 394.325,289.719 395.5,289.5C 395.5,296.167 395.5,302.833 395.5,309.5C 390.309,311.064 385.142,312.73 380,314.5C 379.617,313.944 379.117,313.611 378.5,313.5C 377.458,312.209 376.292,312.209 375,313.5C 374.722,312.584 374.222,311.918 373.5,311.5C 372.5,310.167 371.5,310.167 370.5,311.5C 369.766,310.292 369.433,308.959 369.5,307.5C 370.552,307.649 371.552,307.483 372.5,307C 372.833,306 373.167,305 373.5,304C 371.866,303.506 370.199,303.34 368.5,303.5C 368.5,301.833 368.5,300.167 368.5,298.5C 367.5,298.5 366.5,298.5 365.5,298.5C 365.5,299.5 365.5,300.5 365.5,301.5C 353.815,304.388 342.149,305.055 330.5,303.5C 351.833,297.167 373.167,290.833 394.5,284.5 Z"/></g>
<g><path style="opacity:1" fill="#7081b5" d="M 284.5,293.5 C 286.371,293.859 287.871,294.859 289,296.5C 289.498,299.817 289.665,303.15 289.5,306.5C 288.21,307.058 287.377,308.058 287,309.5C 286.768,308.263 286.268,307.263 285.5,306.5C 285.628,302.119 285.295,297.785 284.5,293.5 Z"/></g>
<g><path style="opacity:1" fill="#d4d9ed" d="M 280.5,287.5 C 280.833,287.5 281.167,287.5 281.5,287.5C 282.123,289.711 283.123,291.711 284.5,293.5C 285.295,297.785 285.628,302.119 285.5,306.5C 285.167,306.5 284.833,306.5 284.5,306.5C 283.427,300.138 282.094,293.805 280.5,287.5 Z"/></g>
<g><path style="opacity:1" fill="#c1c1c1" d="M 356.5,319.5 C 355.527,317.052 355.194,314.385 355.5,311.5C 347.142,311.621 338.809,311.288 330.5,310.5C 330.664,318.541 330.164,326.541 329,334.5C 328.535,335.931 327.701,337.097 326.5,338C 317.788,341.858 308.788,342.524 299.5,340C 298.058,339.623 297.058,338.79 296.5,337.5C 306.088,339.776 315.088,338.443 323.5,333.5C 324.098,332.205 324.598,330.872 325,329.5C 325.5,322.174 325.666,314.841 325.5,307.5C 335.845,308.694 346.179,308.694 356.5,307.5C 356.5,311.5 356.5,315.5 356.5,319.5 Z"/></g>
<g><path style="opacity:1" fill="#d8ddf1" d="M 284.5,306.5 C 285.8,311.6 285.8,316.6 284.5,321.5C 283.167,316.5 283.167,311.5 284.5,306.5 Z"/></g>
<g><path style="opacity:1" fill="#b0bbde" d="M 361.5,309.5 C 361.328,310.492 361.662,311.158 362.5,311.5C 362.665,315.182 362.499,318.848 362,322.5C 361.333,321.833 360.667,321.167 360,320.5C 359.333,317.167 359.333,313.833 360,310.5C 360.383,309.944 360.883,309.611 361.5,309.5 Z"/></g>
<g><path style="opacity:1" fill="#7888bf" d="M 373.5,311.5 C 374.387,317.145 374.554,322.812 374,328.5C 372.846,327.257 371.512,326.257 370,325.5C 369.283,320.78 369.45,316.114 370.5,311.5C 371.5,310.167 372.5,310.167 373.5,311.5 Z"/></g>
<g><path style="opacity:1" fill="#6a7aad" d="M 319.5,298.5 C 321.019,304.762 321.686,311.262 321.5,318C 324.353,328.919 320.353,334.752 309.5,335.5C 309.167,326.167 308.833,326.167 308.5,335.5C 306.5,335.5 304.5,335.5 302.5,335.5C 302.334,331.486 302.501,327.486 303,323.5C 304.836,321.869 304.336,321.202 301.5,321.5C 301.649,320.448 301.483,319.448 301,318.5C 298.901,317.869 297.068,316.869 295.5,315.5C 295.5,313.5 295.5,311.5 295.5,309.5C 296.833,309.5 298.167,309.5 299.5,309.5C 299.833,307.5 300.167,305.5 300.5,303.5C 306.79,301.677 313.123,300.011 319.5,298.5 Z"/></g>
<g><path style="opacity:1" fill="#7382b6" d="M 362.5,311.5 C 361.662,311.158 361.328,310.492 361.5,309.5C 360.766,308.292 360.433,306.959 360.5,305.5C 362.5,305.5 364.5,305.5 366.5,305.5C 366.773,307.451 366.107,308.951 364.5,310C 366.723,310.652 367.89,312.152 368,314.5C 368.498,317.817 368.665,321.15 368.5,324.5C 366.856,324.714 365.356,324.38 364,323.5C 363.824,319.312 363.324,315.312 362.5,311.5 Z"/></g>
<g><path style="opacity:1" fill="#bcbcbc" d="M 73.5,311.5 C 110.502,311.333 147.502,311.5 184.5,312C 191.011,313.882 193.178,318.049 191,324.5C 189.773,326.726 187.939,328.226 185.5,329C 147.833,329.667 110.167,329.667 72.5,329C 67.8451,326.103 66.3451,321.937 68,316.5C 69.7297,314.598 71.563,312.931 73.5,311.5 Z"/></g>
<g><path style="opacity:1" fill="#7e90cc" d="M 378.5,313.5 C 379.04,317.642 379.706,321.642 380.5,325.5C 380.5,326.833 380.5,328.167 380.5,329.5C 379.07,329.579 377.736,329.246 376.5,328.5C 375.338,323.869 375.172,319.202 376,314.5C 376.671,313.748 377.504,313.414 378.5,313.5 Z"/></g>
<g><path style="opacity:1" fill="#5e6b98" d="M 395.5,309.5 C 395.828,314.875 395.495,320.208 394.5,325.5C 392.09,327.372 389.423,328.705 386.5,329.5C 386.456,324.882 385.456,320.548 383.5,316.5C 382.817,316.863 382.15,317.196 381.5,317.5C 380.527,319.948 380.194,322.615 380.5,325.5C 379.706,321.642 379.04,317.642 378.5,313.5C 379.117,313.611 379.617,313.944 380,314.5C 385.142,312.73 390.309,311.064 395.5,309.5 Z"/></g>
<g><path style="opacity:1" fill="#cacedf" d="M 295.5,309.5 C 295.5,311.5 295.5,313.5 295.5,315.5C 295.629,317.216 295.962,318.883 296.5,320.5C 296.824,324.555 296.491,328.555 295.5,332.5C 294.914,332.291 294.414,331.957 294,331.5C 293.702,325.02 293.535,318.686 293.5,312.5C 293.64,310.97 294.307,309.97 295.5,309.5 Z"/></g>
<g><path style="opacity:1" fill="#7e91cd" d="M 386.5,329.5 C 384.833,329.5 383.167,329.5 381.5,329.5C 381.5,325.5 381.5,321.5 381.5,317.5C 382.15,317.196 382.817,316.863 383.5,316.5C 385.456,320.548 386.456,324.882 386.5,329.5 Z"/></g>
<g><path style="opacity:1" fill="#606477" d="M 284.5,306.5 C 284.833,306.5 285.167,306.5 285.5,306.5C 286.268,307.263 286.768,308.263 287,309.5C 287.377,308.058 288.21,307.058 289.5,306.5C 289.5,307.167 289.5,307.833 289.5,308.5C 288.778,308.918 288.278,309.584 288,310.5C 287.501,314.486 287.334,318.486 287.5,322.5C 286.209,322.737 285.209,322.404 284.5,321.5C 285.8,316.6 285.8,311.6 284.5,306.5 Z"/></g>
<g><path style="opacity:1" fill="#7382b6" d="M 289.5,308.5 C 289.828,313.875 289.495,319.208 288.5,324.5C 287.702,324.043 287.369,323.376 287.5,322.5C 287.334,318.486 287.501,314.486 288,310.5C 288.278,309.584 288.778,308.918 289.5,308.5 Z"/></g>
<g><path style="opacity:1" fill="#7e90cb" d="M 300.5,334.5 C 299.504,334.586 298.671,334.252 298,333.5C 297.501,329.179 297.334,324.846 297.5,320.5C 299.412,318.128 300.578,318.795 301,322.5C 301.812,326.689 301.645,330.689 300.5,334.5 Z"/></g>
<g><path style="opacity:1" fill="#4a4e61" d="M 295.5,315.5 C 297.068,316.869 298.901,317.869 301,318.5C 301.483,319.448 301.649,320.448 301.5,321.5C 304.336,321.202 304.836,321.869 303,323.5C 302.501,327.486 302.334,331.486 302.5,335.5C 301.508,335.672 300.842,335.338 300.5,334.5C 301.645,330.689 301.812,326.689 301,322.5C 300.578,318.795 299.412,318.128 297.5,320.5C 297.167,320.5 296.833,320.5 296.5,320.5C 295.962,318.883 295.629,317.216 295.5,315.5 Z"/></g>
<g><path style="opacity:1" fill="#bbbbbb" d="M 45.5,343.5 C 101.168,343.333 156.834,343.5 212.5,344C 218.543,346.884 220.043,351.384 217,357.5C 216.097,358.701 214.931,359.535 213.5,360C 157.5,360.667 101.5,360.667 45.5,360C 40.391,356.634 39.2243,352.134 42,346.5C 43.5185,345.837 44.6851,344.837 45.5,343.5 Z"/></g>
<g><path style="opacity:1" fill="#bbbbbb" d="M 72.5,378.5 C 110.501,378.333 148.501,378.5 186.5,379C 191.738,382.274 192.904,386.774 190,392.5C 189.097,393.701 187.931,394.535 186.5,395C 148.5,395.667 110.5,395.667 72.5,395C 67.8451,392.103 66.3451,387.937 68,382.5C 69.3968,380.93 70.8968,379.596 72.5,378.5 Z"/></g>
<g><path style="opacity:1" fill="#bbbbbb" d="M 47.5,412.5 C 102.168,412.333 156.834,412.5 211.5,413C 217.995,414.846 220.162,419.012 218,425.5C 216.457,427.378 214.624,428.878 212.5,430C 157.167,430.667 101.833,430.667 46.5,430C 40.9109,427.549 39.0776,423.383 41,417.5C 42.8049,415.174 44.9716,413.508 47.5,412.5 Z"/></g>
<g><path style="opacity:1" fill="#bbbbbb" d="M 267.5,412.5 C 304.502,412.333 341.502,412.5 378.5,413C 384.995,414.846 387.162,419.012 385,425.5C 383.457,427.378 381.624,428.878 379.5,430C 341.833,430.667 304.167,430.667 266.5,430C 260.632,426.96 259.132,422.46 262,416.5C 263.812,415.023 265.645,413.69 267.5,412.5 Z"/></g>
<g><path style="opacity:1" fill="#bbbbbb" d="M 72.5,447.5 C 110.168,447.333 147.835,447.5 185.5,448C 191.542,450.837 193.042,455.337 190,461.5C 189.097,462.701 187.931,463.535 186.5,464C 148.167,464.667 109.833,464.667 71.5,464C 67.2119,460.229 66.3786,455.729 69,450.5C 70.1451,449.364 71.3117,448.364 72.5,447.5 Z"/></g>
<g><path style="opacity:1" fill="#bbbbbb" d="M 224.5,447.5 C 279.834,447.333 335.168,447.5 390.5,448C 398.945,452.246 399.612,457.579 392.5,464C 336.167,464.667 279.833,464.667 223.5,464C 216.671,458.003 217.004,452.503 224.5,447.5 Z"/></g>
</svg>
