<?xml version="1.0" encoding="utf-8"?>
<svg xmlns="http://www.w3.org/2000/svg" viewBox="0 0 570 500" xmlns:bx="https://boxy-svg.com" width="570px" height="500px"><defs><linearGradient x1="26.599%" y1="146.559136%" x2="73.8446667%" y2="52.3813953%" id="linearGradient-1"><stop stop-color="#0095D5" offset="0.0968"/><stop stop-color="#238AD9" offset="0.3007"/><stop stop-color="#557BDE" offset="0.6211"/><stop stop-color="#7472E2" offset="0.8643"/><stop stop-color="#806EE3" offset="1"/></linearGradient><linearGradient x1="13.9840532%" y1="37.1049231%" x2="68.682392%" y2="-13.5538462%" id="linearGradient-2"><stop stop-color="#0095D5" offset="0.1183"/><stop stop-color="#3C83DC" offset="0.4178"/><stop stop-color="#6D74E1" offset="0.6962"/><stop stop-color="#806EE3" offset="0.8333"/></linearGradient><linearGradient x1="-16.8361667%" y1="91.9396667%" x2="76.2191667%" y2="-1.11566667%" id="linearGradient-3"><stop stop-color="#C757BC" offset="0.1075"/><stop stop-color="#D0609A" offset="0.2138"/><stop stop-color="#E1725C" offset="0.4254"/><stop stop-color="#EE7E2F" offset="0.6048"/><stop stop-color="#F58613" offset="0.743"/><stop stop-color="#F88909" offset="0.8232"/></linearGradient><linearGradient gradientUnits="userSpaceOnUse" x1="-14.251" y1="335.905" x2="-14.251" y2="471.517" id="gradient-0"><stop offset="0" style="stop-color: rgb(69.804% 69.804% 69.804%)"/><stop offset="1" style="stop-color: rgb(40.339% 40.339% 40.339%)"/></linearGradient><linearGradient gradientUnits="userSpaceOnUse" x1="-14.916" y1="290.539" x2="-14.916" y2="335.905" id="gradient-1"><stop offset="0" style="stop-color: rgb(69.804% 69.804% 69.804%)"/><stop offset="1" style="stop-color: rgb(40.339% 40.339% 40.339%)"/></linearGradient><linearGradient gradientUnits="userSpaceOnUse" x1="-14.251" y1="335.905" x2="-14.251" y2="471.517" id="gradient-2" gradientTransform="matrix(0.994073, 0, 0, 1.04, 307.327544, -36.340488)"><stop offset="0" style="stop-color: rgb(69.804% 69.804% 69.804%)"/><stop offset="1" style="stop-color: rgb(40.339% 40.339% 40.339%)"/></linearGradient><linearGradient gradientUnits="userSpaceOnUse" x1="-14.916" y1="290.539" x2="-14.916" y2="335.905" id="gradient-3" gradientTransform="matrix(0.994073, 0, 0, 1.04, 299.827879, -36.34024)"><stop offset="0" style="stop-color: rgb(69.804% 69.804% 69.804%)"/><stop offset="1" style="stop-color: rgb(40.339% 40.339% 40.339%)"/></linearGradient><linearGradient gradientUnits="userSpaceOnUse" x1="-14.916" y1="290.539" x2="-14.916" y2="335.905" id="gradient-4" gradientTransform="matrix(0.994073, 0, 0, 1.04, 299.827879, -36.34024)"><stop offset="0" style="stop-color: rgb(69.804% 69.804% 69.804%)"/><stop offset="1" style="stop-color: rgb(40.339% 40.339% 40.339%)"/></linearGradient><linearGradient id="color-0"><stop style="stop-color: #00c9ff;" offset="0"/><stop style="stop-color: #92fe9d;" offset="1"/></linearGradient><linearGradient id="color-0-0" href="#color-0" gradientUnits="userSpaceOnUse" x1="293.161" y1="313.001" x2="293.161" y2="454.037"/><linearGradient id="color-1"><stop style="stop-color: #00f260;" offset="0"/><stop style="stop-color: #0575e6;" offset="1"/></linearGradient><linearGradient id="color-1-0" href="#color-1" gradientUnits="userSpaceOnUse" x1="293.161" y1="313.001" x2="293.161" y2="454.037"/><linearGradient id="color-0-1" href="#color-0" gradientUnits="userSpaceOnUse" x1="293.161" y1="313.001" x2="293.161" y2="454.037"/><linearGradient id="color-1-1" href="#color-1" gradientUnits="userSpaceOnUse" x1="293.161" y1="313.001" x2="293.161" y2="454.037"/><linearGradient id="color-0-2" href="#color-0" gradientUnits="userSpaceOnUse" x1="293.161" y1="313.001" x2="293.161" y2="454.037"/><linearGradient id="color-1-2" href="#color-1" gradientUnits="userSpaceOnUse" x1="293.161" y1="313.001" x2="293.161" y2="454.037"/><linearGradient id="color-0-3" href="#color-0" gradientUnits="userSpaceOnUse" x1="293.161" y1="313.001" x2="293.161" y2="454.037" gradientTransform="matrix(1, -0.000583, 0.00064, 1.097367, -7.69994, -30.304718)"/><linearGradient id="color-2"><stop style="stop-color: #70e1f5;" offset="0"/><stop style="stop-color: #ffd194;" offset="1"/></linearGradient><linearGradient id="color-2-0" href="#color-2" gradientUnits="userSpaceOnUse" x1="285.661" y1="313.001" x2="285.661" y2="454.037"/></defs><path d="M 509.747 139.301 L 509.747 441.338 C 509.747 471.543 484.577 496 453.498 496 L 116.008 496 C 84.938 496 59.748 471.543 59.748 441.338 L 59.748 58.667 C 59.748 28.462 84.938 4 116.008 4 L 370.527 4 L 509.747 139.301 Z" p-id="7999" style="stroke-width: 1; fill: rgb(226, 233, 225);"/><path d="M 370.527 84.635 L 370.527 4.001 L 509.748 139.301 L 426.779 139.301 C 395.699 139.301 370.527 114.841 370.527 84.635" p-id="8000" style="stroke-width: 1; fill: rgb(191, 191, 191);"/><path d="M 5.323 313.001 L 565.999 313.001 L 565.999 430.574 C 565.999 443.662 553.344 454.037 538.039 454.037 L 33.595 454.037 C 26.229 454.037 18.873 451.567 13.843 447.121 C 8.574 442.674 5.622 436.745 5.622 430.323 L 5.622 313.001 L 5.323 313.001 Z" p-id="9051" style="stroke-width: 1.017; fill: url(&quot;#color-2-0&quot;);"/><path d="M 60.335 313.001 L 60.335 265.82 L 4.001 313.001 L 60.335 313.001 Z" p-id="9052" style="stroke-width: 1.017; fill: url(&quot;#gradient-3&quot;);"/><path d="M 509.385 313.001 L 509.976 265.82 L 565.999 313.001 L 509.385 313.001 Z" p-id="9052" style="stroke-width: 1.017; fill: url(&quot;#gradient-4&quot;);"/><text style="font-family: Arial, sans-serif; font-size: 108px; white-space: pre;"><tspan x="106.867" y="419.104">images</tspan></text><title/><title>text-right</title><title>text-center-solid</title><g id="Layer_1" transform="matrix(0.79133, 0, 0, 0.79133, 79.958503, -291.447447)"><polygon style="fill: rgb(65, 94, 114); stroke-width: 1;" points="3.11 736.036 151.182 564.228 299.246 736.036"/><polygon style="fill: rgb(37, 182, 210); stroke-width: 1;" points="114.19 736.036 314.654 503.46 515.11 736.036"/><circle style="fill: rgb(255, 208, 125); stroke-width: 1;" cx="207.934" cy="454.204" r="49.256"/></g></svg>