<?xml version="1.0" encoding="utf-8"?>
<svg xmlns="http://www.w3.org/2000/svg" viewBox="0 0 570 500" xmlns:bx="https://boxy-svg.com" width="570px" height="500px"><defs><linearGradient x1="26.599%" y1="146.559136%" x2="73.8446667%" y2="52.3813953%" id="linearGradient-1"><stop stop-color="#0095D5" offset="0.0968"/><stop stop-color="#238AD9" offset="0.3007"/><stop stop-color="#557BDE" offset="0.6211"/><stop stop-color="#7472E2" offset="0.8643"/><stop stop-color="#806EE3" offset="1"/></linearGradient><linearGradient x1="13.9840532%" y1="37.1049231%" x2="68.682392%" y2="-13.5538462%" id="linearGradient-2"><stop stop-color="#0095D5" offset="0.1183"/><stop stop-color="#3C83DC" offset="0.4178"/><stop stop-color="#6D74E1" offset="0.6962"/><stop stop-color="#806EE3" offset="0.8333"/></linearGradient><linearGradient x1="-16.8361667%" y1="91.9396667%" x2="76.2191667%" y2="-1.11566667%" id="linearGradient-3"><stop stop-color="#C757BC" offset="0.1075"/><stop stop-color="#D0609A" offset="0.2138"/><stop stop-color="#E1725C" offset="0.4254"/><stop stop-color="#EE7E2F" offset="0.6048"/><stop stop-color="#F58613" offset="0.743"/><stop stop-color="#F88909" offset="0.8232"/></linearGradient><linearGradient gradientUnits="userSpaceOnUse" x1="-14.251" y1="335.905" x2="-14.251" y2="471.517" id="gradient-0"><stop offset="0" style="stop-color: rgb(69.804% 69.804% 69.804%)"/><stop offset="1" style="stop-color: rgb(40.339% 40.339% 40.339%)"/></linearGradient><linearGradient gradientUnits="userSpaceOnUse" x1="-14.916" y1="290.539" x2="-14.916" y2="335.905" id="gradient-1"><stop offset="0" style="stop-color: rgb(69.804% 69.804% 69.804%)"/><stop offset="1" style="stop-color: rgb(40.339% 40.339% 40.339%)"/></linearGradient><linearGradient gradientUnits="userSpaceOnUse" x1="-14.251" y1="335.905" x2="-14.251" y2="471.517" id="gradient-2" gradientTransform="matrix(0.994073, 0, 0, 1.04, 299.827544, -36.340492)"><stop offset="0" style="stop-color: rgb(69.804% 69.804% 69.804%)"/><stop offset="1" style="stop-color: rgb(40.339% 40.339% 40.339%)"/></linearGradient><linearGradient gradientUnits="userSpaceOnUse" x1="-14.916" y1="290.539" x2="-14.916" y2="335.905" id="gradient-3" gradientTransform="matrix(0.994073, 0, 0, 1.04, 299.827131, -36.340515)"><stop offset="0" style="stop-color: rgb(69.804% 69.804% 69.804%)"/><stop offset="1" style="stop-color: rgb(40.339% 40.339% 40.339%)"/></linearGradient><linearGradient id="color-0"><stop style="stop-color: #c6ffdd;" offset="0"/><stop style="stop-color: #fbd786;" offset="0.5"/><stop style="stop-color: #f7797d;" offset="1"/></linearGradient><linearGradient id="color-1"><stop style="stop-color: #fc4a1a;" offset="0.19"/><stop style="stop-color: #f7b733;" offset="1"/></linearGradient><linearGradient id="color-0-0" href="#color-0" gradientUnits="userSpaceOnUse" x1="285.661" y1="313.001" x2="285.661" y2="454.037"/><linearGradient id="color-1-0" href="#color-1" gradientUnits="userSpaceOnUse" x1="285.661" y1="313.001" x2="285.661" y2="454.037"/><linearGradient id="color-2"><stop style="stop-color: #2980b9;" offset="0"/><stop style="stop-color: #6dd5fa;" offset="0.5"/><stop style="stop-color: #ffffff;" offset="1"/></linearGradient><linearGradient id="color-2-0" href="#color-2" gradientUnits="userSpaceOnUse" x1="285.661" y1="313.001" x2="285.661" y2="454.037"/><linearGradient id="color-3"><stop style="stop-color: #4ac29a;" offset="0"/><stop style="stop-color: #bdfff3;" offset="1"/></linearGradient><linearGradient id="color-3-0" href="#color-3" gradientUnits="userSpaceOnUse" x1="285.661" y1="313.001" x2="285.661" y2="454.037" gradientTransform="matrix(1, 0, 0, 1, -0.000403, -0.000031)"/><linearGradient id="color-4"><stop style="stop-color: #2193b0;" offset="0"/><stop style="stop-color: #6dd5ed;" offset="1"/></linearGradient><linearGradient id="color-4-0" href="#color-4" gradientUnits="userSpaceOnUse" x1="285.661" y1="313.001" x2="285.661" y2="454.037"/><linearGradient id="a" x1="4.494" y1="-1712.086" x2="13.832" y2="-1695.914" gradientTransform="matrix(7.692305, 0, 0, 7.692305, 130.612518, 13311.682549)" gradientUnits="userSpaceOnUse"><stop offset="0" stop-color="#2368c4"/><stop offset="0.5" stop-color="#1a5dbe"/><stop offset="1" stop-color="#1146ac"/></linearGradient></defs><path d="M 509.746 139.301 L 509.746 441.338 C 509.746 471.543 484.576 496 453.497 496 L 116.007 496 C 84.937 496 59.747 471.543 59.747 441.338 L 59.747 58.667 C 59.747 28.462 84.937 4 116.007 4 L 370.526 4 L 509.746 139.301 Z" p-id="7999" style="stroke-width: 1; fill: rgb(227, 228, 233);"/><path d="M 370.526 84.635 L 370.526 4.001 L 509.747 139.301 L 426.778 139.301 C 395.698 139.301 370.526 114.841 370.526 84.635" p-id="8000" style="stroke-width: 1; pointer-events: none; fill: rgb(183, 188, 198);"/><path d="M 5.323 313.001 L 565.999 313.001 L 565.999 430.574 C 565.999 443.662 553.344 454.037 538.039 454.037 L 33.595 454.037 C 26.229 454.037 18.873 451.567 13.843 447.121 C 8.574 442.674 5.622 436.745 5.622 430.323 L 5.622 313.001 L 5.323 313.001 Z" p-id="9051" style="stroke-width: 1.017; fill: url(&quot;#color-4-0&quot;);"/><path d="M 60.335 313.001 L 60.335 265.82 L 4.001 313.001 L 60.335 313.001 Z M 509.385 313.001 L 509.976 265.82 L 565.999 313.001 L 509.385 313.001 Z" p-id="9052" style="stroke-width: 1.017; fill: url(&quot;#gradient-3&quot;);"/><text style="fill: rgb(255, 255, 255); font-family: Arial, sans-serif; font-size: 108px; white-space: pre;"><tspan x="39.565" y="423.442">document</tspan></text><title/><title>text-right</title><title>text-center-solid</title><title>file_type_word</title><path d="M 361.342 104 L 214.412 104 C 209.342 103.991 205.234 108.092 205.234 113.161 L 205.234 154 L 290.381 179 L 370.526 154 L 370.526 113.161 C 370.519 108.092 366.404 103.984 361.342 104 Z" style="fill: rgb(65, 165, 238); stroke-width: 1;"/><path d="M 370.526 154 L 205.234 154 L 205.234 204 L 290.381 219 L 370.526 204 L 370.526 154 Z" style="fill: rgb(43, 124, 211); stroke-width: 1;"/><path d="M 205.234 204 L 205.234 254 L 285.374 264 L 370.526 254 L 370.526 204 L 205.234 204 Z" style="fill: rgb(24, 90, 189); stroke-width: 1;"/><path d="M 214.412 304 L 361.333 304 C 366.404 304.009 370.519 299.908 370.526 294.839 L 370.526 254 L 205.234 254 L 205.234 294.839 C 205.234 299.899 209.342 304 214.412 304 Z" style="fill: rgb(16, 63, 145); stroke-width: 1;"/><path d="M 266.174 144 L 205.234 144 L 205.234 269 L 266.174 269 C 271.227 268.97 275.319 264.885 275.356 259.839 L 275.356 153.161 C 275.319 148.108 271.227 144.023 266.174 144 Z" style="opacity: 0.1; isolation: isolate; stroke-width: 1;"/><path d="M 261.165 149 L 205.234 149 L 205.234 274 L 261.165 274 C 266.218 273.97 270.312 269.885 270.351 264.839 L 270.351 158.161 C 270.312 153.108 266.218 149.023 261.165 149 Z" style="opacity: 0.2; isolation: isolate; stroke-width: 1;"/><path d="M 256.931 149 L 201 149 L 201 264 L 256.931 264 C 261.984 263.97 266.078 259.885 266.117 254.839 L 266.117 158.161 C 266.078 153.108 261.984 149.023 256.931 149 Z" style="opacity: 0.2; isolation: isolate; stroke-width: 1;"/><path d="M 247.922 149 L 197 149 L 197 264 L 247.922 264 C 252.978 263.97 257.069 259.885 257.108 254.839 L 257.108 158.161 C 257.069 153.108 252.978 149.023 247.922 149 Z" style="opacity: 0.2; isolation: isolate; stroke-width: 1;"/><path d="M 155.184 149 L 247.014 149 C 252.076 148.991 256.191 153.092 256.2 158.161 L 256.2 249.839 C 256.191 254.899 252.076 259 247.014 259 L 155.184 259 C 150.115 259.009 146 254.899 146 249.839 L 146 158.161 C 146 153.092 150.115 148.984 155.184 149 Z" style="fill: url(&quot;#a&quot;); stroke-width: 1;"/><path d="M 183.846 219.292 C 184.024 220.708 184.145 221.938 184.2 222.991 L 184.416 222.991 C 184.492 221.991 184.662 220.784 184.915 219.377 C 185.168 217.97 185.393 216.777 185.6 215.8 L 195.253 174.209 L 207.745 174.209 L 217.745 215.177 C 218.324 217.708 218.738 220.276 218.993 222.868 L 219.163 222.868 C 219.345 220.347 219.692 217.839 220.2 215.37 L 228.193 174.152 L 239.554 174.152 L 225.524 233.752 L 212.239 233.752 L 202.724 194.324 C 202.446 193.184 202.131 191.699 201.786 189.876 C 201.43 188.046 201.216 186.715 201.138 185.876 L 200.977 185.876 C 200.869 186.846 200.653 188.285 200.331 190.191 C 200.007 192.108 199.754 193.515 199.563 194.439 L 190.616 233.777 L 177.108 233.777 L 163 174.209 L 174.538 174.209 L 183.239 215.885 C 183.492 217.009 183.701 218.147 183.846 219.292 Z" style="fill: rgb(255, 255, 255); stroke-width: 1;"/></svg>