<?xml version="1.0" encoding="utf-8"?>
<svg xmlns="http://www.w3.org/2000/svg" viewBox="0 0 570 500" xmlns:bx="https://boxy-svg.com" width="570px" height="500px"><defs><linearGradient x1="26.599%" y1="146.559136%" x2="73.8446667%" y2="52.3813953%" id="linearGradient-1"><stop stop-color="#0095D5" offset="0.0968"/><stop stop-color="#238AD9" offset="0.3007"/><stop stop-color="#557BDE" offset="0.6211"/><stop stop-color="#7472E2" offset="0.8643"/><stop stop-color="#806EE3" offset="1"/></linearGradient><linearGradient x1="13.9840532%" y1="37.1049231%" x2="68.682392%" y2="-13.5538462%" id="linearGradient-2"><stop stop-color="#0095D5" offset="0.1183"/><stop stop-color="#3C83DC" offset="0.4178"/><stop stop-color="#6D74E1" offset="0.6962"/><stop stop-color="#806EE3" offset="0.8333"/></linearGradient><linearGradient x1="-16.8361667%" y1="91.9396667%" x2="76.2191667%" y2="-1.11566667%" id="linearGradient-3"><stop stop-color="#C757BC" offset="0.1075"/><stop stop-color="#D0609A" offset="0.2138"/><stop stop-color="#E1725C" offset="0.4254"/><stop stop-color="#EE7E2F" offset="0.6048"/><stop stop-color="#F58613" offset="0.743"/><stop stop-color="#F88909" offset="0.8232"/></linearGradient><linearGradient gradientUnits="userSpaceOnUse" x1="-14.251" y1="335.905" x2="-14.251" y2="471.517" id="gradient-0"><stop offset="0" style="stop-color: rgb(69.804% 69.804% 69.804%)"/><stop offset="1" style="stop-color: rgb(40.339% 40.339% 40.339%)"/></linearGradient><linearGradient gradientUnits="userSpaceOnUse" x1="-14.916" y1="290.539" x2="-14.916" y2="335.905" id="gradient-1"><stop offset="0" style="stop-color: rgb(69.804% 69.804% 69.804%)"/><stop offset="1" style="stop-color: rgb(40.339% 40.339% 40.339%)"/></linearGradient><linearGradient gradientUnits="userSpaceOnUse" x1="-14.251" y1="335.905" x2="-14.251" y2="471.517" id="gradient-2" gradientTransform="matrix(0.994073, 0, 0, 1.04, 299.827544, -36.340492)"><stop offset="0" style="stop-color: rgb(69.804% 69.804% 69.804%)"/><stop offset="1" style="stop-color: rgb(40.339% 40.339% 40.339%)"/></linearGradient><linearGradient gradientUnits="userSpaceOnUse" x1="-14.916" y1="290.539" x2="-14.916" y2="335.905" id="gradient-3" gradientTransform="matrix(0.994073, 0, 0, 1.04, 299.827131, -36.340515)"><stop offset="0" style="stop-color: rgb(69.804% 69.804% 69.804%)"/><stop offset="1" style="stop-color: rgb(40.339% 40.339% 40.339%)"/></linearGradient><linearGradient id="color-0"><stop style="stop-color: #c6ffdd;" offset="0"/><stop style="stop-color: #fbd786;" offset="0.5"/><stop style="stop-color: #f7797d;" offset="1"/></linearGradient><linearGradient id="color-1"><stop style="stop-color: #fc4a1a;" offset="0.19"/><stop style="stop-color: #f7b733;" offset="1"/></linearGradient><linearGradient id="color-0-0" href="#color-0" gradientUnits="userSpaceOnUse" x1="285.661" y1="313.001" x2="285.661" y2="454.037"/><linearGradient id="color-1-0" href="#color-1" gradientUnits="userSpaceOnUse" x1="285.661" y1="313.001" x2="285.661" y2="454.037"/><linearGradient id="color-2"><stop style="stop-color: #2980b9;" offset="0"/><stop style="stop-color: #6dd5fa;" offset="0.5"/><stop style="stop-color: #ffffff;" offset="1"/></linearGradient><linearGradient id="color-2-0" href="#color-2" gradientUnits="userSpaceOnUse" x1="285.661" y1="313.001" x2="285.661" y2="454.037"/><linearGradient id="color-3"><stop style="stop-color: #4ac29a;" offset="0"/><stop style="stop-color: #bdfff3;" offset="1"/></linearGradient><linearGradient id="color-3-0" href="#color-3" gradientUnits="userSpaceOnUse" x1="285.661" y1="313.001" x2="285.661" y2="454.037" gradientTransform="matrix(1, 0, 0, 1, -0.000403, -0.000031)"/><linearGradient id="color-4"><stop style="stop-color: rgb(21, 200, 184);" offset="0"/><stop style="stop-color: rgb(171, 235, 250);" offset="1"/></linearGradient><linearGradient id="color-4-0" href="#color-4" gradientUnits="userSpaceOnUse" x1="285.661" y1="313.001" x2="285.661" y2="454.037"/><linearGradient id="a" x1="4.494" y1="-1712.086" x2="13.832" y2="-1695.914" gradientTransform="matrix(7.692305, 0, 0, 7.692305, 44.359512, 13321.682549)" gradientUnits="userSpaceOnUse"><stop offset="0" stop-color="#2368c4"/><stop offset="0.5" stop-color="#1a5dbe"/><stop offset="1" stop-color="#1146ac"/></linearGradient></defs><path d="M 509.746 139.301 L 509.746 441.338 C 509.746 471.543 484.576 496 453.497 496 L 116.007 496 C 84.937 496 59.747 471.543 59.747 441.338 L 59.747 58.667 C 59.747 28.462 84.937 4 116.007 4 L 370.526 4 L 509.746 139.301 Z" p-id="7999" style="stroke-width: 1; fill: rgb(227, 228, 233);"/><path d="M 370.526 84.635 L 370.526 4.001 L 509.747 139.301 L 426.778 139.301 C 395.698 139.301 370.526 114.841 370.526 84.635" p-id="8000" style="stroke-width: 1; pointer-events: none; fill: rgb(183, 188, 198);"/><path d="M 5.323 313.001 L 565.999 313.001 L 565.999 430.574 C 565.999 443.662 553.344 454.037 538.039 454.037 L 33.595 454.037 C 26.229 454.037 18.873 451.567 13.843 447.121 C 8.574 442.674 5.622 436.745 5.622 430.323 L 5.622 313.001 L 5.323 313.001 Z" p-id="9051" style="stroke-width: 1.017; fill: url(&quot;#color-4-0&quot;);"/><path d="M 60.335 313.001 L 60.335 265.82 L 4.001 313.001 L 60.335 313.001 Z M 509.385 313.001 L 509.976 265.82 L 565.999 313.001 L 509.385 313.001 Z" p-id="9052" style="stroke-width: 1.017; fill: url(&quot;#gradient-3&quot;);"/><text style="fill: rgb(255, 255, 255); font-family: Arial, sans-serif; font-size: 108px; white-space: pre;"><tspan x="183.697" y="423.442">Text</tspan></text><title/><title>text-right</title><title>text-center-solid</title><title>file_type_word</title><title/><g data-name="outline color" id="outline_color" transform="matrix(3.606092, 0, 0, 3.606092, 169.37802, 82.634079)"><path class="cls-1" d="M22,60a1,1,0,0,1-.5-.13l-9-5a1,1,0,0,1,0-1.74l9-5a1,1,0,0,1,1.43.49A14.29,14.29,0,0,1,24,54a14.4,14.4,0,0,1-1.06,5.38A1,1,0,0,1,22,60Zm-7-6,6.4,3.56A12.17,12.17,0,0,0,22,54a12,12,0,0,0-.54-3.56Z" style="fill: rgb(245, 124, 0);"/><path class="cls-1" d="M59,60H22a1,1,0,0,1-.83-.44,1,1,0,0,1-.1-.94A12.33,12.33,0,0,0,22,54a12.13,12.13,0,0,0-.92-4.62,1,1,0,0,1,.1-.94A1,1,0,0,1,22,48H59a1,1,0,0,1,1,1V59A1,1,0,0,1,59,60ZM23.42,58H58V50H23.42A13.87,13.87,0,0,1,24,54,14.27,14.27,0,0,1,23.42,58Z" style="fill: rgb(245, 124, 0);"/><path class="cls-1" d="M47,56H24a1,1,0,0,1,0-2H47a1,1,0,0,1,0,2Z" style="fill: rgb(245, 124, 0);"/><path class="cls-1" d="M52,59a1,1,0,0,1-1-1V50a1,1,0,0,1,2,0v8A1,1,0,0,1,52,59Z" style="fill: rgb(245, 124, 0);"/><path class="cls-2" d="M16.27,48.61a1,1,0,0,1-.91-.59L4.56,23.83a5,5,0,0,1,2.52-6.6l20.17-9A1,1,0,0,1,28.07,10l-20.17,9a3,3,0,0,0-1.52,4L17.18,47.2a1,1,0,0,1-.5,1.32A1,1,0,0,1,16.27,48.61Z" style="fill: rgb(153, 153, 153);"/><path class="cls-3" d="M16.74,22.68a1,1,0,0,1-.92-.6,1,1,0,0,1,.51-1.32l8.22-3.67a1,1,0,1,1,.81,1.83l-8.22,3.67A1,1,0,0,1,16.74,22.68Z" style="fill: rgb(102, 102, 102);"/><path class="cls-3" d="M16.44,29.38A1,1,0,0,1,16,27.47l6.78-3a1,1,0,0,1,.82,1.82l-6.78,3A1,1,0,0,1,16.44,29.38Z" style="fill: rgb(102, 102, 102);"/><path class="cls-3" d="M18.89,34.85a1,1,0,0,1-.41-1.91l2.29-1a1,1,0,0,1,.82,1.82l-2.29,1A1,1,0,0,1,18.89,34.85Z" style="fill: rgb(102, 102, 102);"/><path class="cls-2" d="M51,46a.75.75,0,0,1-.26,0,1,1,0,0,1-.7-1.22L57.9,16.11a3,3,0,0,0-.3-2.28,2.9,2.9,0,0,0-1.81-1.4L32.65,6.08A3,3,0,0,0,29,8.2L20.77,38.09a3,3,0,0,0,.29,2.28,3,3,0,0,0,1.81,1.41L31.12,44A1,1,0,0,1,30.6,46L22.35,43.7a5,5,0,0,1-3-2.34,4.93,4.93,0,0,1-.47-3.79L27,7.67a5,5,0,0,1,6.14-3.51L56.31,10.5a5,5,0,0,1,3.51,6.13L52,45.26A1,1,0,0,1,51,46Z" style="fill: rgb(153, 153, 153);"/><path class="cls-3" d="M47.46,17.36a1.24,1.24,0,0,1-.27,0L38.51,15A1,1,0,0,1,39,13l8.68,2.38a1,1,0,0,1-.26,2Z" style="fill: rgb(102, 102, 102);"/><path class="cls-3" d="M48.77,23.94a1.24,1.24,0,0,1-.27,0L34,20A1,1,0,1,1,34.56,18L49,22a1,1,0,0,1-.26,2Z" style="fill: rgb(102, 102, 102);"/><path class="cls-3" d="M47.18,29.73a.78.78,0,0,1-.26,0l-14.47-4A1,1,0,1,1,33,23.81l14.47,4a1,1,0,0,1,.7,1.22A1,1,0,0,1,47.18,29.73Z" style="fill: rgb(102, 102, 102);"/><path class="cls-3" d="M45.6,35.52a.84.84,0,0,1-.27,0l-14.47-4a1,1,0,1,1,.53-1.93l14.47,4a1,1,0,0,1,.7,1.23A1,1,0,0,1,45.6,35.52Z" style="fill: rgb(102, 102, 102);"/></g></svg>