<svg width="460" height="460" viewBox="0 0 460 460" fill="none" xmlns="http://www.w3.org/2000/svg">
<path d="M361.172 80.8594H98.8281C78.9804 80.8594 62.8906 96.9491 62.8906 116.797V343.203C62.8906 363.051 78.9804 379.141 98.8281 379.141H361.172C381.02 379.141 397.109 363.051 397.109 343.203V116.797C397.109 96.9491 381.02 80.8594 361.172 80.8594Z" fill="#40A15B"/>
<path d="M359.938 94H100.062C86.7731 94 76 104.873 76 118.286V341.714C76 355.127 86.7731 366 100.062 366H359.938C373.227 366 384 355.127 384 341.714V118.286C384 104.873 373.227 94 359.938 94Z" fill="#32353A"/>
<path d="M359.938 94H100.062C86.7731 94 76 104.873 76 118.286V341.714C76 355.127 86.7731 366 100.062 366H359.938C373.227 366 384 355.127 384 341.714V118.286C384 104.873 373.227 94 359.938 94Z" fill="#3D4047" fill-opacity="0.4"/>
<path d="M96.7308 94C85.8264 94 76 102.728 76 113.333V123H384V113.333C384 102.728 374.174 94 363.269 94H96.7308Z" fill="#40A15B"/>
<path opacity="0.7" d="M336.837 158.114H188.612C187.018 158.114 185.725 159.419 185.725 161.029C185.725 162.638 187.018 163.943 188.612 163.943H336.837C338.432 163.943 339.725 162.638 339.725 161.029C339.725 159.419 338.432 158.114 336.837 158.114Z" fill="#A5A5AA"/>
<path opacity="0.5" d="M280.05 170.743H187.65C186.587 170.743 185.725 171.613 185.725 172.686C185.725 173.759 186.587 174.629 187.65 174.629H280.05C281.113 174.629 281.975 173.759 281.975 172.686C281.975 171.613 281.113 170.743 280.05 170.743Z" fill="#A5A5AA"/>
<path opacity="0.2" d="M139.525 214.457H116.425C112.172 214.457 108.725 217.937 108.725 222.229V245.543C108.725 249.835 112.172 253.314 116.425 253.314H139.525C143.778 253.314 147.225 249.835 147.225 245.543V222.229C147.225 217.937 143.778 214.457 139.525 214.457Z" fill="#A5A5AA"/>
<path opacity="0.5" d="M187.65 214.457H164.55C160.297 214.457 156.85 217.937 156.85 222.229V245.543C156.85 249.835 160.297 253.314 164.55 253.314H187.65C191.903 253.314 195.35 249.835 195.35 245.543V222.229C195.35 217.937 191.903 214.457 187.65 214.457Z" fill="#A5A5AA"/>
<path opacity="0.8" d="M235.775 214.457H212.675C208.422 214.457 204.975 217.937 204.975 222.229V245.543C204.975 249.835 208.422 253.314 212.675 253.314H235.775C240.028 253.314 243.475 249.835 243.475 245.543V222.229C243.475 217.937 240.028 214.457 235.775 214.457Z" fill="#A5A5AA"/>
<path opacity="0.5" d="M283.9 214.457H260.8C256.547 214.457 253.1 217.937 253.1 222.229V245.543C253.1 249.835 256.547 253.314 260.8 253.314H283.9C288.153 253.314 291.6 249.835 291.6 245.543V222.229C291.6 217.937 288.153 214.457 283.9 214.457Z" fill="#A5A5AA"/>
<path opacity="0.2" d="M332.025 214.457H308.925C304.672 214.457 301.225 217.937 301.225 222.229V245.543C301.225 249.835 304.672 253.314 308.925 253.314H332.025C336.278 253.314 339.725 249.835 339.725 245.543V222.229C339.725 217.937 336.278 214.457 332.025 214.457Z" fill="#A5A5AA"/>
<path opacity="0.5" d="M139.525 263.029H116.425C112.172 263.029 108.725 266.508 108.725 270.8V294.114C108.725 298.406 112.172 301.886 116.425 301.886H139.525C143.778 301.886 147.225 298.406 147.225 294.114V270.8C147.225 266.508 143.778 263.029 139.525 263.029Z" fill="#A5A5AA"/>
<path opacity="0.8" d="M187.65 263.029H164.55C160.297 263.029 156.85 266.508 156.85 270.8V294.114C156.85 298.406 160.297 301.886 164.55 301.886H187.65C191.903 301.886 195.35 298.406 195.35 294.114V270.8C195.35 266.508 191.903 263.029 187.65 263.029Z" fill="#A5A5AA"/>
<path opacity="0.5" d="M235.775 263.029H212.675C208.422 263.029 204.975 266.508 204.975 270.8V294.114C204.975 298.406 208.422 301.886 212.675 301.886H235.775C240.028 301.886 243.475 298.406 243.475 294.114V270.8C243.475 266.508 240.028 263.029 235.775 263.029Z" fill="#A5A5AA"/>
<path opacity="0.2" d="M283.9 263.029H260.8C256.547 263.029 253.1 266.508 253.1 270.8V294.114C253.1 298.406 256.547 301.886 260.8 301.886H283.9C288.153 301.886 291.6 298.406 291.6 294.114V270.8C291.6 266.508 288.153 263.029 283.9 263.029Z" fill="#A5A5AA"/>
<path opacity="0.1" d="M332.025 263.029H308.925C304.672 263.029 301.225 266.508 301.225 270.8V294.114C301.225 298.406 304.672 301.886 308.925 301.886H332.025C336.278 301.886 339.725 298.406 339.725 294.114V270.8C339.725 266.508 336.278 263.029 332.025 263.029Z" fill="#A5A5AA"/>
<path d="M350.312 311.6H109.688C101.714 311.6 95.25 318.124 95.25 326.171C95.25 334.219 101.714 340.743 109.688 340.743H350.312C358.286 340.743 364.75 334.219 364.75 326.171C364.75 318.124 358.286 311.6 350.312 311.6Z" fill="#43464F" stroke="#6A6E77" stroke-opacity="0.5"/>
<path opacity="0.8" d="M114.5 333.943C118.753 333.943 122.2 330.463 122.2 326.171C122.2 321.879 118.753 318.4 114.5 318.4C110.247 318.4 106.8 321.879 106.8 326.171C106.8 330.463 110.247 333.943 114.5 333.943Z" fill="#A5A5AA"/>
<path opacity="0.6" d="M227.112 323.257H136.637C135.043 323.257 133.75 324.562 133.75 326.171C133.75 327.781 135.043 329.086 136.637 329.086H227.112C228.707 329.086 230 327.781 230 326.171C230 324.562 228.707 323.257 227.112 323.257Z" fill="#A5A5AA"/>
<path opacity="0.8" d="M336.838 323.257H246.363C244.768 323.257 243.475 324.562 243.475 326.171C243.475 327.781 244.768 329.086 246.363 329.086H336.838C338.432 329.086 339.725 327.781 339.725 326.171C339.725 324.562 338.432 323.257 336.838 323.257Z" fill="#A5A5AA"/>
<rect x="109" y="134" width="70" height="70" rx="10" fill="#40A15B"/>
</svg>
