<?xml version="1.0" encoding="UTF-8"?>
<!DOCTYPE svg PUBLIC "-//W3C//DTD SVG 1.1//EN" "http://www.w3.org/Graphics/SVG/1.1/DTD/svg11.dtd">
<svg xmlns="http://www.w3.org/2000/svg" version="1.1" width="512px" height="512px" style="shape-rendering:geometricPrecision; text-rendering:geometricPrecision; image-rendering:optimizeQuality; fill-rule:evenodd; clip-rule:evenodd" xmlns:xlink="http://www.w3.org/1999/xlink">
<g><path style="opacity:0.993" fill="#488ef6" d="M 75.5,39.5 C 195.5,39.3333 315.5,39.5 435.5,40C 468.771,45.9372 488.937,65.4372 496,98.5C 496.667,203.167 496.667,307.833 496,412.5C 488.937,445.563 468.771,465.063 435.5,471C 315.5,471.667 195.5,471.667 75.5,471C 42.2293,465.063 22.0626,445.563 15,412.5C 14.3333,307.833 14.3333,203.167 15,98.5C 22.24,65.4251 42.4066,45.7584 75.5,39.5 Z"/></g>
<g><path style="opacity:1" fill="#dadada" d="M 80.5,70.5 C 167.167,70.3333 253.834,70.5 340.5,71C 279.578,115.378 218.745,159.878 158,204.5C 125.671,162.495 93.8379,120.162 62.5,77.5C 67.6507,73.2232 73.6507,70.8898 80.5,70.5 Z"/></g>
<g><path style="opacity:1" fill="#b7b8b9" d="M 80.5,70.5 C 197.5,69.1667 314.5,69.1667 431.5,70.5C 416.163,70.3334 400.83,70.5001 385.5,71C 271.955,154.051 158.289,236.885 44.5,319.5C 44.5,308.5 44.5,297.5 44.5,286.5C 62.1191,274.213 79.4524,261.546 96.5,248.5C 79.4948,225.506 62.1615,202.839 44.5,180.5C 44.3334,154.498 44.5,128.498 45,102.5C 47.4073,91.6581 53.2406,83.3247 62.5,77.5C 93.8379,120.162 125.671,162.495 158,204.5C 218.745,159.878 279.578,115.378 340.5,71C 253.834,70.5 167.167,70.3333 80.5,70.5 Z"/></g>
<g><path style="opacity:1" fill="#304056" d="M 431.5,70.5 C 439.201,71.3531 445.868,74.3531 451.5,79.5C 446.306,82.4194 441.972,86.2527 438.5,91C 439.447,94.0723 441.447,95.0723 444.5,94C 447.557,91.2774 450.89,88.944 454.5,87C 455.823,86.1841 456.489,85.0174 456.5,83.5C 461.223,88.945 464.389,95.2783 466,102.5C 466.5,114.829 466.667,127.162 466.5,139.5C 352.137,222.013 238.137,305.013 124.5,388.5C 108.83,388.667 93.1631,388.5 77.5,388C 70.8171,386.491 64.8171,383.657 59.5,379.5C 59.5106,377.983 60.1772,376.816 61.5,376C 64.9393,373.861 68.106,371.361 71,368.5C 71.9337,363.917 70.1004,362.417 65.5,364C 61.3431,366.664 57.3431,369.497 53.5,372.5C 49.1109,367.722 46.2776,362.055 45,355.5C 44.5001,343.505 44.3335,331.505 44.5,319.5C 158.289,236.885 271.955,154.051 385.5,71C 400.83,70.5001 416.163,70.3334 431.5,70.5 Z"/></g>
<g><path style="opacity:1" fill="#f3f4f6" d="M 451.5,79.5 C 453.749,80.0798 455.415,81.4131 456.5,83.5C 456.489,85.0174 455.823,86.1841 454.5,87C 450.89,88.944 447.557,91.2774 444.5,94C 441.447,95.0723 439.447,94.0723 438.5,91C 441.972,86.2527 446.306,82.4194 451.5,79.5 Z"/></g>
<g><path style="opacity:1" fill="#f4f5f6" d="M 415.5,105.5 C 421.235,105.541 422.568,107.874 419.5,112.5C 411.026,118.474 402.693,124.641 394.5,131C 389.516,131.686 387.85,129.686 389.5,125C 398.414,118.723 407.08,112.223 415.5,105.5 Z"/></g>
<g><path style="opacity:1" fill="#b8b8b9" d="M 466.5,139.5 C 466.5,150.167 466.5,160.833 466.5,171.5C 439.98,190.592 413.647,209.925 387.5,229.5C 413.14,260.138 439.473,290.138 466.5,319.5C 466.667,331.505 466.5,343.505 466,355.5C 462.351,371.815 452.517,382.315 436.5,387C 332.536,388.489 228.536,388.989 124.5,388.5C 238.137,305.013 352.137,222.013 466.5,139.5 Z"/></g>
<g><path style="opacity:1" fill="#f5f6f7" d="M 365.5,142.5 C 372.587,143.609 373.254,146.443 367.5,151C 359.655,156.423 351.989,162.089 344.5,168C 341.229,168.692 339.229,167.359 338.5,164C 338.759,162.739 339.426,161.739 340.5,161C 349.257,155.3 357.591,149.133 365.5,142.5 Z"/></g>
<g><path style="opacity:1" fill="#dadada" d="M 466.5,171.5 C 466.5,220.833 466.5,270.167 466.5,319.5C 439.473,290.138 413.14,260.138 387.5,229.5C 413.647,209.925 439.98,190.592 466.5,171.5 Z"/></g>
<g><path style="opacity:1" fill="#f6f6f7" d="M 314.5,179.5 C 321.964,178.89 323.297,181.39 318.5,187C 310.833,192.667 303.167,198.333 295.5,204C 288.445,204.638 287.112,202.305 291.5,197C 299.595,191.632 307.261,185.798 314.5,179.5 Z"/></g>
<g><path style="opacity:1" fill="#d9dada" d="M 44.5,180.5 C 62.1615,202.839 79.4948,225.506 96.5,248.5C 79.4524,261.546 62.1191,274.213 44.5,286.5C 44.5,251.167 44.5,215.833 44.5,180.5 Z"/></g>
<g><path style="opacity:1" fill="#f6f7f7" d="M 266.5,215.5 C 272.245,216.979 272.911,219.813 268.5,224C 261.167,229.333 253.833,234.667 246.5,240C 239.471,242.555 237.804,240.555 241.5,234C 249.901,227.812 258.234,221.646 266.5,215.5 Z"/></g>
<g><path style="opacity:1" fill="#478ef5" d="M 221.5,241.5 C 230.34,241.84 233.174,246.173 230,254.5C 221.667,273.833 213.333,293.167 205,312.5C 199.1,316.022 194.766,314.689 192,308.5C 190.599,299.561 188.266,290.895 185,282.5C 176.693,278.264 168.193,274.43 159.5,271C 153.938,265.837 154.271,261.171 160.5,257C 181.15,252.588 201.484,247.421 221.5,241.5 Z"/></g>
<g><path style="opacity:1" fill="#dadada" d="M 325.5,273.5 C 358.262,311.436 391.262,349.27 424.5,387C 339.833,387.667 255.167,387.667 170.5,387C 222.349,349.303 274.016,311.47 325.5,273.5 Z"/></g>
<g><path style="opacity:1" fill="#f6f7f7" d="M 165.5,289.5 C 170,289.164 171.833,291.164 171,295.5C 162.256,302.122 153.422,308.622 144.5,315C 139.917,315.934 138.417,314.1 140,309.5C 148.686,302.97 157.186,296.303 165.5,289.5 Z"/></g>
<g><path style="opacity:1" fill="#f6f6f7" d="M 115.5,326.5 C 120.894,325.554 122.561,327.554 120.5,332.5C 111.692,338.808 103.025,345.308 94.5,352C 90.0233,352.165 88.5233,349.998 90,345.5C 98.8357,339.511 107.336,333.178 115.5,326.5 Z"/></g>
<g><path style="opacity:1" fill="#f3f4f6" d="M 59.5,379.5 C 56.7573,377.761 54.7573,375.427 53.5,372.5C 57.3431,369.497 61.3431,366.664 65.5,364C 70.1004,362.417 71.9337,363.917 71,368.5C 68.106,371.361 64.9393,373.861 61.5,376C 60.1772,376.816 59.5106,377.983 59.5,379.5 Z"/></g>
<g><path style="opacity:1" fill="#b6b8ba" d="M 318.5,416.5 C 333.032,415.858 338.532,422.524 335,436.5C 327.64,445.365 319.973,445.698 312,437.5C 307.655,428.371 309.822,421.371 318.5,416.5 Z"/></g>
<g><path style="opacity:1" fill="#304158" d="M 365.5,416.5 C 378.153,415.378 383.987,421.044 383,433.5C 376.595,444.901 368.595,446.234 359,437.5C 354.298,428.263 356.464,421.263 365.5,416.5 Z"/></g>
<g><path style="opacity:1" fill="#3275c6" d="M 412.5,416.5 C 428.531,416.348 433.698,423.681 428,438.5C 422.448,443.912 416.281,444.746 409.5,441C 404.85,436.426 403.35,430.926 405,424.5C 407.028,421.308 409.528,418.641 412.5,416.5 Z"/></g>
<g><path style="opacity:1" fill="#304158" d="M 89.5,417.5 C 121.168,417.333 152.835,417.5 184.5,418C 193.107,420.29 196.274,425.79 194,434.5C 192.413,437.756 189.913,439.923 186.5,441C 153.5,441.667 120.5,441.667 87.5,441C 80.6552,436.775 78.8218,430.942 82,423.5C 84.1141,420.879 86.6141,418.879 89.5,417.5 Z"/></g>
</svg>
