<svg width="500" height="375" viewBox="0 0 500 375" fill="none" xmlns="http://www.w3.org/2000/svg">
<path d="M150 75H425C438.807 75 450 86.1929 450 100V300C450 313.807 438.807 325 425 325H150C136.193 325 125 313.807 125 300V100C125 86.1929 136.193 75 150 75Z" fill="#4887EF" stroke="#4B7DCC" stroke-width="2"/>
<path d="M151.591 88H423.409C430.915 88 437 94.268 437 102V298C437 305.732 430.915 312 423.409 312H151.591C144.085 312 138 305.732 138 298V102C138 94.268 144.085 88 151.591 88Z" fill="#3C4043"/>
<path d="M377.2 102H415.255C419.758 102 423.409 105.761 423.409 110.4V149.6C423.409 154.239 419.758 158 415.255 158H377.2C372.696 158 369.045 154.239 369.045 149.6V110.4C369.045 105.761 372.696 102 377.2 102Z" fill="#A5AAAE"/>
<path d="M309.245 102H347.3C351.804 102 355.455 105.761 355.455 110.4V149.6C355.455 154.239 351.804 158 347.3 158H309.245C304.742 158 301.091 154.239 301.091 149.6V110.4C301.091 105.761 304.742 102 309.245 102Z" fill="#A5AAAE"/>
<path d="M241.291 102H279.345C283.849 102 287.5 105.761 287.5 110.4V149.6C287.5 154.239 283.849 158 279.345 158H241.291C236.787 158 233.136 154.239 233.136 149.6V110.4C233.136 105.761 236.787 102 241.291 102Z" fill="#A5AAAE"/>
<path d="M377.2 172H415.255C419.758 172 423.409 175.761 423.409 180.4V219.6C423.409 224.239 419.758 228 415.255 228H377.2C372.696 228 369.045 224.239 369.045 219.6V180.4C369.045 175.761 372.696 172 377.2 172Z" fill="#A5AAAE"/>
<path d="M309.245 172H347.3C351.804 172 355.455 175.761 355.455 180.4V219.6C355.455 224.239 351.804 228 347.3 228H309.245C304.742 228 301.091 224.239 301.091 219.6V180.4C301.091 175.761 304.742 172 309.245 172Z" fill="#A5AAAE"/>
<path d="M241.291 172H279.345C283.849 172 287.5 175.761 287.5 180.4V219.6C287.5 224.239 283.849 228 279.345 228H241.291C236.787 228 233.136 224.239 233.136 219.6V180.4C233.136 175.761 236.787 172 241.291 172Z" fill="#A5AAAE"/>
<path d="M377.2 242H415.255C419.758 242 423.409 245.761 423.409 250.4V289.6C423.409 294.239 419.758 298 415.255 298H377.2C372.696 298 369.045 294.239 369.045 289.6V250.4C369.045 245.761 372.696 242 377.2 242Z" fill="#A5AAAE"/>
<path d="M309.245 242H347.3C351.804 242 355.455 245.761 355.455 250.4V289.6C355.455 294.239 351.804 298 347.3 298H309.245C304.742 298 301.091 294.239 301.091 289.6V250.4C301.091 245.761 304.742 242 309.245 242Z" fill="#A5AAAE"/>
<path d="M437.5 100C445 112.5 445 312.5 437.5 325H425C432.5 312.5 432.5 112.5 425 100H437.5Z" fill="black" fill-opacity="0.15"/>
<path d="M187.5 25H87.5C66.7893 25 50 41.7893 50 62.5V287.5C50 308.211 66.7893 325 87.5 325H187.5C208.211 325 225 308.211 225 287.5V62.5C225 41.7893 208.211 25 187.5 25Z" fill="#3BA559" stroke="#3B9053" stroke-width="2"/>
<path d="M212.5 50C220 62.5 220 287.5 212.5 300H200C207.5 287.5 207.5 62.5 200 50H212.5Z" fill="black" fill-opacity="0.2"/>
<path d="M183.593 38H90.4074C75.2707 38 63 50.2295 63 65.3154V283.839C63 298.925 75.2707 311.154 90.4074 311.154H183.593C198.729 311.154 211 298.925 211 283.839V65.3154C211 50.2295 198.729 38 183.593 38Z" fill="#3C4043"/>
<path d="M154.035 43.9597H119.965C115.933 43.9597 112.664 47.0727 112.664 50.9127C112.664 54.7528 115.933 57.8657 119.965 57.8657H154.035C158.067 57.8657 161.336 54.7528 161.336 50.9127C161.336 47.0727 158.067 43.9597 154.035 43.9597Z" fill="#3B9053"/>
<path d="M82.0846 66H120.139C124.643 66 128.294 69.7608 128.294 74.4V113.6C128.294 118.239 124.643 122 120.139 122H82.0846C77.5809 122 73.93 118.239 73.93 113.6V74.4C73.93 69.7608 77.5809 66 82.0846 66Z" fill="#A5AAAE"/>
<path d="M194.168 66H150.463C147.446 66 145 68.4459 145 71.4631V82.3893C145 85.4064 147.446 87.8524 150.463 87.8524H194.168C197.185 87.8524 199.631 85.4064 199.631 82.3893V71.4631C199.631 68.4459 197.185 66 194.168 66Z" fill="#A5AAAE"/>
<path d="M194.168 99H150.463C147.446 99 145 101.446 145 104.463V115.389C145 118.406 147.446 120.852 150.463 120.852H194.168C197.185 120.852 199.631 118.406 199.631 115.389V104.463C199.631 101.446 197.185 99 194.168 99Z" fill="#A5AAAE"/>
<path d="M190.918 164.148H82.0884C77.5805 164.148 73.9262 167.776 73.9262 172.253V223.586C73.9262 228.062 77.5805 231.691 82.0884 231.691H190.918C195.426 231.691 199.081 228.062 199.081 223.586V172.253C199.081 167.776 195.426 164.148 190.918 164.148Z" fill="#A5AAAE"/>
<path d="M194.589 242.617H79.4108C76.3817 242.617 73.9262 245.063 73.9262 248.081V259.007C73.9262 262.024 76.3817 264.47 79.4108 264.47H194.589C197.618 264.47 200.074 262.024 200.074 259.007V248.081C200.074 245.063 197.618 242.617 194.589 242.617Z" fill="#A5AAAE"/>
<path d="M194.188 131.37H79.4631C76.4459 131.37 74 133.816 74 136.833V147.759C74 150.776 76.4459 153.222 79.4631 153.222H194.188C197.205 153.222 199.651 150.776 199.651 147.759V136.833C199.651 133.816 197.205 131.37 194.188 131.37Z" fill="#A5AAAE"/>
</svg>
