<?xml version="1.0" encoding="UTF-8"?>
<!DOCTYPE svg PUBLIC "-//W3C//DTD SVG 1.1//EN" "http://www.w3.org/Graphics/SVG/1.1/DTD/svg11.dtd">
<svg xmlns="http://www.w3.org/2000/svg" version="1.1" width="512px" height="512px" style="shape-rendering:geometricPrecision; text-rendering:geometricPrecision; image-rendering:optimizeQuality; fill-rule:evenodd; clip-rule:evenodd" xmlns:xlink="http://www.w3.org/1999/xlink">
<g><path style="opacity:0.997" fill="#e6f1fe" d="M 486.5,331.5 C 471.5,331.5 456.5,331.5 441.5,331.5C 441.967,316.736 441.467,302.07 440,287.5C 438.786,285.951 437.286,284.785 435.5,284C 411.833,283.333 388.167,283.333 364.5,284C 362.714,284.785 361.214,285.951 360,287.5C 358.533,302.07 358.033,316.736 358.5,331.5C 247.167,331.5 135.833,331.5 24.5,331.5C 24.5,239.167 24.5,146.833 24.5,54.5C 178.5,54.5 332.5,54.5 486.5,54.5C 486.5,146.833 486.5,239.167 486.5,331.5 Z"/></g>
<g><path style="opacity:0.992" fill="#98cafd" d="M 441.5,331.5 C 441.5,331.833 441.5,332.167 441.5,332.5C 441.5,344.833 441.5,357.167 441.5,369.5C 441.5,369.833 441.5,370.167 441.5,370.5C 441.667,397.502 441.5,424.502 441,451.5C 440.167,453.667 438.667,455.167 436.5,456C 412.167,456.667 387.833,456.667 363.5,456C 361.333,455.167 359.833,453.667 359,451.5C 358.5,424.502 358.333,397.502 358.5,370.5C 334.833,370.5 311.167,370.5 287.5,370.5C 310.994,369.502 334.661,369.169 358.5,369.5C 358.5,357.167 358.5,344.833 358.5,332.5C 358.5,332.167 358.5,331.833 358.5,331.5C 358.033,316.736 358.533,302.07 360,287.5C 361.214,285.951 362.714,284.785 364.5,284C 388.167,283.333 411.833,283.333 435.5,284C 437.286,284.785 438.786,285.951 440,287.5C 441.467,302.07 441.967,316.736 441.5,331.5 Z"/></g>
<g><path style="opacity:1" fill="#415681" d="M 378.5,313.5 C 382.846,313.334 387.179,313.501 391.5,314C 395.41,317.925 395.41,321.925 391.5,326C 387.167,326.667 382.833,326.667 378.5,326C 374.547,321.835 374.547,317.669 378.5,313.5 Z"/></g>
<g><path style="opacity:1" fill="#415681" d="M 408.5,313.5 C 412.846,313.334 417.179,313.501 421.5,314C 425.5,318 425.5,322 421.5,326C 417.167,326.667 412.833,326.667 408.5,326C 404.547,321.835 404.547,317.669 408.5,313.5 Z"/></g>
<g><path style="opacity:1" fill="#7284a6" d="M 24.5,331.5 C 135.833,331.5 247.167,331.5 358.5,331.5C 358.5,331.833 358.5,332.167 358.5,332.5C 247.5,332.5 136.5,332.5 25.5,332.5C 25.5,344.833 25.5,357.167 25.5,369.5C 91.6688,369.168 157.669,369.501 223.5,370.5C 157.167,370.5 90.8333,370.5 24.5,370.5C 24.5,357.5 24.5,344.5 24.5,331.5 Z"/></g>
<g><path style="opacity:1" fill="#405580" d="M 358.5,332.5 C 358.5,344.833 358.5,357.167 358.5,369.5C 334.661,369.169 310.994,369.502 287.5,370.5C 266.167,370.5 244.833,370.5 223.5,370.5C 157.669,369.501 91.6688,369.168 25.5,369.5C 25.5,357.167 25.5,344.833 25.5,332.5C 136.5,332.5 247.5,332.5 358.5,332.5 Z"/></g>
<g><path style="opacity:1" fill="#405580" d="M 441.5,332.5 C 456.167,332.5 470.833,332.5 485.5,332.5C 485.5,344.833 485.5,357.167 485.5,369.5C 470.833,369.5 456.167,369.5 441.5,369.5C 441.5,357.167 441.5,344.833 441.5,332.5 Z"/></g>
<g><path style="opacity:0.949" fill="#6b7da0" d="M 441.5,332.5 C 441.5,332.167 441.5,331.833 441.5,331.5C 456.5,331.5 471.5,331.5 486.5,331.5C 486.5,344.5 486.5,357.5 486.5,370.5C 471.5,370.5 456.5,370.5 441.5,370.5C 441.5,370.167 441.5,369.833 441.5,369.5C 456.167,369.5 470.833,369.5 485.5,369.5C 485.5,357.167 485.5,344.833 485.5,332.5C 470.833,332.5 456.167,332.5 441.5,332.5 Z"/></g>
<g><path style="opacity:1" fill="#415681" d="M 378.5,345.5 C 382.846,345.334 387.179,345.501 391.5,346C 395.41,349.925 395.41,353.925 391.5,358C 387.167,358.667 382.833,358.667 378.5,358C 374.547,353.835 374.547,349.669 378.5,345.5 Z"/></g>
<g><path style="opacity:1" fill="#415681" d="M 408.5,345.5 C 412.846,345.334 417.179,345.501 421.5,346C 425.5,350 425.5,354 421.5,358C 417.167,358.667 412.833,358.667 408.5,358C 404.547,353.835 404.547,349.669 408.5,345.5 Z"/></g>
<g><path style="opacity:0.997" fill="#283d66" d="M 223.5,370.5 C 244.833,370.5 266.167,370.5 287.5,370.5C 287.5,384.5 287.5,398.5 287.5,412.5C 266.167,412.5 244.833,412.5 223.5,412.5C 223.5,398.5 223.5,384.5 223.5,370.5 Z"/></g>
<g><path style="opacity:1" fill="#405681" d="M 393.5,384.5 C 412.204,383.029 419.704,391.362 416,409.5C 409.015,420.107 399.849,422.273 388.5,416C 381.656,408.044 380.822,399.544 386,390.5C 388.478,388.361 390.978,386.361 393.5,384.5 Z"/></g>
<g><path style="opacity:0.939" fill="#3f547f" d="M 223.5,412.5 C 244.833,412.5 266.167,412.5 287.5,412.5C 300.837,412.333 314.171,412.5 327.5,413C 330.683,414.018 332.016,416.185 331.5,419.5C 331.953,423.431 330.286,425.931 326.5,427C 279.167,427.667 231.833,427.667 184.5,427C 179.774,424.612 178.274,420.778 180,415.5C 180.903,414.299 182.069,413.465 183.5,413C 196.829,412.5 210.163,412.333 223.5,412.5 Z"/></g>
</svg>
