<?xml version="1.0" encoding="UTF-8"?>
<!DOCTYPE svg PUBLIC "-//W3C//DTD SVG 1.1//EN" "http://www.w3.org/Graphics/SVG/1.1/DTD/svg11.dtd">
<svg xmlns="http://www.w3.org/2000/svg" version="1.1" width="512px" height="512px" style="shape-rendering:geometricPrecision; text-rendering:geometricPrecision; image-rendering:optimizeQuality; fill-rule:evenodd; clip-rule:evenodd" xmlns:xlink="http://www.w3.org/1999/xlink">
<g><path style="opacity:0.998" fill="#468fe8" d="M 478.5,32.5 C 340.861,31.3383 203.194,31.1716 65.5,32C 57,35.1667 51.1667,41 48,49.5C 47.5,70.164 47.3334,90.8306 47.5,111.5C 42.1667,111.5 36.8333,111.5 31.5,111.5C 31.3334,85.1646 31.5,58.8312 32,32.5C 34.8333,24.3333 40.3333,18.8333 48.5,16C 186.5,15.3333 324.5,15.3333 462.5,16C 470.756,18.7547 476.089,24.2547 478.5,32.5 Z"/></g>
<g><path style="opacity:1" fill="#649ff9" d="M 478.5,32.5 C 479.498,58.6614 479.831,84.9947 479.5,111.5C 335.5,111.5 191.5,111.5 47.5,111.5C 47.3334,90.8306 47.5,70.164 48,49.5C 51.1667,41 57,35.1667 65.5,32C 203.194,31.1716 340.861,31.3383 478.5,32.5 Z"/></g>
<g><path style="opacity:1" fill="#77d5e6" d="M 202.5,47.5 C 218.677,47.1668 225.177,54.8334 222,70.5C 216.039,79.2827 208.206,81.4493 198.5,77C 191.086,70.7052 189.586,63.2052 194,54.5C 196.441,51.5464 199.275,49.2131 202.5,47.5 Z"/></g>
<g><path style="opacity:1" fill="#ee3b5b" d="M 75.5,47.5 C 88.8769,47.0452 95.3769,53.3785 95,66.5C 92.0268,76.0744 85.5268,80.2411 75.5,79C 65.4064,74.6435 61.9064,67.1435 65,56.5C 67.5054,52.1888 71.0054,49.1888 75.5,47.5 Z"/></g>
<g><path style="opacity:1" fill="#fcd14d" d="M 138.5,47.5 C 154.678,47.1677 161.178,54.8344 158,70.5C 152.039,79.2827 144.206,81.4493 134.5,77C 124.083,65.5007 125.416,55.6674 138.5,47.5 Z"/></g>
<g><path style="opacity:1" fill="#e7edfa" d="M 31.5,111.5 C 36.8333,111.5 42.1667,111.5 47.5,111.5C 47.172,239.195 47.5053,366.861 48.5,494.5C 40.2547,492.089 34.7547,486.756 32,478.5C 31.5,356.167 31.3333,233.834 31.5,111.5 Z"/></g>
<g><path style="opacity:1" fill="#f1f6fe" d="M 47.5,111.5 C 191.5,111.5 335.5,111.5 479.5,111.5C 479.667,233.834 479.5,356.167 479,478.5C 476.167,486.667 470.667,492.167 462.5,495C 324.333,495.833 186.333,495.666 48.5,494.5C 47.5053,366.861 47.172,239.195 47.5,111.5 Z"/></g>
<g><path style="opacity:1" fill="#ef3a59" d="M 87.5,159.5 C 114.167,159.5 140.833,159.5 167.5,159.5C 167.5,186.167 167.5,212.833 167.5,239.5C 140.833,239.5 114.167,239.5 87.5,239.5C 87.5,212.833 87.5,186.167 87.5,159.5 Z"/></g>
<g><path style="opacity:1" fill="#78d7e5" d="M 215.5,159.5 C 242.167,159.5 268.833,159.5 295.5,159.5C 295.5,186.167 295.5,212.833 295.5,239.5C 268.833,239.5 242.167,239.5 215.5,239.5C 215.5,212.833 215.5,186.167 215.5,159.5 Z"/></g>
<g><path style="opacity:1" fill="#fed249" d="M 343.5,159.5 C 370.167,159.5 396.833,159.5 423.5,159.5C 423.5,186.167 423.5,212.833 423.5,239.5C 396.833,239.5 370.167,239.5 343.5,239.5C 343.5,212.833 343.5,186.167 343.5,159.5 Z"/></g>
<g><path style="opacity:1" fill="#5b6172" d="M 84.5,273.5 C 112.835,273.333 141.169,273.5 169.5,274C 173.738,276.172 174.572,279.338 172,283.5C 171.25,284.126 170.416,284.626 169.5,285C 141.167,285.667 112.833,285.667 84.5,285C 80.5419,281.092 80.5419,277.259 84.5,273.5 Z"/></g>
<g><path style="opacity:1" fill="#5b6172" d="M 212.5,273.5 C 240.835,273.333 269.169,273.5 297.5,274C 301.738,276.172 302.572,279.338 300,283.5C 299.25,284.126 298.416,284.626 297.5,285C 269.167,285.667 240.833,285.667 212.5,285C 208.542,281.092 208.542,277.259 212.5,273.5 Z"/></g>
<g><path style="opacity:1" fill="#5b6172" d="M 340.5,273.5 C 368.835,273.333 397.169,273.5 425.5,274C 429.738,276.172 430.572,279.338 428,283.5C 427.25,284.126 426.416,284.626 425.5,285C 397.167,285.667 368.833,285.667 340.5,285C 336.542,281.092 336.542,277.259 340.5,273.5 Z"/></g>
<g><path style="opacity:1" fill="#fed249" d="M 87.5,327.5 C 114.167,327.5 140.833,327.5 167.5,327.5C 167.5,354.167 167.5,380.833 167.5,407.5C 140.833,407.5 114.167,407.5 87.5,407.5C 87.5,380.833 87.5,354.167 87.5,327.5 Z"/></g>
<g><path style="opacity:1" fill="#64a0fa" d="M 215.5,327.5 C 242.167,327.5 268.833,327.5 295.5,327.5C 295.5,354.167 295.5,380.833 295.5,407.5C 268.833,407.5 242.167,407.5 215.5,407.5C 215.5,380.833 215.5,354.167 215.5,327.5 Z"/></g>
<g><path style="opacity:1" fill="#686e81" d="M 343.5,327.5 C 370.167,327.5 396.833,327.5 423.5,327.5C 423.5,354.167 423.5,380.833 423.5,407.5C 396.833,407.5 370.167,407.5 343.5,407.5C 343.5,380.833 343.5,354.167 343.5,327.5 Z"/></g>
<g><path style="opacity:1" fill="#5b6172" d="M 84.5,441.5 C 112.835,441.333 141.169,441.5 169.5,442C 173.738,444.172 174.572,447.338 172,451.5C 171.25,452.126 170.416,452.626 169.5,453C 141.167,453.667 112.833,453.667 84.5,453C 80.5419,449.092 80.5419,445.259 84.5,441.5 Z"/></g>
<g><path style="opacity:1" fill="#5b6172" d="M 212.5,441.5 C 240.835,441.333 269.169,441.5 297.5,442C 301.738,444.172 302.572,447.338 300,451.5C 299.25,452.126 298.416,452.626 297.5,453C 269.167,453.667 240.833,453.667 212.5,453C 208.542,449.092 208.542,445.259 212.5,441.5 Z"/></g>
<g><path style="opacity:1" fill="#5b6172" d="M 340.5,441.5 C 368.835,441.333 397.169,441.5 425.5,442C 429.738,444.172 430.572,447.338 428,451.5C 427.25,452.126 426.416,452.626 425.5,453C 397.167,453.667 368.833,453.667 340.5,453C 336.542,449.092 336.542,445.259 340.5,441.5 Z"/></g>
</svg>
