<svg width="445" height="334" viewBox="0 0 445 334" fill="none" xmlns="http://www.w3.org/2000/svg">
<path d="M400.5 44.5333H44.5C32.2117 44.5333 22.25 54.5025 22.25 66.8V267.2C22.25 279.498 32.2117 289.467 44.5 289.467H400.5C412.788 289.467 422.75 279.498 422.75 267.2V66.8C422.75 54.5025 412.788 44.5333 400.5 44.5333Z" fill="#4788F0" stroke="#4874B6"/>
<path d="M391.769 59H53.2312C44.267 59 37 66.5216 37 75.8V258.2C37 267.478 44.267 275 53.2312 275H391.769C400.733 275 408 267.478 408 258.2V75.8C408 66.5216 400.733 59 391.769 59Z" fill="#3C4043"/>
<path d="M104.244 119H62.5062C61.2256 119 60.1875 120.075 60.1875 121.4V128.6C60.1875 129.925 61.2256 131 62.5062 131H104.244C105.524 131 106.562 129.925 106.562 128.6V121.4C106.562 120.075 105.524 119 104.244 119Z" fill="#A5AAAE"/>
<path d="M99.6062 145H67.1437C63.3019 145 60.1875 148.224 60.1875 152.2V185.8C60.1875 189.776 63.3019 193 67.1437 193H99.6062C103.448 193 106.562 189.776 106.562 185.8V152.2C106.562 148.224 103.448 145 99.6062 145Z" fill="#A5AAAE"/>
<path d="M157.575 145H125.112C121.271 145 118.156 148.224 118.156 152.2V185.8C118.156 189.776 121.271 193 125.112 193H157.575C161.417 193 164.531 189.776 164.531 185.8V152.2C164.531 148.224 161.417 145 157.575 145Z" fill="#A5AAAE"/>
<path d="M215.544 145H183.081C179.239 145 176.125 148.224 176.125 152.2V185.8C176.125 189.776 179.239 193 183.081 193H215.544C219.386 193 222.5 189.776 222.5 185.8V152.2C222.5 148.224 219.386 145 215.544 145Z" fill="#A5AAAE"/>
<path d="M99.6062 204.59H67.1437C63.3019 204.59 60.1875 207.814 60.1875 211.79V245.39C60.1875 249.366 63.3019 252.59 67.1437 252.59H99.6062C103.448 252.59 106.562 249.366 106.562 245.39V211.79C106.562 207.814 103.448 204.59 99.6062 204.59Z" fill="#A5AAAE"/>
<path d="M157.575 204.59H125.112C121.271 204.59 118.156 207.814 118.156 211.79V245.39C118.156 249.366 121.271 252.59 125.112 252.59H157.575C161.417 252.59 164.531 249.366 164.531 245.39V211.79C164.531 207.814 161.417 204.59 157.575 204.59Z" fill="#A5AAAE"/>
<path d="M215.544 204.59H183.081C179.239 204.59 176.125 207.814 176.125 211.79V245.39C176.125 249.366 179.239 252.59 183.081 252.59H215.544C219.386 252.59 222.5 249.366 222.5 245.39V211.79C222.5 207.814 219.386 204.59 215.544 204.59Z" fill="#A5AAAE"/>
<path d="M346.553 83.0001H295.541C293.62 83.0001 292.062 84.6118 292.062 86.6001V93.8001C292.062 95.7883 293.62 97.4001 295.541 97.4001H346.553C348.474 97.4001 350.031 95.7883 350.031 93.8001V86.6001C350.031 84.6118 348.474 83.0001 346.553 83.0001Z" fill="#A5AAAE"/>
<path d="M71 102C76.5228 102 81 97.5228 81 92C81 86.4772 76.5228 82 71 82C65.4772 82 61 86.4772 61 92C61 97.5228 65.4772 102 71 102Z" fill="#A5AAAE"/>
<path d="M356.988 206H296.7C294.139 206 292.062 208.149 292.062 210.8V225.2C292.062 227.851 294.139 230 296.7 230H356.988C359.549 230 361.625 227.851 361.625 225.2V210.8C361.625 208.149 359.549 206 356.988 206Z" fill="#A5AAAE"/>
<path d="M359.306 242H294.381C293.101 242 292.062 243.074 292.062 244.4V249.2C292.062 250.525 293.101 251.6 294.381 251.6H359.306C360.587 251.6 361.625 250.525 361.625 249.2V244.4C361.625 243.074 360.587 242 359.306 242Z" fill="#A5AAAE"/>
<path d="M411.625 55.6667C416.075 77.9333 416.075 244.933 411.625 267.2H404.95C409.4 244.933 409.4 77.9333 404.95 55.6667H411.625Z" fill="black" fill-opacity="0.15"/>
<rect x="94" y="83" width="170" height="19" rx="5" fill="#A5AAAE"/>
<g filter="url(#filter0_d_12_2)">
<path d="M349 290H96C89.9249 290 85 292.686 85 296V299C85 302.314 89.9249 305 96 305H349C355.075 305 360 302.314 360 299V296C360 292.686 355.075 290 349 290Z" fill="#4788F0"/>
</g>
<defs>
<filter id="filter0_d_12_2" x="83" y="287" width="279" height="19" filterUnits="userSpaceOnUse" color-interpolation-filters="sRGB">
<feFlood flood-opacity="0" result="BackgroundImageFix"/>
<feColorMatrix in="SourceAlpha" type="matrix" values="0 0 0 0 0 0 0 0 0 0 0 0 0 0 0 0 0 0 127 0" result="hardAlpha"/>
<feOffset dy="-1"/>
<feGaussianBlur stdDeviation="1"/>
<feComposite in2="hardAlpha" operator="out"/>
<feColorMatrix type="matrix" values="0 0 0 0 0 0 0 0 0 0 0 0 0 0 0 0 0 0 0.5 0"/>
<feBlend mode="normal" in2="BackgroundImageFix" result="effect1_dropShadow_12_2"/>
<feBlend mode="normal" in="SourceGraphic" in2="effect1_dropShadow_12_2" result="shape"/>
</filter>
</defs>
</svg>
