<?xml version="1.0" encoding="UTF-8"?>
<!DOCTYPE svg PUBLIC "-//W3C//DTD SVG 1.1//EN" "http://www.w3.org/Graphics/SVG/1.1/DTD/svg11.dtd">
<svg xmlns="http://www.w3.org/2000/svg" version="1.1" width="512px" height="512px" style="shape-rendering:geometricPrecision; text-rendering:geometricPrecision; image-rendering:optimizeQuality; fill-rule:evenodd; clip-rule:evenodd" xmlns:xlink="http://www.w3.org/1999/xlink">
<g><path style="opacity:1" fill="#93dffb" d="M 120.5,33.5 C 141.543,45.8925 155.543,63.8925 162.5,87.5C 158.656,92.3053 153.656,95.6386 147.5,97.5C 142.045,73.8865 129.045,55.7198 108.5,43C 103.102,40.5672 97.4349,39.2339 91.5,39C 92.056,38.6174 92.3893,38.1174 92.5,37.5C 101.304,32.923 110.637,31.5897 120.5,33.5 Z"/></g>
<g><path style="opacity:0.977" fill="#3e454b" d="M 120.5,33.5 C 140.074,38.0348 156.241,48.0348 169,63.5C 171.099,67.2314 172.266,71.2314 172.5,75.5C 171.833,75.5 171.5,75.8333 171.5,76.5C 170.299,81.6952 167.299,85.3619 162.5,87.5C 155.543,63.8925 141.543,45.8925 120.5,33.5 Z"/></g>
<g><path style="opacity:0.996" fill="#3d4449" d="M 86.5,41.5 C 92.678,41.1067 98.678,41.9401 104.5,44C 124.731,56.2572 138.398,73.7572 145.5,96.5C 132.127,96.9564 118.794,97.7897 105.5,99C 99.7907,102.66 96.7907,107.827 96.5,114.5C 80.1175,111.666 68.7841,102.666 62.5,87.5C 61.3393,75.8257 65.1726,66.159 74,58.5C 76.7232,51.6984 80.8899,46.0317 86.5,41.5 Z"/></g>
<g><path style="opacity:0.965" fill="#72d6f7" d="M 476.5,171.5 C 473.06,189.728 465.727,206.394 454.5,221.5C 449.527,227.14 444.194,232.473 438.5,237.5C 423.396,251.561 406.396,262.894 387.5,271.5C 365.569,281.032 342.902,288.366 319.5,293.5C 296.523,297.746 273.523,300.746 250.5,302.5C 246.5,302.5 242.5,302.5 238.5,302.5C 227.154,302.514 215.821,302.181 204.5,301.5C 173.61,298.848 143.276,292.848 113.5,283.5C 109.327,281.66 104.993,279.994 100.5,278.5C 100.343,277.127 100.51,275.793 101,274.5C 103.727,275.798 106.56,276.798 109.5,277.5C 140.343,289.136 172.343,295.803 205.5,297.5C 217.783,298.46 230.117,298.794 242.5,298.5C 244.5,298.5 246.5,298.5 248.5,298.5C 271.666,298.238 294.333,295.238 316.5,289.5C 338.531,285.749 359.531,279.082 379.5,269.5C 392.016,264.082 403.683,257.416 414.5,249.5C 421.364,245.973 427.364,241.306 432.5,235.5C 436.737,232.772 440.571,229.439 444,225.5C 448.012,220.792 451.512,215.792 454.5,210.5C 473.054,181.31 474.221,151.31 458,120.5C 441.926,95.7612 420.759,76.5946 394.5,63C 383.511,57.284 372.178,52.4506 360.5,48.5C 360.76,46.405 361.926,45.0717 364,44.5C 396.556,55.6 424.889,73.2667 449,97.5C 467.966,118.449 477.133,143.115 476.5,171.5 Z"/></g>
<g><path style="opacity:0.298" fill="#93e0fe" d="M 360.5,48.5 C 372.178,52.4506 383.511,57.284 394.5,63C 420.759,76.5946 441.926,95.7612 458,120.5C 474.221,151.31 473.054,181.31 454.5,210.5C 465.653,160.386 450.32,121.219 408.5,93C 393.696,82.7649 377.696,74.9316 360.5,69.5C 360.5,62.5 360.5,55.5 360.5,48.5 Z"/></g>
<g><path style="opacity:1" fill="#6ec8e5" d="M 92.5,37.5 C 92.3893,38.1174 92.056,38.6174 91.5,39C 97.4349,39.2339 103.102,40.5672 108.5,43C 129.045,55.7198 142.045,73.8865 147.5,97.5C 146.833,97.5 146.167,97.5 145.5,97.5C 145.5,97.1667 145.5,96.8333 145.5,96.5C 138.398,73.7572 124.731,56.2572 104.5,44C 98.678,41.9401 92.678,41.1067 86.5,41.5C 88.1475,39.6736 90.1475,38.3403 92.5,37.5 Z"/></g>
<g><path style="opacity:0.506" fill="#a9acfe" d="M 360.5,69.5 C 377.696,74.9316 393.696,82.7649 408.5,93C 450.32,121.219 465.653,160.386 454.5,210.5C 451.512,215.792 448.012,220.792 444,225.5C 440.571,229.439 436.737,232.772 432.5,235.5C 410.325,220.386 386.325,208.719 360.5,200.5C 360.5,156.833 360.5,113.167 360.5,69.5 Z"/></g>
<g><path style="opacity:0.994" fill="#eaf1fe" d="M 198.5,83.5 C 193.04,82.204 188.04,83.3707 183.5,87C 170.167,94.6667 156.833,102.333 143.5,110C 127.849,121.171 122.016,136.338 126,155.5C 126.625,159.109 128.458,161.776 131.5,163.5C 117.987,161.656 110.654,153.989 109.5,140.5C 108.209,140.737 107.209,140.404 106.5,139.5C 108.068,133.14 109.402,126.474 110.5,119.5C 110.058,118.261 109.391,117.261 108.5,116.5C 109.822,116.67 110.989,116.337 112,115.5C 113.886,111.56 116.386,108.06 119.5,105C 125.753,103.391 132.086,102.058 138.5,101C 141.069,100.102 143.402,98.935 145.5,97.5C 146.167,97.5 146.833,97.5 147.5,97.5C 153.656,95.6386 158.656,92.3053 162.5,87.5C 167.299,85.3619 170.299,81.6952 171.5,76.5C 172.167,76.5 172.5,76.1667 172.5,75.5C 176.635,71.7461 180.968,71.5794 185.5,75C 190.24,77.3597 194.574,80.1931 198.5,83.5 Z"/></g>
<g><path style="opacity:0.986" fill="#d8e3f6" d="M 198.5,83.5 C 200.017,83.5106 201.184,84.1772 202,85.5C 206.462,100.273 204.795,114.273 197,127.5C 189.09,134.871 180.257,140.871 170.5,145.5C 160.048,151.563 149.381,157.396 138.5,163C 136.19,163.497 133.857,163.663 131.5,163.5C 128.458,161.776 126.625,159.109 126,155.5C 122.016,136.338 127.849,121.171 143.5,110C 156.833,102.333 170.167,94.6667 183.5,87C 188.04,83.3707 193.04,82.204 198.5,83.5 Z"/></g>
<g><path style="opacity:1" fill="#3e454b" d="M 195.5,89.5 C 195.666,97.1739 195.5,104.841 195,112.5C 192.982,119.046 189.148,124.213 183.5,128C 167.67,136.747 152.004,145.747 136.5,155C 135.207,155.49 133.873,155.657 132.5,155.5C 132.013,154.527 131.513,153.527 131,152.5C 130.333,145.5 130.333,138.5 131,131.5C 132.223,127.385 134.223,123.718 137,120.5C 152.585,110.623 168.418,101.123 184.5,92C 187.886,89.2722 191.552,88.4389 195.5,89.5 Z"/></g>
<g><path style="opacity:1" fill="#515a62" d="M 195.5,89.5 C 196.79,90.0577 197.623,91.0577 198,92.5C 198.667,100.167 198.667,107.833 198,115.5C 196.078,121.525 192.578,126.359 187.5,130C 171.67,138.747 156.004,147.747 140.5,157C 137.462,157.885 134.795,157.385 132.5,155.5C 133.873,155.657 135.207,155.49 136.5,155C 152.004,145.747 167.67,136.747 183.5,128C 189.148,124.213 192.982,119.046 195,112.5C 195.5,104.841 195.666,97.1739 195.5,89.5 Z"/></g>
<g><path style="opacity:1" fill="#f4c3b4" d="M 145.5,96.5 C 145.5,96.8333 145.5,97.1667 145.5,97.5C 143.402,98.935 141.069,100.102 138.5,101C 132.086,102.058 125.753,103.391 119.5,105C 116.386,108.06 113.886,111.56 112,115.5C 110.989,116.337 109.822,116.67 108.5,116.5C 104.267,116.461 100.267,115.795 96.5,114.5C 96.7907,107.827 99.7907,102.66 105.5,99C 118.794,97.7897 132.127,96.9564 145.5,96.5 Z"/></g>
<g><path style="opacity:0.654" fill="#af9aff" d="M 370.5,100.5 C 393.666,108.498 414.499,120.498 433,136.5C 433.667,140.5 433.667,144.5 433,148.5C 414.511,132.834 393.678,121.167 370.5,113.5C 370.5,109.167 370.5,104.833 370.5,100.5 Z"/></g>
<g><path style="opacity:1" fill="#90d9f4" d="M 177.5,110.5 C 179.948,110.085 181.281,111.085 181.5,113.5C 181.152,115.697 180.152,117.53 178.5,119C 170.001,123.748 161.668,128.748 153.5,134C 149.912,134.611 148.746,133.111 150,129.5C 150.785,127.714 151.951,126.214 153.5,125C 161.73,120.392 169.73,115.559 177.5,110.5 Z"/></g>
<g><path style="opacity:1" fill="#77d7f6" d="M 62.5,87.5 C 68.7841,102.666 80.1175,111.666 96.5,114.5C 100.267,115.795 104.267,116.461 108.5,116.5C 109.391,117.261 110.058,118.261 110.5,119.5C 109.402,126.474 108.068,133.14 106.5,139.5C 96.8869,138.851 87.8869,136.184 79.5,131.5C 78.8333,131.167 78.1667,130.833 77.5,130.5C 71.181,127.679 66.681,123.013 64,116.5C 62.6091,106.9 62.1091,97.233 62.5,87.5 Z"/></g>
<g><path style="opacity:1" fill="#3f474d" d="M 76.5,114.5 C 82.8866,116.917 85.5532,121.583 84.5,128.5C 77.4845,129.673 73.8179,126.506 73.5,119C 73.0503,116.374 74.0503,114.874 76.5,114.5 Z"/></g>
<g><path style="opacity:1" fill="#627283" d="M 76.5,114.5 C 80.0541,112.798 82.8875,113.798 85,117.5C 86.2572,119.513 87.0905,121.679 87.5,124C 87.4779,126.183 86.4779,127.683 84.5,128.5C 85.5532,121.583 82.8866,116.917 76.5,114.5 Z"/></g>
<g><path style="opacity:0.654" fill="#af9aff" d="M 370.5,125.5 C 393.286,133.556 413.953,145.222 432.5,160.5C 433.661,164.795 433.828,169.129 433,173.5C 414.578,158.201 394.078,146.368 371.5,138C 370.536,133.934 370.203,129.767 370.5,125.5 Z"/></g>
<g><path style="opacity:0.239" fill="#666162" d="M 77.5,130.5 C 78.1667,130.833 78.8333,131.167 79.5,131.5C 79.5,132.167 79.5,132.833 79.5,133.5C 78.0937,133.027 77.427,132.027 77.5,130.5 Z"/></g>
<g><path style="opacity:0.991" fill="#fcc7b8" d="M 79.5,131.5 C 87.8869,136.184 96.8869,138.851 106.5,139.5C 107.209,140.404 108.209,140.737 109.5,140.5C 110.654,153.989 117.987,161.656 131.5,163.5C 133.857,163.663 136.19,163.497 138.5,163C 149.381,157.396 160.048,151.563 170.5,145.5C 170.02,150.822 169.687,156.155 169.5,161.5C 167.928,165.026 166.428,168.693 165,172.5C 162.894,175.118 160.394,177.118 157.5,178.5C 147.644,181.373 137.977,180.54 128.5,176C 115.651,171.084 104.318,163.917 94.5,154.5C 88.2758,148.389 83.2758,141.389 79.5,133.5C 79.5,132.833 79.5,132.167 79.5,131.5 Z"/></g>
<g><path style="opacity:0.654" fill="#af9aff" d="M 370.5,150.5 C 393.232,158.532 413.898,170.199 432.5,185.5C 433.661,189.795 433.828,194.129 433,198.5C 414.61,183.215 394.11,171.382 371.5,163C 370.536,158.934 370.203,154.767 370.5,150.5 Z"/></g>
<g><path style="opacity:0.998" fill="#f1b1a1" d="M 94.5,154.5 C 104.318,163.917 115.651,171.084 128.5,176C 137.977,180.54 147.644,181.373 157.5,178.5C 156.41,195.255 147.41,203.922 130.5,204.5C 111.69,204.476 100.356,195.476 96.5,177.5C 96.7318,169.742 96.0651,162.076 94.5,154.5 Z"/></g>
<g><path style="opacity:0.998" fill="#457aee" d="M 169.5,161.5 C 178.805,163.315 185.805,168.315 190.5,176.5C 203.33,203.421 208.997,231.921 207.5,262C 207.662,273.901 206.996,285.735 205.5,297.5C 172.343,295.803 140.343,289.136 109.5,277.5C 101.944,259.781 92.1107,243.448 80,228.5C 71.8113,218.438 61.3113,214.272 48.5,216C 45.8268,217.001 43.4935,218.501 41.5,220.5C 39.7247,223.738 37.7247,226.738 35.5,229.5C 35.9246,225.393 37.4246,221.726 40,218.5C 57.336,202.648 76.1694,188.981 96.5,177.5C 100.356,195.476 111.69,204.476 130.5,204.5C 147.41,203.922 156.41,195.255 157.5,178.5C 160.394,177.118 162.894,175.118 165,172.5C 166.428,168.693 167.928,165.026 169.5,161.5 Z"/></g>
<g><path style="opacity:0.984" fill="#4f90fe" d="M 190.5,176.5 C 199.298,185.812 206.798,196.145 213,207.5C 225.999,231.157 236.499,255.824 244.5,281.5C 270.275,273.909 295.942,265.909 321.5,257.5C 323.521,258.855 325.188,260.521 326.5,262.5C 322.347,264.167 318.514,266.5 315,269.5C 312.705,276.416 313.205,283.083 316.5,289.5C 294.333,295.238 271.666,298.238 248.5,298.5C 246.5,295.833 244.5,295.833 242.5,298.5C 230.117,298.794 217.783,298.46 205.5,297.5C 206.996,285.735 207.662,273.901 207.5,262C 208.997,231.921 203.33,203.421 190.5,176.5 Z"/></g>
<g><path style="opacity:0.42" fill="#94e0fe" d="M 476.5,171.5 C 476.366,232.865 475.533,294.199 474,355.5C 468.025,379.139 455.858,398.973 437.5,415C 408.286,438.774 375.286,455.441 338.5,465C 260.03,485.153 182.363,482.486 105.5,457C 103.649,456.163 101.816,455.329 100,454.5C 99.5002,444.839 99.3335,435.172 99.5,425.5C 99.8333,425.5 100.167,425.5 100.5,425.5C 112.06,431.279 124.06,435.946 136.5,439.5C 135.93,443.421 137.597,445.588 141.5,446C 182.32,456.279 223.654,459.446 265.5,455.5C 266.5,423.84 266.833,392.174 266.5,360.5C 270.976,360.2 272.31,358.033 270.5,354C 269.255,353.209 267.922,352.709 266.5,352.5C 266.5,352.167 266.5,351.833 266.5,351.5C 266.5,350.833 266.5,350.167 266.5,349.5C 270.743,350.681 275.076,351.348 279.5,351.5C 279.333,385.168 279.5,418.835 280,452.5C 280.671,453.252 281.504,453.586 282.5,453.5C 332.649,449.243 377.982,432.41 418.5,403C 431.651,392.517 441.818,379.684 449,364.5C 451.584,358.412 453.084,352.078 453.5,345.5C 454.498,314.004 454.832,282.338 454.5,250.5C 454.5,240.833 454.5,231.167 454.5,221.5C 465.727,206.394 473.06,189.728 476.5,171.5 Z"/></g>
<g><path style="opacity:0.296" fill="#94e0fe" d="M 360.5,200.5 C 386.325,208.719 410.325,220.386 432.5,235.5C 427.364,241.306 421.364,245.973 414.5,249.5C 397.871,238.187 379.871,229.52 360.5,223.5C 360.5,215.833 360.5,208.167 360.5,200.5 Z"/></g>
<g><path style="opacity:0.996" fill="#4f91fe" d="M 109.5,277.5 C 106.56,276.798 103.727,275.798 101,274.5C 100.51,275.793 100.343,277.127 100.5,278.5C 100.5,309.833 100.5,341.167 100.5,372.5C 93.5316,363.921 87.0316,354.921 81,345.5C 72.2305,329.953 63.3972,314.62 54.5,299.5C 47.906,286.307 42.406,272.64 38,258.5C 35.1361,248.968 34.3028,239.302 35.5,229.5C 37.7247,226.738 39.7247,223.738 41.5,220.5C 43.4935,218.501 45.8268,217.001 48.5,216C 61.3113,214.272 71.8113,218.438 80,228.5C 92.1107,243.448 101.944,259.781 109.5,277.5 Z"/></g>
<g><path style="opacity:0.653" fill="#9ec3fe" d="M 454.5,221.5 C 454.5,231.167 454.5,240.833 454.5,250.5C 454.167,250.5 453.833,250.5 453.5,250.5C 452.5,249.167 451.5,249.167 450.5,250.5C 446.5,246.167 442.5,241.833 438.5,237.5C 444.194,232.473 449.527,227.14 454.5,221.5 Z"/></g>
<g><path style="opacity:0.978" fill="#fcc8b8" d="M 379.5,269.5 C 359.531,279.082 338.531,285.749 316.5,289.5C 313.205,283.083 312.705,276.416 315,269.5C 318.514,266.5 322.347,264.167 326.5,262.5C 340.07,258.429 351.737,251.263 361.5,241C 363.394,239.596 365.394,238.43 367.5,237.5C 369.383,237.876 370.883,238.876 372,240.5C 372.667,243.833 372.667,247.167 372,250.5C 367.563,256.803 361.729,261.303 354.5,264C 363.032,265.537 371.366,267.371 379.5,269.5 Z"/></g>
<g><path style="opacity:0.37" fill="#95dffd" d="M 438.5,237.5 C 442.5,241.833 446.5,246.167 450.5,250.5C 434.334,265.639 416.001,277.639 395.5,286.5C 388.755,284.298 382.089,281.798 375.5,279C 382.102,280.316 388.769,281.316 395.5,282C 398.438,280.08 399.105,277.58 397.5,274.5C 394.553,272.296 391.22,271.296 387.5,271.5C 406.396,262.894 423.396,251.561 438.5,237.5 Z"/></g>
<g><path style="opacity:0.753" fill="#db8c95" d="M 453.5,250.5 C 453.833,250.5 454.167,250.5 454.5,250.5C 454.832,282.338 454.498,314.004 453.5,345.5C 453.667,324.164 453.5,302.831 453,281.5C 448.302,275.637 443.135,270.303 437.5,265.5C 441.601,262.578 445.601,259.411 449.5,256C 451.464,254.549 452.797,252.716 453.5,250.5 Z"/></g>
<g><path style="opacity:0.651" fill="#e57e86" d="M 437.5,265.5 C 443.135,270.303 448.302,275.637 453,281.5C 453.5,302.831 453.667,324.164 453.5,345.5C 453.084,352.078 451.584,358.412 449,364.5C 441.818,379.684 431.651,392.517 418.5,403C 377.982,432.41 332.649,449.243 282.5,453.5C 282.667,419.165 282.5,384.832 282,350.5C 281.83,340.991 281.33,331.658 280.5,322.5C 282.663,321.531 284.996,320.698 287.5,320C 288.252,319.329 288.586,318.496 288.5,317.5C 289.5,317.5 290.5,317.5 291.5,317.5C 291.082,318.222 290.416,318.722 289.5,319C 312.694,316.702 335.361,311.869 357.5,304.5C 361.367,306.629 365.534,308.296 370,309.5C 375.753,306.756 375.92,303.756 370.5,300.5C 371.167,300.167 371.833,299.833 372.5,299.5C 375.352,301.076 378.352,302.576 381.5,304C 384.588,304.588 386.255,303.255 386.5,300C 385.992,298.107 384.992,296.607 383.5,295.5C 384.391,294.89 385.391,294.557 386.5,294.5C 390.099,295.64 393.766,296.14 397.5,296C 399.278,293.865 399.945,291.365 399.5,288.5C 412.67,281.663 425.337,273.996 437.5,265.5 Z"/></g>
<g><path style="opacity:1" fill="#62a8fe" d="M 100.5,278.5 C 104.993,279.994 109.327,281.66 113.5,283.5C 112.957,283.56 112.624,283.893 112.5,284.5C 120.031,302.093 126.364,320.093 131.5,338.5C 133.167,338.5 134.833,338.5 136.5,338.5C 136.5,354.833 136.5,371.167 136.5,387.5C 129.802,388.937 123.136,388.77 116.5,387C 110.708,383.041 105.374,378.541 100.5,373.5C 100.5,373.167 100.5,372.833 100.5,372.5C 100.5,341.167 100.5,309.833 100.5,278.5 Z"/></g>
<g><path style="opacity:0.999" fill="#dbcfce" d="M 387.5,271.5 C 391.22,271.296 394.553,272.296 397.5,274.5C 399.105,277.58 398.438,280.08 395.5,282C 388.769,281.316 382.102,280.316 375.5,279C 382.089,281.798 388.755,284.298 395.5,286.5C 391.082,289.203 386.416,291.537 381.5,293.5C 378.584,291.247 375.251,289.58 371.5,288.5C 370.304,288.846 370.304,289.346 371.5,290C 374.267,291.083 376.933,292.25 379.5,293.5C 370.598,297.802 361.265,301.136 351.5,303.5C 345.781,298.7 339.114,296.033 331.5,295.5C 327.5,294.833 323.5,294.167 319.5,293.5C 342.902,288.366 365.569,281.032 387.5,271.5 Z"/></g>
<g><path style="opacity:1" fill="#5c99f4" d="M 113.5,283.5 C 143.276,292.848 173.61,298.848 204.5,301.5C 204.5,303.167 204.5,304.833 204.5,306.5C 204.174,310.884 204.508,315.217 205.5,319.5C 208.918,317.778 211.584,318.444 213.5,321.5C 213.5,322.167 213.167,322.5 212.5,322.5C 207.405,322.779 202.405,322.445 197.5,321.5C 177.163,320.119 157.163,316.785 137.5,311.5C 136.502,320.475 136.168,329.475 136.5,338.5C 134.833,338.5 133.167,338.5 131.5,338.5C 126.364,320.093 120.031,302.093 112.5,284.5C 112.624,283.893 112.957,283.56 113.5,283.5 Z"/></g>
<g><path style="opacity:0.427" fill="#afdaee" d="M 381.5,293.5 C 380.833,293.5 380.167,293.5 379.5,293.5C 376.933,292.25 374.267,291.083 371.5,290C 370.304,289.346 370.304,288.846 371.5,288.5C 375.251,289.58 378.584,291.247 381.5,293.5 Z"/></g>
<g><path style="opacity:0.999" fill="#ee9796" d="M 399.5,288.5 C 399.945,291.365 399.278,293.865 397.5,296C 393.766,296.14 390.099,295.64 386.5,294.5C 390.586,292.13 394.919,290.13 399.5,288.5 Z"/></g>
<g><path style="opacity:1" fill="#64a9fe" d="M 319.5,293.5 C 323.5,294.167 327.5,294.833 331.5,295.5C 330.431,297.969 329.098,300.302 327.5,302.5C 318.076,306.882 308.743,311.215 299.5,315.5C 296.888,316.371 294.221,317.037 291.5,317.5C 290.5,317.5 289.5,317.5 288.5,317.5C 285.518,317.963 282.518,318.296 279.5,318.5C 279.5,319.833 279.5,321.167 279.5,322.5C 275.303,324.232 270.969,325.565 266.5,326.5C 266.5,325.167 266.5,323.833 266.5,322.5C 256.328,323.19 246.328,323.19 236.5,322.5C 240.757,319.749 244.59,316.416 248,312.5C 250.006,309.464 250.84,306.131 250.5,302.5C 273.523,300.746 296.523,297.746 319.5,293.5 Z"/></g>
<g><path style="opacity:0.298" fill="#94dffd" d="M 331.5,295.5 C 339.114,296.033 345.781,298.7 351.5,303.5C 334.639,309.047 317.305,313.047 299.5,315.5C 308.743,311.215 318.076,306.882 327.5,302.5C 329.098,300.302 330.431,297.969 331.5,295.5 Z"/></g>
<g><path style="opacity:1" fill="#ee9796" d="M 383.5,295.5 C 384.992,296.607 385.992,298.107 386.5,300C 386.255,303.255 384.588,304.588 381.5,304C 378.352,302.576 375.352,301.076 372.5,299.5C 376.054,297.891 379.721,296.558 383.5,295.5 Z"/></g>
<g><path style="opacity:1" fill="#f1c4bd" d="M 248.5,298.5 C 246.5,298.5 244.5,298.5 242.5,298.5C 244.5,295.833 246.5,295.833 248.5,298.5 Z"/></g>
<g><path style="opacity:0.985" fill="#457aef" d="M 54.5,299.5 C 63.3972,314.62 72.2305,329.953 81,345.5C 87.0316,354.921 93.5316,363.921 100.5,372.5C 100.5,372.833 100.5,373.167 100.5,373.5C 100.5,390.833 100.5,408.167 100.5,425.5C 100.167,425.5 99.8333,425.5 99.5,425.5C 80.2105,417.932 68.7105,403.932 65,383.5C 63.4632,355.206 59.9632,327.206 54.5,299.5 Z"/></g>
<g><path style="opacity:0.999" fill="#ee9696" d="M 370.5,300.5 C 375.92,303.756 375.753,306.756 370,309.5C 365.534,308.296 361.367,306.629 357.5,304.5C 361.833,303.167 366.167,301.833 370.5,300.5 Z"/></g>
<g><path style="opacity:1" fill="#64a9fe" d="M 204.5,301.5 C 215.821,302.181 227.154,302.514 238.5,302.5C 232.953,310.056 225.953,315.722 217.5,319.5C 212.806,315.473 208.473,311.14 204.5,306.5C 204.5,304.833 204.5,303.167 204.5,301.5 Z"/></g>
<g><path style="opacity:1" fill="#dacecd" d="M 238.5,302.5 C 242.5,302.5 246.5,302.5 250.5,302.5C 250.84,306.131 250.006,309.464 248,312.5C 244.59,316.416 240.757,319.749 236.5,322.5C 235.833,322.833 235.167,323.167 234.5,323.5C 227.167,323.5 219.833,323.5 212.5,323.5C 212.5,323.167 212.5,322.833 212.5,322.5C 213.167,322.5 213.5,322.167 213.5,321.5C 215.153,321.34 216.486,320.674 217.5,319.5C 225.953,315.722 232.953,310.056 238.5,302.5 Z"/></g>
<g><path style="opacity:0.791" fill="#ee797d" d="M 453.5,250.5 C 452.797,252.716 451.464,254.549 449.5,256C 445.601,259.411 441.601,262.578 437.5,265.5C 425.337,273.996 412.67,281.663 399.5,288.5C 394.919,290.13 390.586,292.13 386.5,294.5C 385.391,294.557 384.391,294.89 383.5,295.5C 379.721,296.558 376.054,297.891 372.5,299.5C 371.833,299.833 371.167,300.167 370.5,300.5C 366.167,301.833 361.833,303.167 357.5,304.5C 335.361,311.869 312.694,316.702 289.5,319C 290.416,318.722 291.082,318.222 291.5,317.5C 294.221,317.037 296.888,316.371 299.5,315.5C 317.305,313.047 334.639,309.047 351.5,303.5C 361.265,301.136 370.598,297.802 379.5,293.5C 380.167,293.5 380.833,293.5 381.5,293.5C 386.416,291.537 391.082,289.203 395.5,286.5C 416.001,277.639 434.334,265.639 450.5,250.5C 451.5,249.167 452.5,249.167 453.5,250.5 Z"/></g>
<g><path style="opacity:0.298" fill="#93defe" d="M 204.5,306.5 C 208.473,311.14 212.806,315.473 217.5,319.5C 216.486,320.674 215.153,321.34 213.5,321.5C 211.584,318.444 208.918,317.778 205.5,319.5C 204.508,315.217 204.174,310.884 204.5,306.5 Z"/></g>
<g><path style="opacity:1" fill="#57afdc" d="M 197.5,321.5 C 184.906,325.897 171.906,328.897 158.5,330.5C 155.399,330.308 152.399,329.642 149.5,328.5C 148.526,330.743 148.192,333.076 148.5,335.5C 144.381,336.097 140.381,337.097 136.5,338.5C 136.168,329.475 136.502,320.475 137.5,311.5C 157.163,316.785 177.163,320.119 197.5,321.5 Z"/></g>
<g><path style="opacity:1" fill="#c97b98" d="M 288.5,317.5 C 288.586,318.496 288.252,319.329 287.5,320C 284.996,320.698 282.663,321.531 280.5,322.5C 280.167,322.5 279.833,322.5 279.5,322.5C 279.5,321.167 279.5,319.833 279.5,318.5C 282.518,318.296 285.518,317.963 288.5,317.5 Z"/></g>
<g><path style="opacity:1" fill="#5bbbe3" d="M 197.5,321.5 C 202.405,322.445 207.405,322.779 212.5,322.5C 212.5,322.833 212.5,323.167 212.5,323.5C 208.931,324.867 205.765,326.867 203,329.5C 199.68,339.758 201.514,348.925 208.5,357C 211.482,357.498 214.482,357.665 217.5,357.5C 215.045,362.41 211.045,365.41 205.5,366.5C 204.516,369.428 204.183,372.428 204.5,375.5C 203.834,372.972 203.168,370.306 202.5,367.5C 199.812,368.513 197.146,369.513 194.5,370.5C 194.5,366.833 194.5,363.167 194.5,359.5C 179.112,357.527 163.945,354.527 149,350.5C 148.173,354.541 148.34,358.541 149.5,362.5C 163.241,365.761 176.907,368.761 190.5,371.5C 185.167,373.833 179.833,376.167 174.5,378.5C 165.852,376.615 157.185,374.948 148.5,373.5C 148.5,377.167 148.5,380.833 148.5,384.5C 149.791,384.263 150.791,384.596 151.5,385.5C 146.463,385.908 141.463,386.574 136.5,387.5C 136.5,371.167 136.5,354.833 136.5,338.5C 140.381,337.097 144.381,336.097 148.5,335.5C 148.5,337.167 148.5,338.833 148.5,340.5C 163.588,344.584 178.921,347.251 194.5,348.5C 194.5,344.833 194.5,341.167 194.5,337.5C 182.233,335.897 170.233,333.563 158.5,330.5C 171.906,328.897 184.906,325.897 197.5,321.5 Z"/></g>
<g><path style="opacity:1" fill="#60bbe3" d="M 236.5,322.5 C 246.328,323.19 256.328,323.19 266.5,322.5C 266.5,323.833 266.5,325.167 266.5,326.5C 255.58,326.674 244.913,325.674 234.5,323.5C 235.167,323.167 235.833,322.833 236.5,322.5 Z"/></g>
<g><path style="opacity:1" fill="#b0d5c1" d="M 212.5,323.5 C 219.833,323.5 227.167,323.5 234.5,323.5C 244.913,325.674 255.58,326.674 266.5,326.5C 266.5,326.833 266.5,327.167 266.5,327.5C 266.5,330.5 266.5,333.5 266.5,336.5C 266.5,337.167 266.5,337.833 266.5,338.5C 266.5,342.167 266.5,345.833 266.5,349.5C 262.241,348.132 257.908,347.299 253.5,347C 257.756,348.807 262.089,350.307 266.5,351.5C 266.5,351.833 266.5,352.167 266.5,352.5C 266.5,355.167 266.5,357.833 266.5,360.5C 260.905,358.464 255.238,356.964 249.5,356C 252.912,357.455 256.079,359.288 259,361.5C 259.717,365.285 258.05,366.951 254,366.5C 241.61,364.21 229.443,361.21 217.5,357.5C 214.482,357.665 211.482,357.498 208.5,357C 201.514,348.925 199.68,339.758 203,329.5C 205.765,326.867 208.931,324.867 212.5,323.5 Z"/></g>
<g><path style="opacity:0.298" fill="#95ddfd" d="M 279.5,322.5 C 279.5,324.833 279.5,327.167 279.5,329.5C 275.473,327.642 271.14,326.975 266.5,327.5C 266.5,327.167 266.5,326.833 266.5,326.5C 270.969,325.565 275.303,324.232 279.5,322.5 Z"/></g>
<g><path style="opacity:1" fill="#dccfce" d="M 266.5,327.5 C 271.14,326.975 275.473,327.642 279.5,329.5C 279.5,331.5 279.5,333.5 279.5,335.5C 275.429,337.803 271.096,338.137 266.5,336.5C 266.5,333.5 266.5,330.5 266.5,327.5 Z"/></g>
<g><path style="opacity:1" fill="#fe6161" d="M 377.5,329.5 C 385.571,329.137 393.571,329.637 401.5,331C 405.418,332.082 407.751,334.582 408.5,338.5C 403.157,353.005 395.157,365.839 384.5,377C 379.386,379.793 375.553,378.626 373,373.5C 370.923,360.451 371.256,347.451 374,334.5C 374.997,332.677 376.164,331.01 377.5,329.5 Z"/></g>
<g><path style="opacity:1" fill="#50d2bd" d="M 158.5,330.5 C 170.233,333.563 182.233,335.897 194.5,337.5C 194.5,341.167 194.5,344.833 194.5,348.5C 178.921,347.251 163.588,344.584 148.5,340.5C 148.5,338.833 148.5,337.167 148.5,335.5C 148.192,333.076 148.526,330.743 149.5,328.5C 152.399,329.642 155.399,330.308 158.5,330.5 Z"/></g>
<g><path style="opacity:0.298" fill="#98e0fc" d="M 279.5,335.5 C 279.5,337.833 279.5,340.167 279.5,342.5C 275.104,341.318 270.771,339.985 266.5,338.5C 266.5,337.833 266.5,337.167 266.5,336.5C 271.096,338.137 275.429,337.803 279.5,335.5 Z"/></g>
<g><path style="opacity:1" fill="#dccfce" d="M 266.5,338.5 C 270.771,339.985 275.104,341.318 279.5,342.5C 279.5,345.5 279.5,348.5 279.5,351.5C 275.076,351.348 270.743,350.681 266.5,349.5C 266.5,345.833 266.5,342.167 266.5,338.5 Z"/></g>
<g><path style="opacity:0.507" fill="#75e1c9" d="M 266.5,349.5 C 266.5,350.167 266.5,350.833 266.5,351.5C 262.089,350.307 257.756,348.807 253.5,347C 257.908,347.299 262.241,348.132 266.5,349.5 Z"/></g>
<g><path style="opacity:1" fill="#50d3be" d="M 194.5,370.5 C 193.432,371.434 192.099,371.768 190.5,371.5C 176.907,368.761 163.241,365.761 149.5,362.5C 148.34,358.541 148.173,354.541 149,350.5C 163.945,354.527 179.112,357.527 194.5,359.5C 194.5,363.167 194.5,366.833 194.5,370.5 Z"/></g>
<g><path style="opacity:0.761" fill="#f07377" d="M 279.5,322.5 C 279.833,322.5 280.167,322.5 280.5,322.5C 281.33,331.658 281.83,340.991 282,350.5C 282.5,384.832 282.667,419.165 282.5,453.5C 281.504,453.586 280.671,453.252 280,452.5C 279.5,418.835 279.333,385.168 279.5,351.5C 279.5,348.5 279.5,345.5 279.5,342.5C 279.5,340.167 279.5,337.833 279.5,335.5C 279.5,333.5 279.5,331.5 279.5,329.5C 279.5,327.167 279.5,324.833 279.5,322.5 Z"/></g>
<g><path style="opacity:0.998" fill="#d9d0cf" d="M 266.5,352.5 C 267.922,352.709 269.255,353.209 270.5,354C 272.31,358.033 270.976,360.2 266.5,360.5C 266.5,357.833 266.5,355.167 266.5,352.5 Z"/></g>
<g><path style="opacity:0.506" fill="#69e2ca" d="M 266.5,360.5 C 266.833,392.174 266.5,423.84 265.5,455.5C 223.654,459.446 182.32,456.279 141.5,446C 137.597,445.588 135.93,443.421 136.5,439.5C 152.431,444.012 168.097,443.345 183.5,437.5C 184.167,437.167 184.833,436.833 185.5,436.5C 197.243,438.876 209.243,440.209 221.5,440.5C 221.5,436.5 221.5,432.5 221.5,428.5C 213.132,428.194 204.799,427.527 196.5,426.5C 198.167,423.833 199.833,421.167 201.5,418.5C 202.167,418.5 202.5,418.167 202.5,417.5C 208.863,417.407 215.196,417.74 221.5,418.5C 221.797,414.233 221.464,410.066 220.5,406C 215.511,405.501 210.511,405.334 205.5,405.5C 205.5,405.167 205.5,404.833 205.5,404.5C 206.403,401.609 206.736,398.609 206.5,395.5C 211.507,395.751 216.507,396.084 221.5,396.5C 221.5,392.167 221.5,387.833 221.5,383.5C 216.167,383.5 210.833,383.5 205.5,383.5C 205.737,382.209 205.404,381.209 204.5,380.5C 204.5,378.833 204.5,377.167 204.5,375.5C 204.183,372.428 204.516,369.428 205.5,366.5C 211.045,365.41 215.045,362.41 217.5,357.5C 229.443,361.21 241.61,364.21 254,366.5C 258.05,366.951 259.717,365.285 259,361.5C 256.079,359.288 252.912,357.455 249.5,356C 255.238,356.964 260.905,358.464 266.5,360.5 Z"/></g>
<g><path style="opacity:1" fill="#57afdb" d="M 204.5,375.5 C 204.5,377.167 204.5,378.833 204.5,380.5C 204.03,381.693 203.03,382.36 201.5,382.5C 192.349,381.883 183.349,380.549 174.5,378.5C 179.833,376.167 185.167,373.833 190.5,371.5C 192.099,371.768 193.432,371.434 194.5,370.5C 197.146,369.513 199.812,368.513 202.5,367.5C 203.168,370.306 203.834,372.972 204.5,375.5 Z"/></g>
<g><path style="opacity:0.827" fill="#f36e71" d="M 359.5,418.5 C 359.567,417.041 359.234,415.708 358.5,414.5C 359.873,414.657 361.207,414.49 362.5,414C 388.775,401.384 412.608,385.218 434,365.5C 434.692,366.025 435.192,366.692 435.5,367.5C 412.9,388.474 387.567,405.474 359.5,418.5 Z"/></g>
<g><path style="opacity:1" fill="#5c99f4" d="M 100.5,373.5 C 105.374,378.541 110.708,383.041 116.5,387C 123.136,388.77 129.802,388.937 136.5,387.5C 136.5,404.833 136.5,422.167 136.5,439.5C 124.06,435.946 112.06,431.279 100.5,425.5C 100.5,408.167 100.5,390.833 100.5,373.5 Z"/></g>
<g><path style="opacity:1" fill="#4fcfbb" d="M 174.5,378.5 C 183.349,380.549 192.349,381.883 201.5,382.5C 203.03,382.36 204.03,381.693 204.5,380.5C 205.404,381.209 205.737,382.209 205.5,383.5C 205.5,387.167 205.5,390.833 205.5,394.5C 187.237,393.012 169.237,390.012 151.5,385.5C 150.791,384.596 149.791,384.263 148.5,384.5C 148.5,380.833 148.5,377.167 148.5,373.5C 157.185,374.948 165.852,376.615 174.5,378.5 Z"/></g>
<g><path style="opacity:0.804" fill="#52e3ae" d="M 205.5,383.5 C 210.833,383.5 216.167,383.5 221.5,383.5C 221.5,387.833 221.5,392.167 221.5,396.5C 216.507,396.084 211.507,395.751 206.5,395.5C 206.5,394.833 206.167,394.5 205.5,394.5C 205.5,390.833 205.5,387.167 205.5,383.5 Z"/></g>
<g><path style="opacity:1" fill="#57afdb" d="M 151.5,385.5 C 169.237,390.012 187.237,393.012 205.5,394.5C 206.167,394.5 206.5,394.833 206.5,395.5C 206.736,398.609 206.403,401.609 205.5,404.5C 198.786,404.637 192.12,404.137 185.5,403C 173.126,400.638 160.792,398.138 148.5,395.5C 148.5,399.5 148.5,403.5 148.5,407.5C 164.827,411.198 181.327,414.198 198,416.5C 199.681,416.608 200.848,417.275 201.5,418.5C 199.833,421.167 198.167,423.833 196.5,426.5C 196.167,426.5 195.833,426.5 195.5,426.5C 179.745,423.978 164.078,420.978 148.5,417.5C 148.5,421.5 148.5,425.5 148.5,429.5C 160.312,431.927 171.978,434.593 183.5,437.5C 168.097,443.345 152.431,444.012 136.5,439.5C 136.5,422.167 136.5,404.833 136.5,387.5C 141.463,386.574 146.463,385.908 151.5,385.5 Z"/></g>
<g><path style="opacity:1" fill="#4fceba" d="M 205.5,404.5 C 205.5,404.833 205.5,405.167 205.5,405.5C 204.809,409.596 203.809,413.596 202.5,417.5C 202.5,418.167 202.167,418.5 201.5,418.5C 200.848,417.275 199.681,416.608 198,416.5C 181.327,414.198 164.827,411.198 148.5,407.5C 148.5,403.5 148.5,399.5 148.5,395.5C 160.792,398.138 173.126,400.638 185.5,403C 192.12,404.137 198.786,404.637 205.5,404.5 Z"/></g>
<g><path style="opacity:0.804" fill="#52e3ae" d="M 205.5,405.5 C 210.511,405.334 215.511,405.501 220.5,406C 221.464,410.066 221.797,414.233 221.5,418.5C 215.196,417.74 208.863,417.407 202.5,417.5C 203.809,413.596 204.809,409.596 205.5,405.5 Z"/></g>
<g><path style="opacity:1" fill="#fe6162" d="M 358.5,414.5 C 359.234,415.708 359.567,417.041 359.5,418.5C 360.029,422.192 359.029,425.358 356.5,428C 354.833,428.667 353.167,428.667 351.5,428C 349.752,425.987 348.418,423.82 347.5,421.5C 347.5,421.167 347.5,420.833 347.5,420.5C 346.9,416.484 347.9,412.984 350.5,410C 354.503,409.167 357.17,410.667 358.5,414.5 Z"/></g>
<g><path style="opacity:1" fill="#4fceba" d="M 195.5,426.5 C 195.631,427.239 195.464,427.906 195,428.5C 191.855,431.304 188.688,433.97 185.5,436.5C 184.833,436.833 184.167,437.167 183.5,437.5C 171.978,434.593 160.312,431.927 148.5,429.5C 148.5,425.5 148.5,421.5 148.5,417.5C 164.078,420.978 179.745,423.978 195.5,426.5 Z"/></g>
<g><path style="opacity:0.913" fill="#a16369" d="M 347.5,420.5 C 347.5,420.833 347.5,421.167 347.5,421.5C 347.53,422.497 347.03,423.164 346,423.5C 333.231,428.257 320.064,431.257 306.5,432.5C 306.5,431.5 306.5,430.5 306.5,429.5C 320.48,427.922 334.147,424.922 347.5,420.5 Z"/></g>
<g><path style="opacity:0.804" fill="#51e3ad" d="M 195.5,426.5 C 195.833,426.5 196.167,426.5 196.5,426.5C 204.799,427.527 213.132,428.194 221.5,428.5C 221.5,432.5 221.5,436.5 221.5,440.5C 209.243,440.209 197.243,438.876 185.5,436.5C 188.688,433.97 191.855,431.304 195,428.5C 195.464,427.906 195.631,427.239 195.5,426.5 Z"/></g>
</svg>
