<svg width="169" height="303" viewBox="0 0 169 303" fill="none" xmlns="http://www.w3.org/2000/svg">
<path d="M107.552 193.724L131.307 150.868L161.632 167.677C163.805 168.882 164.764 171.499 163.883 173.823L161.245 180.778C158.174 188.875 153.952 196.486 148.707 203.376L144.282 209.19C142.778 211.166 140.051 211.739 137.879 210.535L107.552 193.724Z" fill="#9EBDF6"/>
<path d="M130.419 147.571L105.183 105.569L134.902 87.7123C137.032 86.4325 139.778 86.9111 141.35 88.8359L146.055 94.5981C151.531 101.305 156.011 108.768 159.356 116.755L162.178 123.495C163.137 125.785 162.27 128.433 160.141 129.712L130.419 147.571Z" fill="#9EBDF6"/>
<rect x="35.28" width="88.2" height="302.4" rx="44.1" fill="#3BA559"/>
<ellipse cx="78.75" cy="150.57" rx="78.75" ry="78.75" fill="#4887EF"/>
<ellipse cx="78.12" cy="151.2" rx="63" ry="63" fill="#1C50A3"/>
<path d="M78.7499 138.86C85.2172 138.86 90.4599 144.103 90.4599 150.57C90.4599 157.037 85.2172 162.28 78.7499 162.28C72.2827 162.28 67.04 157.037 67.04 150.57C67.04 144.103 72.2827 138.86 78.7499 138.86Z" fill="#B1C9F6" stroke="#4E77BD" stroke-width="2"/>
<path d="M96.39 114.92C102.857 114.92 108.1 120.163 108.1 126.63C108.1 133.097 102.857 138.34 96.39 138.34C89.9227 138.34 84.68 133.097 84.68 126.63C84.68 120.163 89.9227 114.92 96.39 114.92Z" fill="#B1C9F6" stroke="#4E77BD" stroke-width="2"/>
<path d="M96.39 164.06C102.857 164.06 108.1 169.303 108.1 175.77C108.1 182.237 102.857 187.48 96.39 187.48C89.9227 187.48 84.68 182.237 84.68 175.77C84.68 169.303 89.9227 164.06 96.39 164.06Z" fill="#B1C9F6" stroke="#4E77BD" stroke-width="2"/>
<path d="M112.77 138.86C119.237 138.86 124.48 144.103 124.48 150.57C124.48 157.037 119.237 162.28 112.77 162.28C106.303 162.28 101.06 157.037 101.06 150.57C101.06 144.103 106.303 138.86 112.77 138.86Z" fill="#B1C9F6" stroke="#4E77BD" stroke-width="2"/>
<path d="M62.37 114.92C55.9028 114.92 50.6601 120.163 50.6601 126.63C50.6601 133.097 55.9028 138.34 62.37 138.34C68.8373 138.34 74.08 133.097 74.08 126.63C74.08 120.163 68.8372 114.92 62.37 114.92Z" fill="#B1C9F6" stroke="#4E77BD" stroke-width="2"/>
<path d="M62.37 164.06C55.9028 164.06 50.6601 169.303 50.6601 175.77C50.6601 182.237 55.9028 187.48 62.37 187.48C68.8373 187.48 74.08 182.237 74.08 175.77C74.08 169.303 68.8372 164.06 62.37 164.06Z" fill="#B1C9F6" stroke="#4E77BD" stroke-width="2"/>
<path d="M45.9901 138.86C39.5228 138.86 34.2801 144.103 34.2801 150.57C34.2801 157.037 39.5228 162.28 45.9901 162.28C52.4573 162.28 57.7 157.037 57.7 150.57C57.7 144.103 52.4573 138.86 45.9901 138.86Z" fill="#B1C9F6" stroke="#4E77BD" stroke-width="2"/>
</svg>
