<svg width="500" height="500" viewBox="0 0 500 500" fill="none" xmlns="http://www.w3.org/2000/svg">
<path d="M454.736 224.546C458.291 233.114 460.282 242.529 460.282 252.399V252.78C460.55 253.463 460.692 254.202 460.692 254.942V300.129C460.68 309.396 459.128 318.597 456.101 327.356L471.245 320.751C476.666 318.407 481.906 316.012 481.906 310.084V242.415C481.906 236.516 476.666 234.121 471.245 231.748L454.736 224.546ZM148.747 133.734C111.474 133.734 80.6002 161.28 74.0522 197.7C87.8592 183.091 107.122 173.995 128.484 173.995H383.863C405.22 173.995 424.482 183.091 438.283 197.7C431.741 161.263 400.862 133.734 363.594 133.734H148.747Z" fill="#3AA758"/>
<path d="M57.6114 224.546C53.9453 233.374 52.0603 242.84 52.0647 252.399V252.78C51.803 253.463 51.6608 254.202 51.6608 254.942V300.129C51.6608 309.669 53.3106 318.794 56.2517 327.356L41.1079 320.751C35.6864 318.407 30.4412 316.012 30.4412 310.084V242.415C30.4412 236.516 35.6864 234.121 41.1079 231.748L57.6114 224.546Z" fill="#3AA758"/>
<path d="M383.858 185.822C419.709 185.823 448.415 215.421 448.415 252.398C448.361 253.278 448.506 254.159 448.837 254.976V300.135C448.837 343.484 414.857 378.505 372.811 378.505H308.389C300.571 378.552 293.033 375.602 287.323 370.262C282.135 365.494 278.585 359.6 275.416 354.145C272.213 348.695 269.369 343.683 266.343 340.435C263.356 337.175 260.687 335.542 256.188 335.542C251.654 335.542 249.014 337.169 245.993 340.435C242.973 343.683 240.128 348.695 236.926 354.145C233.763 359.6 230.235 365.494 225.047 370.262C219.33 375.608 211.779 378.558 203.952 378.505H139.543C97.5022 378.505 63.5109 343.484 63.5107 300.135V254.651C63.8008 253.935 63.9551 253.166 63.9551 252.398C63.9553 215.421 92.6324 185.822 128.489 185.822H383.858ZM334.6 221.454L350.985 268H361.395L377.804 221.454H368.531L356.44 258.091H355.963L343.85 221.454H334.6ZM383.935 221.454V268H392.366V250.954H400.946L410.094 268H419.503L409.435 249.571C409.738 249.449 410.034 249.32 410.321 249.182C412.776 247.985 414.632 246.295 415.89 244.113C417.162 241.916 417.798 239.325 417.798 236.341C417.798 233.371 417.17 230.773 415.912 228.546C414.67 226.304 412.829 224.561 410.39 223.318C407.966 222.076 404.965 221.454 401.39 221.454H383.935ZM400.094 228.5C402.2 228.5 403.92 228.81 405.253 229.432C406.586 230.038 407.579 230.932 408.23 232.113C408.882 233.28 409.207 234.689 409.207 236.341C409.207 237.992 408.882 239.386 408.23 240.522C407.594 241.644 406.609 242.5 405.275 243.091C403.942 243.667 402.23 243.954 400.14 243.954H392.366V228.5H400.094Z" fill="#4984E4"/>
<path d="M275.57 200.727C275.428 200.727 275.274 200.726 275.126 200.755H237.227C237.038 200.726 236.846 200.727 236.658 200.755C229.166 201.46 229.695 212.577 237.227 212.543H275.126C275.92 212.603 276.718 212.502 277.472 212.247C278.226 211.992 278.921 211.588 279.515 211.058C280.109 210.528 280.59 209.882 280.929 209.162C281.268 208.442 281.457 207.661 281.487 206.865C281.517 206.07 281.387 205.276 281.103 204.532C280.819 203.789 280.387 203.11 279.835 202.537C279.282 201.964 278.619 201.508 277.887 201.197C277.154 200.886 276.366 200.726 275.57 200.727Z" fill="#296139"/>
</svg>
