<?xml version="1.0" standalone="no"?><!DOCTYPE svg PUBLIC "-//W3C//DTD SVG 1.1//EN" "http://www.w3.org/Graphics/SVG/1.1/DTD/svg11.dtd"><svg t="1761998141283" class="icon" viewBox="0 0 1024 1024" version="1.1" xmlns="http://www.w3.org/2000/svg" p-id="11113" xmlns:xlink="http://www.w3.org/1999/xlink" width="16" height="16"><path d="M354.901333 88.533333c-10.325333-3.413333-21.418667-3.925333-32 1.365334-21.034667 10.538667-30.506667 36.266667-19.968 57.344l27.989334 55.978666c-36.48 36.48-57.472 85.632-66.645334 138.666667h-8.021333c-19.114667 0-42.666667-23.552-42.666667-42.666667a42.666667 42.666667 0 0 0-85.333333 0c0 66.218667 61.781333 128 128 128v85.333334h-85.333333a42.666667 42.666667 0 0 0 0 85.333333h85.333333v42.666667c0 15.061333 1.664 32.426667 3.669333 42.624h-3.669333c-66.218667 0-128 61.824-128 128a42.666667 42.666667 0 0 0 85.333333 0c0-19.072 23.552-42.666667 42.666667-42.666667 38.656 0 33.706667-0.896 34.090667-0.896a255.658667 255.658667 0 0 0 221.866666 128.938667c93.952 0 177.493333-52.608 222.037334-128 8.106667-0.341333-4.693333 0 34.005333 0 19.114667 0 42.666667 23.552 42.666667 42.666666a42.666667 42.666667 0 0 0 85.333333 0c0-66.218667-61.781333-128-128-128-8.021333 0-2.048 0.298667-3.712 0.085334 2.474667-14.336 3.712-27.733333 3.712-42.752v-42.666667h85.333333a42.666667 42.666667 0 0 0 0-85.333333h-85.333333v-85.333334c66.218667 0 128-61.781333 128-128a42.666667 42.666667 0 0 0-85.333333 0c0 19.114667-23.552 42.666667-42.666667 42.666667h-8.021333c-9.173333-53.034667-30.165333-102.186667-66.645334-138.666667l27.989334-55.978666c10.538667-21.077333 1.066667-46.805333-19.968-57.344-10.538667-5.290667-21.674667-4.778667-32-1.365334-10.368 3.413333-20.096 10.837333-25.344 21.333334l-21.418667 43.818666a256.768 256.768 0 0 0-110.592-25.173333c-39.466667 0-77.269333 8.490667-110.634667 24.448l-21.376-43.093333a43.733333 43.733333 0 0 0-25.344-21.333334z m157.354667 125.354667c79.232 0 143.36 54.826667 162.645333 128h-77.312c-31.701333 0-62.165333 13.952-85.546666 35.925333-23.381333-21.973333-53.418667-35.925333-85.12-35.925333H349.610667c19.2-73.173333 83.413333-128 162.645333-128z m-170.666667 213.333333h85.333334c19.114667 0 42.666667 23.552 42.666666 42.666667v213.333333a42.666667 42.666667 0 0 0 85.333334 0v-213.333333c0-19.114667 23.552-42.666667 42.666666-42.666667h85.333334v213.333334a170.666667 170.666667 0 0 1-341.333334 0v-213.333334z" fill="#000000" p-id="11114"></path></svg>