<?xml version="1.0" standalone="no"?><!DOCTYPE svg PUBLIC "-//W3C//DTD SVG 1.1//EN" "http://www.w3.org/Graphics/SVG/1.1/DTD/svg11.dtd"><svg t="1761998214265" class="icon" viewBox="0 0 1024 1024" version="1.1" xmlns="http://www.w3.org/2000/svg" p-id="14386" xmlns:xlink="http://www.w3.org/1999/xlink" width="16" height="16"><path d="M361.3357333 114.51211944c74.63402887 59.1552675 70.19438442 123.89008866-17.86657064 232.21742217-88.20494353 108.43532536-151.47588192 126.82985372-226.24190072 67.62659006l10.31917458-12.52699776-10.31917458 12.53899631c-42.53659692-33.62131041-50.7679387-86.4410843-30.98152182-145.18838447a99.73602155 99.73602155 0 0 1 0.8879289-125.02999786c29.99760061-36.89704856 81.25749942-47.72018278 123.62610979-28.04175675 53.85169223-31.82145455 107.94336427-35.33717348 150.57595449-1.5958717z m126.01391906 602.2798169l3.53971603 1.43988469c-20.79433617 49.05207563-18.19054519 97.15622766 23.41012767 144.04847625a272.31821466 272.31821466 0 0 0 26.81785477 54.64362881l5.05159594 7.90736724-4.46364352 8.21934225c-1.19990391 2.87976937-2.25581934 4.88360939-4.07967328 7.16342681a47.63618902 47.63618902 0 0 1-66.35469192 7.15142827c-83.00935912-65.69474428-103.32373373-152.95176422-75.95392318-240.67674619-5.55555558-2.2438208-11.03911692-4.61963053-16.48668164-7.16342681l-76.03791693 93.62851017c-16.31869411 20.12238998-46.0043197 23.30213583-66.36669047 7.19942344a45.89632786 45.89632786 0 0 1-7.28341721-65.15478704l70.32637435-86.51307951a1311.06311536 1311.06311536 0 0 1-22.55819541-18.38252883c-71.95824366 19.19846447-154.23566091 2.37580973-241.696665-66.81065541a45.99232017 45.99232017 0 0 1-7.18742489-65.22678126c16.33069364-19.99040105 46.14830817-23.20614352 66.18670538-7.07943403 62.4430042 49.34005256 115.81473487 60.93112528 155.21958211 51.03191756 4.83561323-3.09575208 50.65994686-25.95392395 68.33453386-36.83705287 35.15718741-21.64626844 67.47060206-49.38804872 98.78809696-87.89296852 39.80081602-49.00407947 60.079194-90.23278163 77.17782516-142.26061992 0.77993803-5.42356566 1.58387316-8.87928989 3.34773239-12.598992 4.85961131-11.11111116 8.12334994-28.49772023 4.48764061-51.83585269-6.11951091-39.23686069-31.14950836-79.87760944-81.95344369-120.08639278a45.86033123 45.86033123 0 0 1-7.31941383-65.13078994 47.51619863 47.51619863 0 0 1 66.33069286-7.2234225c87.71298342 69.37844977 122.0902328 145.02039792 118.56251532 218.63450995 6.70746333 4.87160986 14.25485939 10.55915536 22.94216465 17.27861724l70.25438011-86.33309344a47.56419478 47.56419478 0 0 1 66.34269239-7.27141767 45.93232547 45.93232547 0 0 1 7.30741528 65.21478272l-76.24190109 93.74849958c3.73170164 4.75161947 7.30741528 9.527238 10.70314383 14.33885315 80.89752825-45.29637591 171.70626375-44.60043164 254.70362433 21.07031456a45.90832739 45.90832739 0 0 1 7.25941912 65.11879041c-16.28269748 20.06239528-46.0043197 23.27813775-66.36669047 7.18742489-52.57979409-41.63666948-104.12766984-39.86081072-152.91576759-10.2951765a330.47756142 330.47756142 0 0 1 15.31077581 64.95080386l2.12382942 16.12671047-16.46268257 1.9318448a277.40580722 277.40580722 0 0 0-122.39020829 45.04439658l-10.09119332 6.76745901-9.51523847-7.52339897-8.31533457-6.56347486-62.3830095-49.40004726c-26.74586053-21.16630688-46.72426205-25.4139667-49.91600742-21.49028143-3.26373863 4.04367666 5.36357095 22.5221978 32.2054238 43.72450229 0.39596878 0.31197502 46.60427166 36.93304519 60.6311498 48.0921525l14.63882864 11.63906887-12.17902514 12.62299008c-35.87712975 37.19702405-60.59515219 83.34533222-70.96232293 133.65730744l-16.10271239-3.19174439-0.41996587 3.35973093zM1002.72042195 916.35997077c13.85889159 13.84689206 16.78665712 34.49723977 8.86729135 49.89200934-2.50779966 6.73146141-5.98752098 12.41900691-10.89512846 17.06263453a31.13750883 31.13750883 0 0 1-6.71946286 4.99160123l-4.9796017 4.90760747a46.05231586 46.05231586 0 0 1-64.41084661-0.02399807l-73.53011826-72.59419322a200.83993256 200.83993256 0 0 1-97.82817385 25.52195854c-111.81905437 0-202.38780909-89.71682245-202.38780811-200.32397437 0-110.57115431 90.56875472-200.32397437 202.38780811-200.32397339s202.37580956 89.75282006 202.37581055 200.32397339c0 34.83321286-9.17926537 68.39452856-26.24190089 98.18814501l73.36213073 72.37820954z m-249.58003317-76.01391886c52.62779025 0 95.34437227-42.29661614 95.34437227-94.58843232 0-52.29181617-42.716583-94.5884333-95.33237372-94.58843329s-95.30837564 42.28461759-95.30837466 94.58843329 42.69258492 94.5884333 95.30837466 94.58843232z" fill="#515151" p-id="14387"></path></svg>