<?xml version="1.0" standalone="no"?><!DOCTYPE svg PUBLIC "-//W3C//DTD SVG 1.1//EN" "http://www.w3.org/Graphics/SVG/1.1/DTD/svg11.dtd"><svg t="1762004793668" class="icon" viewBox="0 0 1024 1024" version="1.1" xmlns="http://www.w3.org/2000/svg" p-id="2638" xmlns:xlink="http://www.w3.org/1999/xlink" width="16" height="16"><path d="M633.094 657.99c18.214-62.25 45.214-99.938 45.464-100.25 4.718-6.5 5.438-15.078 1.782-22.234a21.25 21.25 0 0 0-19-11.686l-298.682-0.032a21.314 21.314 0 0 0-19 11.686c-3.656 7.156-2.938 15.766 1.782 22.266 1.094 1.438 107.03 149.624 39.656 352.87a21.34 21.34 0 0 0 2.938 19.188 21.37 21.37 0 0 0 17.312 8.876h213.31a21.36 21.36 0 0 0 17.312-8.876 21.35 21.35 0 0 0 2.934-19.188c-15.434-46.624-22.996-94.124-22.464-141.124a414.024 414.024 0 0 1 16.656-111.496z" fill="#FC6E51" p-id="2639"></path><path d="M929.054 277.324c-1.218 0-2.438 0.032-3.656 0.094-17-48.718-91.246-85.404-180.308-85.404-3.782 0-7.5 0.062-11.218 0.188C694.558 141.638 610 106.672 512 106.672c-97.998 0-182.56 34.966-221.872 85.53a332.4 332.4 0 0 0-11.188-0.188c-89.06 0-163.31 36.686-180.31 85.404a72.256 72.256 0 0 0-3.688-0.094c-40.656 0-73.592 28.656-73.592 63.998 0 35.344 32.936 64 73.592 64 1.218 0 2.438-0.032 3.656-0.062 17 48.716 91.25 85.404 180.31 85.404 3.782 0 7.532-0.094 11.218-0.218 39.312 50.56 123.874 85.544 221.872 85.544 98 0 182.558-34.984 221.872-85.544 3.718 0.124 7.438 0.218 11.188 0.218 89.062 0 163.308-36.688 180.308-85.404 1.218 0.032 2.468 0.062 3.688 0.062 40.656 0 73.594-28.656 73.594-64 0-35.342-32.938-63.998-73.594-63.998z" fill="#F5F7FA" p-id="2640"></path><path d="M512 853.298c-11.782 0-21.344-9.562-21.344-21.312V575.99c0-11.812 9.562-21.376 21.344-21.376s21.344 9.562 21.344 21.376v255.996c0 11.75-9.562 21.312-21.344 21.312z" fill="#E9573F" p-id="2641"></path><path d="M746.652 938.672H277.348c-11.782 0-21.344-9.562-21.344-21.376 0-11.75 9.562-21.31 21.344-21.31h469.304c11.782 0 21.344 9.56 21.344 21.31 0 11.814-9.562 21.376-21.344 21.376z" fill="#434A54" p-id="2642"></path><path d="M939.368 256.512c-27.75-51.216-104.622-85.842-194.278-85.842h-1.406C696.652 117.794 609.218 85.328 512 85.328c-97.186 0-184.622 32.466-231.684 85.342h-1.376c-89.654 0-166.528 34.624-194.278 85.81C37.132 261.104 0.008 297.386 0.008 341.322c0 43.938 37.092 80.188 84.624 84.844 27.75 51.186 104.624 85.842 194.278 85.842 0.468 0 0.938-0.032 1.406-0.032 47.062 52.888 134.498 85.326 231.684 85.326 97.218 0 184.652-32.438 231.684-85.326 0.468 0 0.906 0.032 1.376 0.032 89.656 0 166.528-34.656 194.308-85.842 47.5-4.624 84.624-40.906 84.624-84.844 0-43.904-37.094-80.186-84.624-84.81z m-10.158 127.466c-9.032-3.438-18.718-10.032-19.468-13.562-0.124-0.594 1.062-5.282 9.906-13.188 8.782-7.844 9.562-21.344 1.688-30.124-7.844-8.782-21.344-9.532-30.124-1.688-24.124 21.592-25.938 41.28-23.188 53.998 2.938 13.656 12.562 25.812 27.812 35.344-22.624 28.716-76.902 54.56-150.778 54.56-3.344 0-6.844-0.062-10.438-0.188a21.326 21.326 0 0 0-17.594 8.218c-36.5 46.966-116.964 77.326-205.028 77.326-86.468 0-165.654-29.328-203.028-74.858-1.906-6-5.936-22.188 1.468-33.75 9.282-14.56 34.032-18.592 53.156-19.436 11.782-0.5 20.906-10.468 20.376-22.25-0.5-11.75-10.438-20.876-22.218-20.376-42.812 1.876-72.28 15.156-87.56 39.532-9.656 15.376-11.5 31.78-10.562 45.404-79.592-3.938-133.56-38.28-144.872-70.716a21.324 21.324 0 0 0-21.062-14.282c-0.906 0.032-1.844 0.062-2.75 0.062-28.812 0-52.28-19.156-52.28-42.688 0-23.53 23.468-42.654 52.28-42.654 0.562 0 1.124 0.032 1.718 0.032 5.032 0.938 19.844 5.032 25.532 13.438 1.656 2.406 3.594 6.624 1.468 15.218-2.812 11.436 4.188 22.998 15.656 25.81a21.86 21.86 0 0 0 5.094 0.624c9.594 0 18.312-6.532 20.688-16.282 5.688-23.154-1-39.624-7.594-49.342-7.312-10.782-17.532-18-27.25-22.812 23.718-27.656 76.998-52.03 148.684-52.03 3.376 0 6.782 0.062 10.468 0.188a21.224 21.224 0 0 0 17.562-8.218C343.502 158.326 423.97 128.014 512 128.014c86.844 0 166.308 29.532 203.496 75.376 7.376 17.466 13.5 46.186 4.468 57.53-6.906 8.688-26.75 10.468-54.376 4.844-11.562-2.376-22.812 5.094-25.156 16.656-2.344 11.532 5.094 22.812 16.656 25.156 13.312 2.688 25.5 4.062 36.5 4.062 27 0 47.062-8.124 59.844-24.25 13.218-16.718 16.938-39.906 11.032-68.936a190.786 190.786 0 0 0-1-4.562c77.876 4.688 130.622 38.53 141.778 70.56 3.124 8.876 11.688 14.688 21.062 14.282 0.906-0.032 1.844-0.062 2.75-0.062 28.812 0 52.282 19.124 52.282 42.654 0 23.498-23.376 42.592-52.126 42.654z" fill="#E6E9ED" p-id="2643"></path><path d="M432.22 746.298c-0.156 0-17.186 1.188-35.5-0.562-23.344-2.25-32.376-7.688-34.062-9.688 0.032-2.876 0.906-3.688 1.624-4.312 6.156-5.624 24.438-7.186 35.282-6.124 1.688 0.124 3.376 0.062 5-0.124a419.912 419.912 0 0 0-7.406-42.812c-13.876-0.5-42.936 0.624-61.468 17.376-10.25 9.25-15.688 21.75-15.688 36.124 0 12.062 4.812 22.938 13.906 31.376 20.188 18.812 59.842 21.876 83.748 21.876 8.156 0 14.468-0.312 17.562-0.562 11.75-0.812 20.594-11 19.782-22.75-0.842-11.754-11.03-20.63-22.78-19.818zM688.308 700.05c-18.594-16.812-47.75-17.938-61.59-17.376a416.236 416.236 0 0 0-7.376 42.75c1.656 0.25 3.376 0.312 5.094 0.188 10.844-1.062 29.122 0.5 35.278 6.124 0.718 0.624 1.562 1.376 1.594 4.312-1.688 2.062-10.718 7.438-34.028 9.688-18.312 1.75-35.344 0.562-35.468 0.562a21.35 21.35 0 0 0-22.812 19.812c-0.812 11.75 8.032 21.938 19.782 22.75 3.094 0.25 9.406 0.562 17.562 0.562 23.906 0 63.59-3.062 83.746-21.876 9.094-8.438 13.906-19.312 13.906-31.376 0-14.37-5.438-26.87-15.688-36.12z" fill="#FFCE54" p-id="2644"></path></svg>