<?xml version="1.0" encoding="utf-8"?>
<svg xmlns="http://www.w3.org/2000/svg" viewBox="0 0 200 200" xmlns:bx="https://boxy-svg.com" width="200px" height="200px"><defs><linearGradient gradientUnits="userSpaceOnUse" bx:pinned="true" id="color-0"><stop style="stop-color: #f9ed69;"/></linearGradient><linearGradient gradientUnits="userSpaceOnUse" bx:pinned="true" id="color-1"><stop style="stop-color: #f08a5d;"/></linearGradient><linearGradient gradientUnits="userSpaceOnUse" bx:pinned="true" id="color-2"><stop style="stop-color: #b83b5e;"/></linearGradient><linearGradient gradientUnits="userSpaceOnUse" bx:pinned="true" id="color-3"><stop style="stop-color: #6a2c70;"/></linearGradient><linearGradient bx:pinned="true" id="color-4"><stop style="stop-color: #c6ffdd;" offset="0"/><stop style="stop-color: #fbd786;" offset="0.5"/><stop style="stop-color: #f7797d;" offset="1"/></linearGradient><linearGradient bx:pinned="true" id="color-5"><stop style="stop-color: #ffefba;" offset="0"/><stop style="stop-color: #ffffff;" offset="1"/></linearGradient><linearGradient gradientUnits="userSpaceOnUse" x1="100" y1="11.531" x2="100" y2="195.001" id="gradient-0"><stop offset="0" style="stop-color: rgb(97.647% 94.118% 53.725% / 0.58)"/><stop offset="1" style="stop-color: rgb(55.828% 53.94% 14.844% / 0.58)"/></linearGradient><linearGradient id="color-4-0" href="#color-4" gradientUnits="userSpaceOnUse" x1="100" y1="11.531" x2="100" y2="195.001"/><linearGradient id="gradient-1" x1="93.892" x2="93.892" y1="2.624" y2="186.094" gradientUnits="userSpaceOnUse" gradientTransform="matrix(-0.987688, -0.156436, 0.122404, -0.772822, 178.614008, 200.2138)"><stop style="stop-color: rgb(198, 255, 221); stop-opacity: 0.32;" offset="0"/><stop style="stop-color: rgb(251, 215, 134); stop-opacity: 0.37;" offset="0.5"/><stop style="stop-color: rgb(247, 121, 125); stop-opacity: 0.88;" offset="1"/></linearGradient><linearGradient bx:pinned="true" id="color-6"><stop style="stop-color: #f12711;" offset="0"/><stop style="stop-color: #f5af19;" offset="1"/></linearGradient><linearGradient id="color-6-0" href="#color-6" gradientUnits="userSpaceOnUse" x1="100" y1="11.531" x2="100" y2="195.001"/><linearGradient id="gradient-2" x1="100" x2="100" y1="11.531" y2="195.001" gradientUnits="userSpaceOnUse" gradientTransform="matrix(0.994515, 0.104591, -0.088567, 0.842144, -1.670411, 1.946753)"><stop style="stop-color: rgb(254, 25, 0); stop-opacity: 0.57;" offset="0"/><stop style="stop-opacity: 0.31; stop-color: rgb(245, 188, 65);" offset="1"/></linearGradient><bx:export><bx:file format="svg" path="未命名.svg"/></bx:export></defs><path d="M 82.9 18.063 Q 100 5 117.1 18.063 L 177.9 64.511 Q 195 77.574 188.468 98.711 L 165.245 173.864 Q 158.713 195.001 137.576 195.001 L 62.424 195.001 Q 41.287 195.001 34.755 173.864 L 11.532 98.711 Q 5 77.574 22.1 64.511 Z" bx:shape="n-gon 100 110.03 99.889 105.03 5 0.18 1@e3d75dec" style="stroke: rgb(0, 0, 0); stroke-opacity: 0; fill: url(&quot;#gradient-2&quot;);"/><g transform="matrix(0.124057, 0, 0, 0.180589, 84.673122, 96.886891)" style=""><path d="M 236.769 262.617 C 254.983 200.367 281.983 162.679 282.233 162.367 C 286.951 155.867 287.671 147.289 284.015 140.133 C 280.399 132.96 273.048 128.438 265.015 128.447 L -33.667 128.415 C -41.696 128.421 -49.04 132.938 -52.667 140.101 C -56.323 147.257 -55.605 155.867 -50.885 162.367 C -49.791 163.805 56.145 311.991 -11.229 515.237 C -13.384 521.734 -12.291 528.87 -8.291 534.425 C -4.28 539.991 2.16 543.293 9.021 543.301 L 222.331 543.301 C 229.192 543.295 235.633 539.993 239.643 534.425 C 243.64 528.869 244.731 521.734 242.577 515.237 C 227.143 468.613 219.581 421.113 220.113 374.113 C 220.555 336.362 226.159 298.849 236.769 262.617 L 236.769 262.617 Z" fill="#FC6E51" p-id="2639" style="stroke-width: 1;"/><path d="M 532.729 -118.05 C 531.511 -118.05 530.291 -118.02 529.073 -117.95 C 512.073 -166.67 437.827 -203.36 348.765 -203.36 C 344.983 -203.36 341.265 -203.3 337.547 -203.17 C 298.233 -253.74 213.675 -288.7 115.675 -288.7 C 17.677 -288.7 -66.885 -253.74 -106.2 -203.17 C -109.92 -203.3 -113.66 -203.36 -117.39 -203.36 C -206.44 -203.36 -280.69 -166.67 -297.69 -117.95 C -298.92 -118.02 -300.15 -118.05 -301.38 -118.05 C -342.04 -118.05 -374.98 -89.393 -374.98 -54.051 C -374.98 -18.707 -342.04 9.949 -301.38 9.949 C -300.17 9.949 -298.94 9.917 -297.73 9.887 C -280.73 58.603 -206.48 95.291 -117.42 95.291 C -113.64 95.291 -109.89 95.197 -106.2 95.073 C -66.887 145.633 17.675 180.617 115.673 180.617 C 213.673 180.617 298.231 145.633 337.545 95.073 C 341.263 95.197 344.983 95.291 348.733 95.291 C 437.795 95.291 512.041 58.603 529.041 9.887 C 530.259 9.919 531.509 9.949 532.729 9.949 C 573.385 9.949 606.323 -18.707 606.323 -54.051 C 606.323 -89.393 573.385 -118.05 532.729 -118.05 L 532.729 -118.05 Z" fill="#F5F7FA" p-id="2640" style="stroke-width: 1;"/><path d="M 115.675 457.925 C 103.893 457.925 94.331 448.363 94.331 436.613 L 94.331 180.617 C 94.331 168.805 103.893 159.241 115.675 159.241 C 127.457 159.241 137.019 168.803 137.019 180.617 L 137.019 436.613 C 137.019 448.363 127.457 457.925 115.675 457.925 Z" fill="#E9573F" p-id="2641" style="stroke-width: 1;"/><path d="M 350.327 543.299 L -118.98 543.299 C -130.76 543.299 -140.32 533.737 -140.32 521.923 C -140.32 510.173 -130.76 500.613 -118.98 500.613 L 350.327 500.613 C 362.109 500.613 371.671 510.173 371.671 521.923 C 371.671 533.737 362.109 543.299 350.327 543.299 Z" fill="#434A54" p-id="2642" style="stroke-width: 1;"/><path d="M 543.043 -138.86 C 515.293 -190.08 438.421 -224.7 348.765 -224.7 L 347.359 -224.7 C 300.327 -277.58 212.893 -310.05 115.675 -310.05 C 18.489 -310.05 -68.947 -277.58 -116.01 -224.7 L -117.39 -224.7 C -207.04 -224.7 -283.91 -190.08 -311.66 -138.89 C -359.19 -134.27 -396.32 -97.987 -396.32 -54.051 C -396.32 -10.113 -359.23 26.137 -311.69 30.793 C -283.94 81.979 -207.07 116.635 -117.42 116.635 C -116.95 116.635 -116.48 116.603 -116.01 116.603 C -68.947 169.491 18.489 201.929 115.675 201.929 C 212.893 201.929 300.327 169.491 347.359 116.603 C 347.827 116.603 348.265 116.635 348.735 116.635 C 438.391 116.635 515.263 81.979 543.043 30.793 C 590.543 26.169 627.667 -10.113 627.667 -54.051 C 627.667 -97.955 590.573 -134.24 543.043 -138.86 L 543.043 -138.86 Z M 532.885 -11.395 C 523.853 -14.833 514.167 -21.427 513.417 -24.957 C 513.293 -25.551 514.479 -30.239 523.323 -38.145 C 532.105 -45.989 532.885 -59.489 525.011 -68.269 C 517.167 -77.051 503.667 -77.801 494.887 -69.957 C 470.763 -48.365 468.949 -28.677 471.699 -15.959 C 474.637 -2.303 484.261 9.853 499.511 19.385 C 476.887 48.101 422.609 73.945 348.733 73.945 C 345.389 73.945 341.889 73.883 338.295 73.757 C 331.451 73.513 324.906 76.57 320.701 81.975 C 284.201 128.941 203.737 159.301 115.673 159.301 C 29.205 159.301 -49.981 129.973 -87.355 84.443 C -89.261 78.443 -93.291 62.255 -85.887 50.693 C -76.605 36.133 -51.855 32.101 -32.731 31.257 C -20.949 30.757 -11.825 20.789 -12.355 9.007 C -12.855 -2.743 -22.793 -11.869 -34.573 -11.369 C -77.385 -9.493 -106.85 3.787 -122.13 28.163 C -131.79 43.539 -133.63 59.943 -132.69 73.567 C -212.29 69.629 -266.25 35.287 -277.57 2.851 C -280.67 -6.036 -289.23 -11.84 -298.63 -11.431 C -299.54 -11.399 -300.47 -11.369 -301.38 -11.369 C -330.19 -11.369 -353.66 -30.525 -353.66 -54.057 C -353.66 -77.587 -330.19 -96.711 -301.38 -96.711 C -300.82 -96.711 -300.25 -96.679 -299.66 -96.679 C -294.63 -95.741 -279.82 -91.647 -274.13 -83.241 C -272.47 -80.835 -270.54 -76.617 -272.66 -68.023 C -275.47 -56.587 -268.47 -45.025 -257 -42.213 C -255.34 -41.806 -253.63 -41.596 -251.91 -41.589 C -242.32 -41.589 -233.6 -48.121 -231.22 -57.871 C -225.53 -81.025 -232.22 -97.495 -238.82 -107.21 C -246.13 -118 -256.35 -125.21 -266.07 -130.03 C -242.35 -157.68 -189.07 -182.06 -117.38 -182.06 C -114.01 -182.06 -110.6 -181.99 -106.92 -181.87 C -100.08 -181.62 -93.541 -184.68 -89.353 -190.09 C -52.823 -237.05 27.645 -267.36 115.675 -267.36 C 202.519 -267.36 281.983 -237.83 319.171 -191.98 C 326.547 -174.52 332.671 -145.8 323.639 -134.45 C 316.733 -125.77 296.889 -123.98 269.263 -129.61 C 257.701 -131.99 246.451 -124.52 244.107 -112.95 C 241.763 -101.42 249.201 -90.141 260.763 -87.797 C 274.075 -85.109 286.263 -83.735 297.263 -83.735 C 324.263 -83.735 344.325 -91.859 357.107 -107.98 C 370.325 -124.7 374.045 -147.89 368.139 -176.92 C 367.824 -178.45 367.491 -179.97 367.139 -181.48 C 445.015 -176.79 497.761 -142.95 508.917 -110.92 C 512.041 -102.05 520.605 -96.235 529.979 -96.641 C 530.885 -96.673 531.823 -96.703 532.729 -96.703 C 561.541 -96.703 585.011 -77.579 585.011 -54.049 C 585.011 -30.551 561.635 -11.457 532.885 -11.395 L 532.885 -11.395 Z" fill="#E6E9ED" p-id="2643" style="stroke-width: 1;"/><path d="M 35.895 350.925 C 35.739 350.925 18.709 352.113 0.395 350.363 C -22.949 348.113 -31.981 342.675 -33.667 340.675 C -33.635 337.799 -32.761 336.987 -32.043 336.363 C -25.887 330.739 -7.605 329.177 3.239 330.239 C 4.927 330.363 6.615 330.301 8.239 330.115 C 6.511 315.726 4.039 301.436 0.833 287.303 C -13.043 286.803 -42.103 287.927 -60.635 304.679 C -70.885 313.929 -76.323 326.429 -76.323 340.803 C -76.323 352.865 -71.511 363.741 -62.417 372.179 C -42.229 390.991 -2.575 394.055 21.331 394.055 C 29.487 394.055 35.799 393.743 38.893 393.493 C 50.643 392.681 59.487 382.493 58.675 370.743 C 57.833 358.989 47.645 350.113 35.895 350.925 L 35.895 350.925 Z M 291.983 304.677 C 273.389 287.865 244.233 286.739 230.393 287.301 C 227.193 301.413 224.731 315.683 223.017 330.051 C 224.673 330.301 226.393 330.363 228.111 330.239 C 238.955 329.177 257.233 330.739 263.389 336.363 C 264.107 336.987 264.951 337.739 264.983 340.675 C 263.295 342.737 254.265 348.113 230.955 350.363 C 212.643 352.113 195.611 350.925 195.487 350.925 C 183.714 350.088 173.495 358.963 172.675 370.737 C 171.863 382.487 180.707 392.675 192.457 393.487 C 195.551 393.737 201.863 394.049 210.019 394.049 C 233.925 394.049 273.609 390.987 293.765 372.173 C 302.859 363.735 307.671 352.861 307.671 340.797 C 307.671 326.427 302.233 313.927 291.983 304.677 L 291.983 304.677 Z" fill="#FFCE54" p-id="2644" style="stroke-width: 1;"/></g></svg>