<svg aria-roledescription="stateDiagram" role="graphics-document document" viewBox="0 0 231.9945068359375 1353.984619140625" style="" class="statediagram" xmlns="http://www.w3.org/2000/svg" width="216" height="1338"  id="render_svg_1937"><style>#render_svg_1937{font-family:"trebuchet ms",verdana,arial,sans-serif;font-size:16px;fill:#333;}@keyframes edge-animation-frame{from{stroke-dashoffset:0;}}@keyframes dash{to{stroke-dashoffset:0;}}#render_svg_1937 .edge-animation-slow{stroke-dasharray:9,5!important;stroke-dashoffset:900;animation:dash 50s linear infinite;stroke-linecap:round;}#render_svg_1937 .edge-animation-fast{stroke-dasharray:9,5!important;stroke-dashoffset:900;animation:dash 20s linear infinite;stroke-linecap:round;}#render_svg_1937 .error-icon{fill:#552222;}#render_svg_1937 .error-text{fill:#552222;stroke:#552222;}#render_svg_1937 .edge-thickness-normal{stroke-width:1px;}#render_svg_1937 .edge-thickness-thick{stroke-width:3.5px;}#render_svg_1937 .edge-pattern-solid{stroke-dasharray:0;}#render_svg_1937 .edge-thickness-invisible{stroke-width:0;fill:none;}#render_svg_1937 .edge-pattern-dashed{stroke-dasharray:3;}#render_svg_1937 .edge-pattern-dotted{stroke-dasharray:2;}#render_svg_1937 .marker{fill:#333333;stroke:#333333;}#render_svg_1937 .marker.cross{stroke:#333333;}#render_svg_1937 svg{font-family:"trebuchet ms",verdana,arial,sans-serif;font-size:16px;}#render_svg_1937 p{margin:0;}#render_svg_1937 defs #statediagram-barbEnd{fill:#333333;stroke:#333333;}#render_svg_1937 g.stateGroup text{fill:#9370DB;stroke:none;font-size:10px;}#render_svg_1937 g.stateGroup text{fill:#333;stroke:none;font-size:10px;}#render_svg_1937 g.stateGroup .state-title{font-weight:bolder;fill:#131300;}#render_svg_1937 g.stateGroup rect{fill:#ECECFF;stroke:#9370DB;}#render_svg_1937 g.stateGroup line{stroke:#333333;stroke-width:1;}#render_svg_1937 .transition{stroke:#333333;stroke-width:1;fill:none;}#render_svg_1937 .stateGroup .composit{fill:white;border-bottom:1px;}#render_svg_1937 .stateGroup .alt-composit{fill:#e0e0e0;border-bottom:1px;}#render_svg_1937 .state-note{stroke:#aaaa33;fill:#fff5ad;}#render_svg_1937 .state-note text{fill:black;stroke:none;font-size:10px;}#render_svg_1937 .stateLabel .box{stroke:none;stroke-width:0;fill:#ECECFF;opacity:0.5;}#render_svg_1937 .edgeLabel .label rect{fill:#ECECFF;opacity:0.5;}#render_svg_1937 .edgeLabel{background-color:rgba(232,232,232, 0.8);text-align:center;}#render_svg_1937 .edgeLabel p{background-color:rgba(232,232,232, 0.8);}#render_svg_1937 .edgeLabel rect{opacity:0.5;background-color:rgba(232,232,232, 0.8);fill:rgba(232,232,232, 0.8);}#render_svg_1937 .edgeLabel .label text{fill:#333;}#render_svg_1937 .label div .edgeLabel{color:#333;}#render_svg_1937 .stateLabel text{fill:#131300;font-size:10px;font-weight:bold;}#render_svg_1937 .node circle.state-start{fill:#333333;stroke:#333333;}#render_svg_1937 .node .fork-join{fill:#333333;stroke:#333333;}#render_svg_1937 .node circle.state-end{fill:#9370DB;stroke:white;stroke-width:1.5;}#render_svg_1937 .end-state-inner{fill:white;stroke-width:1.5;}#render_svg_1937 .node rect{fill:#ECECFF;stroke:#9370DB;stroke-width:1px;}#render_svg_1937 .node polygon{fill:#ECECFF;stroke:#9370DB;stroke-width:1px;}#render_svg_1937 #statediagram-barbEnd{fill:#333333;}#render_svg_1937 .statediagram-cluster rect{fill:#ECECFF;stroke:#9370DB;stroke-width:1px;}#render_svg_1937 .cluster-label,#render_svg_1937 .nodeLabel{color:#131300;}#render_svg_1937 .statediagram-cluster rect.outer{rx:5px;ry:5px;}#render_svg_1937 .statediagram-state .divider{stroke:#9370DB;}#render_svg_1937 .statediagram-state .title-state{rx:5px;ry:5px;}#render_svg_1937 .statediagram-cluster.statediagram-cluster .inner{fill:white;}#render_svg_1937 .statediagram-cluster.statediagram-cluster-alt .inner{fill:#f0f0f0;}#render_svg_1937 .statediagram-cluster .inner{rx:0;ry:0;}#render_svg_1937 .statediagram-state rect.basic{rx:5px;ry:5px;}#render_svg_1937 .statediagram-state rect.divider{stroke-dasharray:10,10;fill:#f0f0f0;}#render_svg_1937 .note-edge{stroke-dasharray:5;}#render_svg_1937 .statediagram-note rect{fill:#fff5ad;stroke:#aaaa33;stroke-width:1px;rx:0;ry:0;}#render_svg_1937 .statediagram-note rect{fill:#fff5ad;stroke:#aaaa33;stroke-width:1px;rx:0;ry:0;}#render_svg_1937 .statediagram-note text{fill:black;}#render_svg_1937 .statediagram-note .nodeLabel{color:black;}#render_svg_1937 .statediagram .edgeLabel{color:red;}#render_svg_1937 #dependencyStart,#render_svg_1937 #dependencyEnd{fill:#333333;stroke:#333333;stroke-width:1;}#render_svg_1937 .statediagramTitleText{text-anchor:middle;font-size:18px;fill:#333;}#render_svg_1937 :root{--mermaid-font-family:"trebuchet ms",verdana,arial,sans-serif;}</style><g><defs><marker orient="auto" markerUnits="userSpaceOnUse" markerHeight="14" markerWidth="20" refY="7" refX="19" id="render_svg_1937_stateDiagram-barbEnd"><path d="M 19,7 L9,13 L14,7 L9,1 Z"/></marker></defs><g class="root"><g class="clusters"/><g class="edgePaths"><path marker-end="url(#render_svg_1937_stateDiagram-barbEnd)" style="fill:none;" class="edge-thickness-normal edge-pattern-solid transition" id="edge0" d="M115.997,22L115.997,26.167C115.997,30.333,115.997,38.667,115.997,47C115.997,55.333,115.997,63.667,115.997,67.833L115.997,72"/><path marker-end="url(#render_svg_1937_stateDiagram-barbEnd)" style="fill:none;" class="edge-thickness-normal edge-pattern-solid transition" id="edge1" d="M115.997,111.999L115.997,116.166C115.997,120.332,115.997,128.666,115.997,136.999C115.997,145.332,115.997,153.666,115.997,157.832L115.997,161.999"/><path marker-end="url(#render_svg_1937_stateDiagram-barbEnd)" style="fill:none;" class="edge-thickness-normal edge-pattern-solid transition" id="edge2" d="M115.997,201.998L115.997,206.164C115.997,210.331,115.997,218.664,115.997,226.998C115.997,235.331,115.997,243.664,115.997,247.831L115.997,251.998"/><path marker-end="url(#render_svg_1937_stateDiagram-barbEnd)" style="fill:none;" class="edge-thickness-normal edge-pattern-solid transition" id="edge3" d="M115.997,291.997L115.997,296.163C115.997,300.33,115.997,308.663,115.997,316.997C115.997,325.33,115.997,333.663,115.997,337.83L115.997,341.997"/><path marker-end="url(#render_svg_1937_stateDiagram-barbEnd)" style="fill:none;" class="edge-thickness-normal edge-pattern-solid transition" id="edge4" d="M115.997,381.996L115.997,386.162C115.997,390.329,115.997,398.662,115.997,406.996C115.997,415.329,115.997,423.662,115.997,427.829L115.997,431.996"/><path marker-end="url(#render_svg_1937_stateDiagram-barbEnd)" style="fill:none;" class="edge-thickness-normal edge-pattern-solid transition" id="edge5" d="M115.997,471.994L115.997,476.161C115.997,480.328,115.997,488.661,115.997,496.994C115.997,505.328,115.997,513.661,115.997,517.828L115.997,521.994"/><path marker-end="url(#render_svg_1937_stateDiagram-barbEnd)" style="fill:none;" class="edge-thickness-normal edge-pattern-solid transition" id="edge6" d="M115.997,561.993L115.997,566.16C115.997,570.327,115.997,578.66,115.997,586.993C115.997,595.327,115.997,603.66,115.997,607.827L115.997,611.993"/><path marker-end="url(#render_svg_1937_stateDiagram-barbEnd)" style="fill:none;" class="edge-thickness-normal edge-pattern-solid transition" id="edge7" d="M115.997,651.992L115.997,656.159C115.997,660.326,115.997,668.659,115.997,676.992C115.997,685.326,115.997,693.659,115.997,697.826L115.997,701.992"/><path marker-end="url(#render_svg_1937_stateDiagram-barbEnd)" style="fill:none;" class="edge-thickness-normal edge-pattern-solid transition" id="edge8" d="M115.997,741.991L115.997,746.158C115.997,750.325,115.997,758.658,115.997,766.991C115.997,775.325,115.997,783.658,115.997,787.825L115.997,791.991"/><path marker-end="url(#render_svg_1937_stateDiagram-barbEnd)" style="fill:none;" class="edge-thickness-normal edge-pattern-solid transition" id="edge9" d="M115.997,831.99L115.997,836.157C115.997,840.323,115.997,848.657,115.997,856.99C115.997,865.323,115.997,873.657,115.997,877.823L115.997,881.99"/><path marker-end="url(#render_svg_1937_stateDiagram-barbEnd)" style="fill:none;" class="edge-thickness-normal edge-pattern-solid transition" id="edge10" d="M115.997,921.989L115.997,926.156C115.997,930.322,115.997,938.656,115.997,946.989C115.997,955.322,115.997,963.656,115.997,967.822L115.997,971.989"/><path marker-end="url(#render_svg_1937_stateDiagram-barbEnd)" style="fill:none;" class="edge-thickness-normal edge-pattern-solid transition" id="edge11" d="M115.997,1011.988L115.997,1016.155C115.997,1020.321,115.997,1028.655,115.997,1036.988C115.997,1045.321,115.997,1053.655,115.997,1057.821L115.997,1061.988"/><path marker-end="url(#render_svg_1937_stateDiagram-barbEnd)" style="fill:none;" class="edge-thickness-normal edge-pattern-solid transition" id="edge12" d="M115.997,1101.987L115.997,1106.153C115.997,1110.32,115.997,1118.653,115.997,1126.987C115.997,1135.32,115.997,1143.653,115.997,1147.82L115.997,1151.987"/><path marker-end="url(#render_svg_1937_stateDiagram-barbEnd)" style="fill:none;" class="edge-thickness-normal edge-pattern-solid transition" id="edge13" d="M115.997,1191.986L115.997,1196.152C115.997,1200.319,115.997,1208.652,115.997,1216.986C115.997,1225.319,115.997,1233.652,115.997,1237.819L115.997,1241.986"/><path marker-end="url(#render_svg_1937_stateDiagram-barbEnd)" style="fill:none;" class="edge-thickness-normal edge-pattern-solid transition" id="edge14" d="M115.997,1281.985L115.997,1286.151C115.997,1290.318,115.997,1298.651,115.997,1306.985C115.997,1315.318,115.997,1323.651,115.997,1327.818L115.997,1331.985"/></g><g class="edgeLabels"><g class="edgeLabel"><g transform="translate(0, 0)" class="label"><foreignObject height="0" width="0"><div style="display: table-cell; white-space: nowrap; line-height: 1.5; max-width: 200px; text-align: center;" class="labelBkg" xmlns="http://www.w3.org/1999/xhtml"><span class="edgeLabel"></span></div></foreignObject></g></g><g class="edgeLabel"><g transform="translate(0, 0)" class="label"><foreignObject height="0" width="0"><div style="display: table-cell; white-space: nowrap; line-height: 1.5; max-width: 200px; text-align: center;" class="labelBkg" xmlns="http://www.w3.org/1999/xhtml"><span class="edgeLabel"></span></div></foreignObject></g></g><g class="edgeLabel"><g transform="translate(0, 0)" class="label"><foreignObject height="0" width="0"><div style="display: table-cell; white-space: nowrap; line-height: 1.5; max-width: 200px; text-align: center;" class="labelBkg" xmlns="http://www.w3.org/1999/xhtml"><span class="edgeLabel"></span></div></foreignObject></g></g><g class="edgeLabel"><g transform="translate(0, 0)" class="label"><foreignObject height="0" width="0"><div style="display: table-cell; white-space: nowrap; line-height: 1.5; max-width: 200px; text-align: center;" class="labelBkg" xmlns="http://www.w3.org/1999/xhtml"><span class="edgeLabel"></span></div></foreignObject></g></g><g class="edgeLabel"><g transform="translate(0, 0)" class="label"><foreignObject height="0" width="0"><div style="display: table-cell; white-space: nowrap; line-height: 1.5; max-width: 200px; text-align: center;" class="labelBkg" xmlns="http://www.w3.org/1999/xhtml"><span class="edgeLabel"></span></div></foreignObject></g></g><g class="edgeLabel"><g transform="translate(0, 0)" class="label"><foreignObject height="0" width="0"><div style="display: table-cell; white-space: nowrap; line-height: 1.5; max-width: 200px; text-align: center;" class="labelBkg" xmlns="http://www.w3.org/1999/xhtml"><span class="edgeLabel"></span></div></foreignObject></g></g><g class="edgeLabel"><g transform="translate(0, 0)" class="label"><foreignObject height="0" width="0"><div style="display: table-cell; white-space: nowrap; line-height: 1.5; max-width: 200px; text-align: center;" class="labelBkg" xmlns="http://www.w3.org/1999/xhtml"><span class="edgeLabel"></span></div></foreignObject></g></g><g class="edgeLabel"><g transform="translate(0, 0)" class="label"><foreignObject height="0" width="0"><div style="display: table-cell; white-space: nowrap; line-height: 1.5; max-width: 200px; text-align: center;" class="labelBkg" xmlns="http://www.w3.org/1999/xhtml"><span class="edgeLabel"></span></div></foreignObject></g></g><g class="edgeLabel"><g transform="translate(0, 0)" class="label"><foreignObject height="0" width="0"><div style="display: table-cell; white-space: nowrap; line-height: 1.5; max-width: 200px; text-align: center;" class="labelBkg" xmlns="http://www.w3.org/1999/xhtml"><span class="edgeLabel"></span></div></foreignObject></g></g><g class="edgeLabel"><g transform="translate(0, 0)" class="label"><foreignObject height="0" width="0"><div style="display: table-cell; white-space: nowrap; line-height: 1.5; max-width: 200px; text-align: center;" class="labelBkg" xmlns="http://www.w3.org/1999/xhtml"><span class="edgeLabel"></span></div></foreignObject></g></g><g class="edgeLabel"><g transform="translate(0, 0)" class="label"><foreignObject height="0" width="0"><div style="display: table-cell; white-space: nowrap; line-height: 1.5; max-width: 200px; text-align: center;" class="labelBkg" xmlns="http://www.w3.org/1999/xhtml"><span class="edgeLabel"></span></div></foreignObject></g></g><g class="edgeLabel"><g transform="translate(0, 0)" class="label"><foreignObject height="0" width="0"><div style="display: table-cell; white-space: nowrap; line-height: 1.5; max-width: 200px; text-align: center;" class="labelBkg" xmlns="http://www.w3.org/1999/xhtml"><span class="edgeLabel"></span></div></foreignObject></g></g><g class="edgeLabel"><g transform="translate(0, 0)" class="label"><foreignObject height="0" width="0"><div style="display: table-cell; white-space: nowrap; line-height: 1.5; max-width: 200px; text-align: center;" class="labelBkg" xmlns="http://www.w3.org/1999/xhtml"><span class="edgeLabel"></span></div></foreignObject></g></g><g class="edgeLabel"><g transform="translate(0, 0)" class="label"><foreignObject height="0" width="0"><div style="display: table-cell; white-space: nowrap; line-height: 1.5; max-width: 200px; text-align: center;" class="labelBkg" xmlns="http://www.w3.org/1999/xhtml"><span class="edgeLabel"></span></div></foreignObject></g></g><g class="edgeLabel"><g transform="translate(0, 0)" class="label"><foreignObject height="0" width="0"><div style="display: table-cell; white-space: nowrap; line-height: 1.5; max-width: 200px; text-align: center;" class="labelBkg" xmlns="http://www.w3.org/1999/xhtml"><span class="edgeLabel"></span></div></foreignObject></g></g></g><g class="nodes"><g transform="translate(115.99725341796875, 91.9994478225708)" id="state-input_params-1" class="node  statediagram-state"><rect height="39.99889945983887" width="215.9945068359375" y="-19.999449729919434" x="-107.99725341796875" ry="5" rx="5" style="" class="basic label-container"/><g transform="translate(-99.99725341796875, -11.999449729919434)" style="" class="label"><rect/><foreignObject height="23.998899459838867" width="199.9945068359375"><div style="display: table-cell; white-space: nowrap; line-height: 1.5; max-width: 200px; text-align: center;" xmlns="http://www.w3.org/1999/xhtml"><span class="nodeLabel"><p>用户提供参数(宽度: 1480px, 高度: 720px, dpi: 320)</p></span></div></foreignObject></g></g><g transform="translate(115.99725341796875, 181.99834537506104)" id="state-build_environment-2" class="node  statediagram-state"><rect height="39.99889945983887" width="143.96470642089844" y="-19.999449729919434" x="-71.98235321044922" ry="5" rx="5" style="" class="basic label-container"/><g transform="translate(-63.98235321044922, -11.999449729919434)" style="" class="label"><rect/><foreignObject height="23.998899459838867" width="127.96470642089844"><div style="display: table-cell; white-space: nowrap; line-height: 1.5; max-width: 200px; text-align: center;" xmlns="http://www.w3.org/1999/xhtml"><span class="nodeLabel"><p>构建核心模拟环境</p></span></div></foreignObject></g></g><g transform="translate(115.99725341796875, 271.99724292755127)" id="state-create_override_config-3" class="node  statediagram-state"><rect height="39.99889945983887" width="197.16934204101562" y="-19.999449729919434" x="-98.58467102050781" ry="5" rx="5" style="" class="basic label-container"/><g transform="translate(-90.58467102050781, -11.999449729919434)" style="" class="label"><rect/><foreignObject height="23.998899459838867" width="181.16934204101562"><div style="display: table-cell; white-space: nowrap; line-height: 1.5; max-width: 200px; text-align: center;" xmlns="http://www.w3.org/1999/xhtml"><span class="nodeLabel"><p>创建Override Config配置</p></span></div></foreignObject></g></g><g transform="translate(115.99725341796875, 361.9961404800415)" id="state-set_density_dpi-4" class="node  statediagram-state"><rect height="39.99889945983887" width="143.96470642089844" y="-19.999449729919434" x="-71.98235321044922" ry="5" rx="5" style="" class="basic label-container"/><g transform="translate(-63.98235321044922, -11.999449729919434)" style="" class="label"><rect/><foreignObject height="23.998899459838867" width="127.96470642089844"><div style="display: table-cell; white-space: nowrap; line-height: 1.5; max-width: 200px; text-align: center;" xmlns="http://www.w3.org/1999/xhtml"><span class="nodeLabel"><p>设置屏幕像素密度</p></span></div></foreignObject></g></g><g transform="translate(115.99725341796875, 451.99503803253174)" id="state-calculate_dp-5" class="node  statediagram-state"><rect height="39.99889945983887" width="83.13734436035156" y="-19.999449729919434" x="-41.56867218017578" ry="5" rx="5" style="" class="basic label-container"/><g transform="translate(-33.56867218017578, -11.999449729919434)" style="" class="label"><rect/><foreignObject height="23.998899459838867" width="67.13734436035156"><div style="display: table-cell; white-space: nowrap; line-height: 1.5; max-width: 200px; text-align: center;" xmlns="http://www.w3.org/1999/xhtml"><span class="nodeLabel"><p>计算dp值</p></span></div></foreignObject></g></g><g transform="translate(115.99725341796875, 541.993935585022)" id="state-create_simulated_context-6" class="node  statediagram-state"><rect height="39.99889945983887" width="179.12742614746094" y="-19.999449729919434" x="-89.56371307373047" ry="5" rx="5" style="" class="basic label-container"/><g transform="translate(-81.56371307373047, -11.999449729919434)" style="" class="label"><rect/><foreignObject height="23.998899459838867" width="163.12742614746094"><div style="display: table-cell; white-space: nowrap; line-height: 1.5; max-width: 200px; text-align: center;" xmlns="http://www.w3.org/1999/xhtml"><span class="nodeLabel"><p>创建SimulatedContext</p></span></div></foreignObject></g></g><g transform="translate(115.99725341796875, 631.9928331375122)" id="state-get_layout_inflater-7" class="node  statediagram-state"><rect height="39.99889945983887" width="149.789306640625" y="-19.999449729919434" x="-74.8946533203125" ry="5" rx="5" style="" class="basic label-container"/><g transform="translate(-66.8946533203125, -11.999449729919434)" style="" class="label"><rect/><foreignObject height="23.998899459838867" width="133.789306640625"><div style="display: table-cell; white-space: nowrap; line-height: 1.5; max-width: 200px; text-align: center;" xmlns="http://www.w3.org/1999/xhtml"><span class="nodeLabel"><p>获取LayoutInflater</p></span></div></foreignObject></g></g><g transform="translate(115.99725341796875, 721.9917306900024)" id="state-render_output-8" class="node  statediagram-state"><rect height="39.99889945983887" width="127.96912384033203" y="-19.999449729919434" x="-63.984561920166016" ry="5" rx="5" style="" class="basic label-container"/><g transform="translate(-55.984561920166016, -11.999449729919434)" style="" class="label"><rect/><foreignObject height="23.998899459838867" width="111.96912384033203"><div style="display: table-cell; white-space: nowrap; line-height: 1.5; max-width: 200px; text-align: center;" xmlns="http://www.w3.org/1999/xhtml"><span class="nodeLabel"><p>视图渲染与输出</p></span></div></foreignObject></g></g><g transform="translate(115.99725341796875, 811.9906282424927)" id="state-inflate_view-9" class="node  statediagram-state"><rect height="39.99889945983887" width="206.00001525878906" y="-19.999449729919434" x="-103.00000762939453" ry="5" rx="5" style="" class="basic label-container"/><g transform="translate(-95.00000762939453, -11.999449729919434)" style="" class="label"><rect/><foreignObject height="23.998899459838867" width="190.00001525878906"><div style="display: table-cell; white-space: nowrap; line-height: 1.5; max-width: 200px; text-align: center;" xmlns="http://www.w3.org/1999/xhtml"><span class="nodeLabel"><p>从布局资源Inflate目标视图</p></span></div></foreignObject></g></g><g transform="translate(115.99725341796875, 901.9895257949829)" id="state-execute_layout-10" class="node  statediagram-state"><rect height="39.99889945983887" width="143.96470642089844" y="-19.999449729919434" x="-71.98235321044922" ry="5" rx="5" style="" class="basic label-container"/><g transform="translate(-63.98235321044922, -11.999449729919434)" style="" class="label"><rect/><foreignObject height="23.998899459838867" width="127.96470642089844"><div style="display: table-cell; white-space: nowrap; line-height: 1.5; max-width: 200px; text-align: center;" xmlns="http://www.w3.org/1999/xhtml"><span class="nodeLabel"><p>执行视图布局过程</p></span></div></foreignObject></g></g><g transform="translate(115.99725341796875, 991.9884233474731)" id="state-confirm_measurement-11" class="node  statediagram-state"><rect height="39.99889945983887" width="111.9735336303711" y="-19.999449729919434" x="-55.98676681518555" ry="5" rx="5" style="" class="basic label-container"/><g transform="translate(-47.98676681518555, -11.999449729919434)" style="" class="label"><rect/><foreignObject height="23.998899459838867" width="95.9735336303711"><div style="display: table-cell; white-space: nowrap; line-height: 1.5; max-width: 200px; text-align: center;" xmlns="http://www.w3.org/1999/xhtml"><span class="nodeLabel"><p>确认测量结果</p></span></div></foreignObject></g></g><g transform="translate(115.99725341796875, 1081.9873208999634)" id="state-get_canvas-12" class="node  statediagram-state"><rect height="39.99889945983887" width="161.87977600097656" y="-19.999449729919434" x="-80.93988800048828" ry="5" rx="5" style="" class="basic label-container"/><g transform="translate(-72.93988800048828, -11.999449729919434)" style="" class="label"><rect/><foreignObject height="23.998899459838867" width="145.87977600097656"><div style="display: table-cell; white-space: nowrap; line-height: 1.5; max-width: 200px; text-align: center;" xmlns="http://www.w3.org/1999/xhtml"><span class="nodeLabel"><p>获取ViewGroup画布</p></span></div></foreignObject></g></g><g transform="translate(115.99725341796875, 1171.9862184524536)" id="state-set_layout_params-13" class="node  statediagram-state"><rect height="39.99889945983887" width="151.72532653808594" y="-19.999449729919434" x="-75.86266326904297" ry="5" rx="5" style="" class="basic label-container"/><g transform="translate(-67.86266326904297, -11.999449729919434)" style="" class="label"><rect/><foreignObject height="23.998899459838867" width="135.72532653808594"><div style="display: table-cell; white-space: nowrap; line-height: 1.5; max-width: 200px; text-align: center;" xmlns="http://www.w3.org/1999/xhtml"><span class="nodeLabel"><p>设置LayoutParams</p></span></div></foreignObject></g></g><g transform="translate(115.99725341796875, 1261.9851160049438)" id="state-add_view_to_canvas-14" class="node  statediagram-state"><rect height="39.99889945983887" width="180.19747924804688" y="-19.999449729919434" x="-90.09873962402344" ry="5" rx="5" style="" class="basic label-container"/><g transform="translate(-82.09873962402344, -11.999449729919434)" style="" class="label"><rect/><foreignObject height="23.998899459838867" width="164.19747924804688"><div style="display: table-cell; white-space: nowrap; line-height: 1.5; max-width: 200px; text-align: center;" xmlns="http://www.w3.org/1999/xhtml"><span class="nodeLabel"><p>将View加入画布并显示</p></span></div></foreignObject></g></g><g transform="translate(115.99725341796875, 14.999999523162842)" id="state-root_start-0" class="node default"><circle height="14" width="14" r="7" class="state-start"/></g><g transform="translate(115.99725341796875, 1338.984564781189)" id="state-root_end-14" class="node default"><g><path style="" fill="#ECECFF" stroke-width="0" stroke="none" d="M7 0 C7 0.40517908122283747, 6.964012880168563 0.816513743121899, 6.893654271085456 1.2155372436685123 C6.823295662002349 1.6145607442151257, 6.716427752933756 2.013397210557766, 6.5778483455013586 2.394141003279681 C6.439268938068961 2.7748847960015954, 6.26476736710249 3.149104622578984, 6.062177826491071 3.4999999999999996 C5.859588285879653 3.8508953774210153, 5.622755194947063 4.189128084166967, 5.362311101832846 4.499513267805774 C5.10186700871863 4.809898451444582, 4.809898451444583 5.10186700871863, 4.499513267805775 5.362311101832846 C4.189128084166968 5.622755194947063, 3.8508953774210166 5.859588285879652, 3.500000000000001 6.06217782649107 C3.149104622578985 6.264767367102489, 2.7748847960015963 6.439268938068961, 2.3941410032796817 6.5778483455013586 C2.013397210557767 6.716427752933756, 1.6145607442151264 6.823295662002349, 1.2155372436685128 6.893654271085456 C0.8165137431218992 6.964012880168563, 0.4051790812228379 7, 4.286263797015736e-16 7 C-0.405179081222837 7, -0.8165137431218985 6.964012880168563, -1.2155372436685121 6.893654271085456 C-1.6145607442151257 6.823295662002349, -2.0133972105577667 6.716427752933756, -2.394141003279681 6.5778483455013586 C-2.774884796001595 6.439268938068961, -3.149104622578983 6.26476736710249, -3.4999999999999982 6.062177826491071 C-3.8508953774210135 5.859588285879653, -4.189128084166966 5.6227551949470636, -4.499513267805773 5.362311101832848 C-4.809898451444581 5.101867008718632, -5.101867008718628 4.809898451444586, -5.3623111018328435 4.499513267805779 C-5.622755194947059 4.189128084166971, -5.859588285879649 3.8508953774210206, -6.062177826491068 3.5000000000000053 C-6.264767367102486 3.14910462257899, -6.439268938068958 2.774884796001602, -6.577848345501356 2.394141003279688 C-6.716427752933754 2.0133972105577738, -6.823295662002347 1.614560744215134, -6.893654271085454 1.215537243668521 C-6.9640128801685615 0.816513743121908, -6.999999999999999 0.4051790812228472, -7 1.0183126166254463e-14 C-7.000000000000001 -0.40517908122282686, -6.964012880168565 -0.8165137431218878, -6.893654271085459 -1.215537243668501 C-6.823295662002352 -1.6145607442151142, -6.716427752933759 -2.0133972105577542, -6.577848345501363 -2.394141003279669 C-6.439268938068967 -2.7748847960015834, -6.264767367102496 -3.149104622578972, -6.062177826491078 -3.4999999999999876 C-5.859588285879661 -3.8508953774210033, -5.6227551949470715 -4.1891280841669545, -5.362311101832856 -4.499513267805763 C-5.10186700871864 -4.809898451444571, -4.809898451444594 -5.10186700871862, -4.499513267805787 -5.362311101832836 C-4.189128084166979 -5.622755194947053, -3.850895377421028 -5.859588285879643, -3.5000000000000133 -6.062177826491062 C-3.1491046225789985 -6.264767367102482, -2.774884796001611 -6.439268938068954, -2.3941410032796973 -6.577848345501353 C-2.0133972105577835 -6.716427752933752, -1.6145607442151435 -6.823295662002345, -1.2155372436685306 -6.893654271085453 C-0.8165137431219176 -6.9640128801685615, -0.40517908122285695 -6.999999999999999, -1.9937625952807352e-14 -7 C0.4051790812228171 -7.000000000000001, 0.8165137431218781 -6.964012880168565, 1.2155372436684913 -6.89365427108546 C1.6145607442151044 -6.823295662002354, 2.013397210557745 -6.716427752933763, 2.3941410032796595 -6.5778483455013665 C2.774884796001574 -6.43926893806897, 3.149104622578963 -6.2647673671025, 3.499999999999979 -6.062177826491083 C3.8508953774209953 -5.859588285879665, 4.189128084166947 -5.622755194947077, 4.499513267805756 -5.362311101832862 C4.809898451444564 -5.1018670087186475, 5.101867008718613 -4.809898451444602, 5.362311101832829 -4.499513267805796 C5.622755194947046 -4.189128084166989, 5.859588285879637 -3.8508953774210393, 6.062177826491056 -3.500000000000025 C6.2647673671024755 -3.1491046225790105, 6.439268938068949 -2.774884796001623, 6.577848345501348 -2.3941410032797092 C6.716427752933747 -2.0133972105577955, 6.823295662002342 -1.6145607442151562, 6.893654271085451 -1.2155372436685434 C6.96401288016856 -0.8165137431219307, 6.982275711847575 -0.2025895406114567, 7 -3.2800750208310675e-14 C7.017724288152425 0.2025895406113911, 7.017724288152424 -0.2025895406114242, 7 0"/><path style="" fill="none" stroke-width="2" stroke="#333333" d="M7 0 C7 0.40517908122283747, 6.964012880168563 0.816513743121899, 6.893654271085456 1.2155372436685123 C6.823295662002349 1.6145607442151257, 6.716427752933756 2.013397210557766, 6.5778483455013586 2.394141003279681 C6.439268938068961 2.7748847960015954, 6.26476736710249 3.149104622578984, 6.062177826491071 3.4999999999999996 C5.859588285879653 3.8508953774210153, 5.622755194947063 4.189128084166967, 5.362311101832846 4.499513267805774 C5.10186700871863 4.809898451444582, 4.809898451444583 5.10186700871863, 4.499513267805775 5.362311101832846 C4.189128084166968 5.622755194947063, 3.8508953774210166 5.859588285879652, 3.500000000000001 6.06217782649107 C3.149104622578985 6.264767367102489, 2.7748847960015963 6.439268938068961, 2.3941410032796817 6.5778483455013586 C2.013397210557767 6.716427752933756, 1.6145607442151264 6.823295662002349, 1.2155372436685128 6.893654271085456 C0.8165137431218992 6.964012880168563, 0.4051790812228379 7, 4.286263797015736e-16 7 C-0.405179081222837 7, -0.8165137431218985 6.964012880168563, -1.2155372436685121 6.893654271085456 C-1.6145607442151257 6.823295662002349, -2.0133972105577667 6.716427752933756, -2.394141003279681 6.5778483455013586 C-2.774884796001595 6.439268938068961, -3.149104622578983 6.26476736710249, -3.4999999999999982 6.062177826491071 C-3.8508953774210135 5.859588285879653, -4.189128084166966 5.6227551949470636, -4.499513267805773 5.362311101832848 C-4.809898451444581 5.101867008718632, -5.101867008718628 4.809898451444586, -5.3623111018328435 4.499513267805779 C-5.622755194947059 4.189128084166971, -5.859588285879649 3.8508953774210206, -6.062177826491068 3.5000000000000053 C-6.264767367102486 3.14910462257899, -6.439268938068958 2.774884796001602, -6.577848345501356 2.394141003279688 C-6.716427752933754 2.0133972105577738, -6.823295662002347 1.614560744215134, -6.893654271085454 1.215537243668521 C-6.9640128801685615 0.816513743121908, -6.999999999999999 0.4051790812228472, -7 1.0183126166254463e-14 C-7.000000000000001 -0.40517908122282686, -6.964012880168565 -0.8165137431218878, -6.893654271085459 -1.215537243668501 C-6.823295662002352 -1.6145607442151142, -6.716427752933759 -2.0133972105577542, -6.577848345501363 -2.394141003279669 C-6.439268938068967 -2.7748847960015834, -6.264767367102496 -3.149104622578972, -6.062177826491078 -3.4999999999999876 C-5.859588285879661 -3.8508953774210033, -5.6227551949470715 -4.1891280841669545, -5.362311101832856 -4.499513267805763 C-5.10186700871864 -4.809898451444571, -4.809898451444594 -5.10186700871862, -4.499513267805787 -5.362311101832836 C-4.189128084166979 -5.622755194947053, -3.850895377421028 -5.859588285879643, -3.5000000000000133 -6.062177826491062 C-3.1491046225789985 -6.264767367102482, -2.774884796001611 -6.439268938068954, -2.3941410032796973 -6.577848345501353 C-2.0133972105577835 -6.716427752933752, -1.6145607442151435 -6.823295662002345, -1.2155372436685306 -6.893654271085453 C-0.8165137431219176 -6.9640128801685615, -0.40517908122285695 -6.999999999999999, -1.9937625952807352e-14 -7 C0.4051790812228171 -7.000000000000001, 0.8165137431218781 -6.964012880168565, 1.2155372436684913 -6.89365427108546 C1.6145607442151044 -6.823295662002354, 2.013397210557745 -6.716427752933763, 2.3941410032796595 -6.5778483455013665 C2.774884796001574 -6.43926893806897, 3.149104622578963 -6.2647673671025, 3.499999999999979 -6.062177826491083 C3.8508953774209953 -5.859588285879665, 4.189128084166947 -5.622755194947077, 4.499513267805756 -5.362311101832862 C4.809898451444564 -5.1018670087186475, 5.101867008718613 -4.809898451444602, 5.362311101832829 -4.499513267805796 C5.622755194947046 -4.189128084166989, 5.859588285879637 -3.8508953774210393, 6.062177826491056 -3.500000000000025 C6.2647673671024755 -3.1491046225790105, 6.439268938068949 -2.774884796001623, 6.577848345501348 -2.3941410032797092 C6.716427752933747 -2.0133972105577955, 6.823295662002342 -1.6145607442151562, 6.893654271085451 -1.2155372436685434 C6.96401288016856 -0.8165137431219307, 6.982275711847575 -0.2025895406114567, 7 -3.2800750208310675e-14 C7.017724288152425 0.2025895406113911, 7.017724288152424 -0.2025895406114242, 7 0"/><g><path style="" fill="#9370DB" stroke-width="0" stroke="none" d="M2.5 0 C2.5 0.14470681472244193, 2.487147457203058 0.29161205111496386, 2.46201938253052 0.4341204441673258 C2.436891307857982 0.5766288372196877, 2.3987241974763416 0.7190704323420595, 2.3492315519647713 0.8550503583141718 C2.299738906453201 0.991030284286284, 2.2374169168223177 1.124680222349637, 2.165063509461097 1.2499999999999998 C2.092710102099876 1.3753197776503625, 2.0081268553382365 1.496117172916774, 1.915111107797445 1.6069690242163481 C1.8220953602566536 1.7178208755159223, 1.7178208755159226 1.8220953602566536, 1.6069690242163484 1.915111107797445 C1.4961171729167742 2.0081268553382365, 1.375319777650363 2.0927101020998755, 1.2500000000000002 2.1650635094610964 C1.1246802223496375 2.2374169168223172, 0.9910302842862845 2.2997389064532, 0.8550503583141721 2.349231551964771 C0.7190704323420597 2.3987241974763416, 0.576628837219688 2.436891307857982, 0.43412044416732604 2.46201938253052 C0.291612051114964 2.487147457203058, 0.14470681472244212 2.5, 1.5308084989341916e-16 2.5 C-0.1447068147224418 2.5, -0.2916120511149638 2.487147457203058, -0.43412044416732576 2.46201938253052 C-0.5766288372196877 2.436891307857982, -0.7190704323420595 2.3987241974763416, -0.8550503583141718 2.3492315519647713 C-0.991030284286284 2.299738906453201, -1.124680222349637 2.2374169168223177, -1.2499999999999996 2.165063509461097 C-1.375319777650362 2.092710102099876, -1.4961171729167733 2.008126855338237, -1.6069690242163475 1.9151111077974459 C-1.7178208755159217 1.8220953602566548, -1.822095360256653 1.7178208755159234, -1.9151111077974443 1.6069690242163495 C-2.0081268553382357 1.4961171729167755, -2.0927101020998746 1.3753197776503645, -2.1650635094610955 1.250000000000002 C-2.2374169168223164 1.1246802223496395, -2.2997389064531992 0.9910302842862865, -2.34923155196477 0.8550503583141743 C-2.3987241974763407 0.7190704323420621, -2.436891307857981 0.5766288372196907, -2.4620193825305194 0.434120444167329 C-2.487147457203058 0.29161205111496724, -2.5 0.14470681472244545, -2.5 3.636830773662308e-15 C-2.5 -0.14470681472243818, -2.4871474572030587 -0.2916120511149599, -2.4620193825305208 -0.4341204441673218 C-2.436891307857983 -0.5766288372196837, -2.398724197476343 -0.7190704323420553, -2.3492315519647726 -0.8550503583141675 C-2.2997389064532023 -0.9910302842862798, -2.23741691682232 -1.1246802223496328, -2.165063509461099 -1.2499999999999956 C-2.092710102099878 -1.3753197776503583, -2.00812685533824 -1.4961171729167695, -1.9151111077974488 -1.606969024216344 C-1.8220953602566576 -1.7178208755159183, -1.7178208755159263 -1.82209536025665, -1.6069690242163523 -1.9151111077974416 C-1.4961171729167784 -2.0081268553382334, -1.3753197776503672 -2.0927101020998724, -1.2500000000000047 -2.1650635094610937 C-1.1246802223496422 -2.237416916822315, -0.9910302842862897 -2.299738906453198, -0.8550503583141776 -2.3492315519647686 C-0.7190704323420656 -2.3987241974763394, -0.5766288372196942 -2.4368913078579806, -0.43412044416733236 -2.462019382530519 C-0.29161205111497057 -2.4871474572030574, -0.1447068147224489 -2.4999999999999996, -7.120580697431198e-15 -2.5 C0.14470681472243463 -2.5000000000000004, 0.29161205111495647 -2.487147457203059, 0.4341204441673183 -2.4620193825305217 C0.5766288372196802 -2.436891307857984, 0.7190704323420518 -2.3987241974763442, 0.8550503583141642 -2.349231551964774 C0.9910302842862766 -2.2997389064532037, 1.1246802223496295 -2.2374169168223212, 1.2499999999999925 -2.165063509461101 C1.3753197776503554 -2.0927101020998804, 1.4961171729167668 -2.008126855338242, 1.6069690242163412 -1.915111107797451 C1.7178208755159157 -1.82209536025666, 1.8220953602566472 -1.7178208755159294, 1.915111107797439 -1.6069690242163557 C2.0081268553382308 -1.496117172916782, 2.09271010209987 -1.3753197776503712, 2.1650635094610915 -1.2500000000000089 C2.237416916822313 -1.1246802223496466, 2.299738906453196 -0.9910302842862939, 2.3492315519647673 -0.855050358314182 C2.3987241974763385 -0.71907043234207, 2.4368913078579792 -0.5766288372196986, 2.462019382530518 -0.4341204441673369 C2.487147457203057 -0.29161205111497523, 2.4936698970884197 -0.07235340736123454, 2.5 -1.1714553645825241e-14 C2.5063301029115803 0.07235340736121111, 2.50633010291158 -0.07235340736122292, 2.5 0"/><path style="" fill="none" stroke-width="2" stroke="#9370DB" d="M2.5 0 C2.5 0.14470681472244193, 2.487147457203058 0.29161205111496386, 2.46201938253052 0.4341204441673258 C2.436891307857982 0.5766288372196877, 2.3987241974763416 0.7190704323420595, 2.3492315519647713 0.8550503583141718 C2.299738906453201 0.991030284286284, 2.2374169168223177 1.124680222349637, 2.165063509461097 1.2499999999999998 C2.092710102099876 1.3753197776503625, 2.0081268553382365 1.496117172916774, 1.915111107797445 1.6069690242163481 C1.8220953602566536 1.7178208755159223, 1.7178208755159226 1.8220953602566536, 1.6069690242163484 1.915111107797445 C1.4961171729167742 2.0081268553382365, 1.375319777650363 2.0927101020998755, 1.2500000000000002 2.1650635094610964 C1.1246802223496375 2.2374169168223172, 0.9910302842862845 2.2997389064532, 0.8550503583141721 2.349231551964771 C0.7190704323420597 2.3987241974763416, 0.576628837219688 2.436891307857982, 0.43412044416732604 2.46201938253052 C0.291612051114964 2.487147457203058, 0.14470681472244212 2.5, 1.5308084989341916e-16 2.5 C-0.1447068147224418 2.5, -0.2916120511149638 2.487147457203058, -0.43412044416732576 2.46201938253052 C-0.5766288372196877 2.436891307857982, -0.7190704323420595 2.3987241974763416, -0.8550503583141718 2.3492315519647713 C-0.991030284286284 2.299738906453201, -1.124680222349637 2.2374169168223177, -1.2499999999999996 2.165063509461097 C-1.375319777650362 2.092710102099876, -1.4961171729167733 2.008126855338237, -1.6069690242163475 1.9151111077974459 C-1.7178208755159217 1.8220953602566548, -1.822095360256653 1.7178208755159234, -1.9151111077974443 1.6069690242163495 C-2.0081268553382357 1.4961171729167755, -2.0927101020998746 1.3753197776503645, -2.1650635094610955 1.250000000000002 C-2.2374169168223164 1.1246802223496395, -2.2997389064531992 0.9910302842862865, -2.34923155196477 0.8550503583141743 C-2.3987241974763407 0.7190704323420621, -2.436891307857981 0.5766288372196907, -2.4620193825305194 0.434120444167329 C-2.487147457203058 0.29161205111496724, -2.5 0.14470681472244545, -2.5 3.636830773662308e-15 C-2.5 -0.14470681472243818, -2.4871474572030587 -0.2916120511149599, -2.4620193825305208 -0.4341204441673218 C-2.436891307857983 -0.5766288372196837, -2.398724197476343 -0.7190704323420553, -2.3492315519647726 -0.8550503583141675 C-2.2997389064532023 -0.9910302842862798, -2.23741691682232 -1.1246802223496328, -2.165063509461099 -1.2499999999999956 C-2.092710102099878 -1.3753197776503583, -2.00812685533824 -1.4961171729167695, -1.9151111077974488 -1.606969024216344 C-1.8220953602566576 -1.7178208755159183, -1.7178208755159263 -1.82209536025665, -1.6069690242163523 -1.9151111077974416 C-1.4961171729167784 -2.0081268553382334, -1.3753197776503672 -2.0927101020998724, -1.2500000000000047 -2.1650635094610937 C-1.1246802223496422 -2.237416916822315, -0.9910302842862897 -2.299738906453198, -0.8550503583141776 -2.3492315519647686 C-0.7190704323420656 -2.3987241974763394, -0.5766288372196942 -2.4368913078579806, -0.43412044416733236 -2.462019382530519 C-0.29161205111497057 -2.4871474572030574, -0.1447068147224489 -2.4999999999999996, -7.120580697431198e-15 -2.5 C0.14470681472243463 -2.5000000000000004, 0.29161205111495647 -2.487147457203059, 0.4341204441673183 -2.4620193825305217 C0.5766288372196802 -2.436891307857984, 0.7190704323420518 -2.3987241974763442, 0.8550503583141642 -2.349231551964774 C0.9910302842862766 -2.2997389064532037, 1.1246802223496295 -2.2374169168223212, 1.2499999999999925 -2.165063509461101 C1.3753197776503554 -2.0927101020998804, 1.4961171729167668 -2.008126855338242, 1.6069690242163412 -1.915111107797451 C1.7178208755159157 -1.82209536025666, 1.8220953602566472 -1.7178208755159294, 1.915111107797439 -1.6069690242163557 C2.0081268553382308 -1.496117172916782, 2.09271010209987 -1.3753197776503712, 2.1650635094610915 -1.2500000000000089 C2.237416916822313 -1.1246802223496466, 2.299738906453196 -0.9910302842862939, 2.3492315519647673 -0.855050358314182 C2.3987241974763385 -0.71907043234207, 2.4368913078579792 -0.5766288372196986, 2.462019382530518 -0.4341204441673369 C2.487147457203057 -0.29161205111497523, 2.4936698970884197 -0.07235340736123454, 2.5 -1.1714553645825241e-14 C2.5063301029115803 0.07235340736121111, 2.50633010291158 -0.07235340736122292, 2.5 0"/></g></g></g></g></g></g></svg>