<?xml version="1.0" encoding="utf-8"?>
<svg xmlns="http://www.w3.org/2000/svg" viewBox="0 0 1091 1091" xmlns:bx="https://boxy-svg.com" width="1091px" height="1091px"><defs><filter id="c" x="73.683" y="53.416" width="19.126" height="9.973" filterUnits="userSpaceOnUse" color-interpolation-filters="sRGB"><feFlood flood-opacity="0" result="BackgroundImageFix"/><feBlend in="SourceGraphic" in2="BackgroundImageFix" result="shape"/><feGaussianBlur stdDeviation=".234" result="effect1_foregroundBlur_1081_1678"/></filter><filter id="e" x="79.595" y="59.416" width="13.996" height="17.273" filterUnits="userSpaceOnUse" color-interpolation-filters="sRGB"><feFlood flood-opacity="0" result="BackgroundImageFix"/><feBlend in="SourceGraphic" in2="BackgroundImageFix" result="shape"/><feGaussianBlur stdDeviation=".351" result="effect1_foregroundBlur_1081_1678"/></filter><filter id="g" x="75.151" y="51.078" width="14.75" height="4.431" filterUnits="userSpaceOnUse" color-interpolation-filters="sRGB"><feFlood flood-opacity="0" result="BackgroundImageFix"/><feBlend in="SourceGraphic" in2="BackgroundImageFix" result="shape"/><feGaussianBlur stdDeviation=".176" result="effect1_foregroundBlur_1081_1678"/></filter><filter id="h" x="84.363" y="67.118" width="9.925" height="11.754" filterUnits="userSpaceOnUse" color-interpolation-filters="sRGB"><feFlood flood-opacity="0" result="BackgroundImageFix"/><feBlend in="SourceGraphic" in2="BackgroundImageFix" result="shape"/><feGaussianBlur stdDeviation=".176" result="effect1_foregroundBlur_1081_1678"/></filter><filter id="i" x="88.773" y="51.36" width="5.55" height="4.563" filterUnits="userSpaceOnUse" color-interpolation-filters="sRGB"><feFlood flood-opacity="0" result="BackgroundImageFix"/><feBlend in="SourceGraphic" in2="BackgroundImageFix" result="shape"/><feGaussianBlur stdDeviation=".234" result="effect1_foregroundBlur_1081_1678"/></filter><filter id="j" x="88.905" y="50.465" width="3.874" height="4.977" filterUnits="userSpaceOnUse" color-interpolation-filters="sRGB"><feFlood flood-opacity="0" result="BackgroundImageFix"/><feBlend in="SourceGraphic" in2="BackgroundImageFix" result="shape"/><feGaussianBlur stdDeviation=".059" result="effect1_foregroundBlur_1081_1678"/></filter><filter id="k" x="90.309" y="51.488" width="3.63" height="5.548" filterUnits="userSpaceOnUse" color-interpolation-filters="sRGB"><feFlood flood-opacity="0" result="BackgroundImageFix"/><feBlend in="SourceGraphic" in2="BackgroundImageFix" result="shape"/><feGaussianBlur stdDeviation=".176" result="effect1_foregroundBlur_1081_1678"/></filter><filter id="n" x="93.211" y="67.586" width="6.043" height="1.649" filterUnits="userSpaceOnUse" color-interpolation-filters="sRGB"><feFlood flood-opacity="0" result="BackgroundImageFix"/><feBlend in="SourceGraphic" in2="BackgroundImageFix" result="shape"/><feGaussianBlur stdDeviation=".059" result="effect1_foregroundBlur_1081_1678"/></filter><filter id="p" x="92.982" y="65.918" width=".983" height="4.606" filterUnits="userSpaceOnUse" color-interpolation-filters="sRGB"><feFlood flood-opacity="0" result="BackgroundImageFix"/><feBlend in="SourceGraphic" in2="BackgroundImageFix" result="shape"/><feGaussianBlur stdDeviation=".117" result="effect1_foregroundBlur_1081_1678"/></filter><filter id="q" x="93.41" y="65.18" width=".526" height="1.458" filterUnits="userSpaceOnUse" color-interpolation-filters="sRGB"><feFlood flood-opacity="0" result="BackgroundImageFix"/><feBlend in="SourceGraphic" in2="BackgroundImageFix" result="shape"/><feGaussianBlur stdDeviation=".07" result="effect1_foregroundBlur_1081_1678"/></filter><filter id="s" x="86.936" y="53.14" width="3.347" height="3.494" filterUnits="userSpaceOnUse" color-interpolation-filters="sRGB"><feFlood flood-opacity="0" result="BackgroundImageFix"/><feBlend in="SourceGraphic" in2="BackgroundImageFix" result="shape"/><feGaussianBlur stdDeviation=".117" result="effect1_foregroundBlur_1081_1678"/></filter><filter id="t" x="89.686" y="55.962" width="1.158" height="1.109" filterUnits="userSpaceOnUse" color-interpolation-filters="sRGB"><feFlood flood-opacity="0" result="BackgroundImageFix"/><feBlend in="SourceGraphic" in2="BackgroundImageFix" result="shape"/><feGaussianBlur stdDeviation=".07" result="effect1_foregroundBlur_1081_1678"/></filter><filter id="u" x="93.012" y="66.772" width="6.567" height="2.548" filterUnits="userSpaceOnUse" color-interpolation-filters="sRGB"><feFlood flood-opacity="0" result="BackgroundImageFix"/><feBlend in="SourceGraphic" in2="BackgroundImageFix" result="shape"/><feGaussianBlur stdDeviation=".234" result="effect1_foregroundBlur_1081_1678"/></filter><filter id="v" x="93.478" y="65.344" width="6.43" height="3.471" filterUnits="userSpaceOnUse" color-interpolation-filters="sRGB"><feFlood flood-opacity="0" result="BackgroundImageFix"/><feBlend in="SourceGraphic" in2="BackgroundImageFix" result="shape"/><feGaussianBlur stdDeviation=".176" result="effect1_foregroundBlur_1081_1678"/></filter><filter id="y" x="82.754" y="56.043" width="3.332" height="2.843" filterUnits="userSpaceOnUse" color-interpolation-filters="sRGB"><feFlood flood-opacity="0" result="BackgroundImageFix"/><feBlend in="SourceGraphic" in2="BackgroundImageFix" result="shape"/><feGaussianBlur stdDeviation=".035" result="effect1_foregroundBlur_1081_1678"/></filter><filter id="z" x="86.961" y="67.459" width="3.062" height="3.101" filterUnits="userSpaceOnUse" color-interpolation-filters="sRGB"><feFlood flood-opacity="0" result="BackgroundImageFix"/><feBlend in="SourceGraphic" in2="BackgroundImageFix" result="shape"/><feGaussianBlur stdDeviation=".035" result="effect1_foregroundBlur_1081_1678"/></filter><filter id="A" x="83.017" y="56.143" width="3.078" height="2.566" filterUnits="userSpaceOnUse" color-interpolation-filters="sRGB"><feFlood flood-opacity="0" result="BackgroundImageFix"/><feColorMatrix in="SourceAlpha" values="0 0 0 0 0 0 0 0 0 0 0 0 0 0 0 0 0 0 127 0" result="hardAlpha"/><feOffset dx="-.012" dy=".023"/><feGaussianBlur stdDeviation=".012"/><feComposite in2="hardAlpha" operator="out"/><feColorMatrix values="0 0 0 0 0.0156863 0 0 0 0 0.231373 0 0 0 0 0.0666667 0 0 0 0.7 0"/><feBlend in2="BackgroundImageFix" result="effect1_dropShadow_1081_1678"/><feBlend in="SourceGraphic" in2="effect1_dropShadow_1081_1678" result="shape"/></filter><filter id="B" x="87.242" y="67.513" width="2.752" height="2.91" filterUnits="userSpaceOnUse" color-interpolation-filters="sRGB"><feFlood flood-opacity="0" result="BackgroundImageFix"/><feColorMatrix in="SourceAlpha" values="0 0 0 0 0 0 0 0 0 0 0 0 0 0 0 0 0 0 127 0" result="hardAlpha"/><feOffset dx="-.012" dy=".023"/><feGaussianBlur stdDeviation=".012"/><feComposite in2="hardAlpha" operator="out"/><feColorMatrix values="0 0 0 0 0.0156863 0 0 0 0 0.231373 0 0 0 0 0.0666667 0 0 0 0.7 0"/><feBlend in2="BackgroundImageFix" result="effect1_dropShadow_1081_1678"/><feBlend in="SourceGraphic" in2="effect1_dropShadow_1081_1678" result="shape"/></filter><filter id="D" x="83.414" y="56.087" width="2.581" height="1.054" filterUnits="userSpaceOnUse" color-interpolation-filters="sRGB"><feFlood flood-opacity="0" result="BackgroundImageFix"/><feBlend in="SourceGraphic" in2="BackgroundImageFix" result="shape"/><feGaussianBlur stdDeviation=".012" result="effect1_foregroundBlur_1081_1678"/></filter><filter id="E" x="85.503" y="56.975" width=".555" height="1.327" filterUnits="userSpaceOnUse" color-interpolation-filters="sRGB"><feFlood flood-opacity="0" result="BackgroundImageFix"/><feBlend in="SourceGraphic" in2="BackgroundImageFix" result="shape"/><feGaussianBlur stdDeviation=".003" result="effect1_foregroundBlur_1081_1678"/></filter><filter id="I" x="88.343" y="68.266" width="1.62" height="2.185" filterUnits="userSpaceOnUse" color-interpolation-filters="sRGB"><feFlood flood-opacity="0" result="BackgroundImageFix"/><feBlend in="SourceGraphic" in2="BackgroundImageFix" result="shape"/><feGaussianBlur stdDeviation=".012" result="effect1_foregroundBlur_1081_1678"/></filter><filter id="J" x="84.591" y="56.471" width=".791" height=".553" filterUnits="userSpaceOnUse" color-interpolation-filters="sRGB"><feFlood flood-opacity="0" result="BackgroundImageFix"/><feBlend in="SourceGraphic" in2="BackgroundImageFix" result="shape"/><feGaussianBlur stdDeviation=".012" result="effect1_foregroundBlur_1081_1678"/></filter><filter id="K" x="89.119" y="68.801" width=".512" height=".758" filterUnits="userSpaceOnUse" color-interpolation-filters="sRGB"><feFlood flood-opacity="0" result="BackgroundImageFix"/><feBlend in="SourceGraphic" in2="BackgroundImageFix" result="shape"/><feGaussianBlur stdDeviation=".012" result="effect1_foregroundBlur_1081_1678"/></filter><filter id="L" x="83.82" y="57.987" width="1.795" height=".421" filterUnits="userSpaceOnUse" color-interpolation-filters="sRGB"><feFlood flood-opacity="0" result="BackgroundImageFix"/><feBlend in="SourceGraphic" in2="BackgroundImageFix" result="shape"/><feGaussianBlur stdDeviation=".006" result="effect1_foregroundBlur_1081_1678"/></filter><filter id="M" x="87.656" y="67.632" width="1.269" height="1.313" filterUnits="userSpaceOnUse" color-interpolation-filters="sRGB"><feFlood flood-opacity="0" result="BackgroundImageFix"/><feBlend in="SourceGraphic" in2="BackgroundImageFix" result="shape"/><feGaussianBlur stdDeviation=".006" result="effect1_foregroundBlur_1081_1678"/></filter><filter id="N" x="82.708" y="53.689" width="10.603" height="18.797" filterUnits="userSpaceOnUse" color-interpolation-filters="sRGB"><feFlood flood-opacity="0" result="BackgroundImageFix"/><feBlend in="SourceGraphic" in2="BackgroundImageFix" result="shape"/><feGaussianBlur stdDeviation=".234" result="effect1_foregroundBlur_1081_1678"/></filter><filter id="P" x="82.708" y="53.689" width="10.603" height="18.797" filterUnits="userSpaceOnUse" color-interpolation-filters="sRGB"><feFlood flood-opacity="0" result="BackgroundImageFix"/><feBlend in="SourceGraphic" in2="BackgroundImageFix" result="shape"/><feGaussianBlur stdDeviation=".234" result="effect1_foregroundBlur_1081_1678"/></filter><filter id="V" x="70.583" y="69.436" width="7.775" height="12.643" filterUnits="userSpaceOnUse" color-interpolation-filters="sRGB"><feFlood flood-opacity="0" result="BackgroundImageFix"/><feBlend in="SourceGraphic" in2="BackgroundImageFix" result="shape"/><feGaussianBlur stdDeviation=".293" result="effect1_foregroundBlur_1081_1678"/></filter><linearGradient id="a" x1="89.897" y1="100.561" x2="86.04" y2="98.374" gradientUnits="userSpaceOnUse" gradientTransform="matrix(66.718353, 0, 0, 60.546047, -1736.700824, -1241.079133)"><stop stop-color="#4285F4"/><stop offset="1" stop-color="#034ECA"/></linearGradient><linearGradient id="d" x1="84.808" y1="54.191" x2="83.586" y2="58.523" gradientUnits="userSpaceOnUse"><stop stop-color="#A8F0B9"/><stop offset="1" stop-color="#ADEEBC" stop-opacity="0"/></linearGradient><linearGradient id="f" x1="90.857" y1="71.333" x2="87.186" y2="68.728" gradientUnits="userSpaceOnUse"><stop stop-color="#A8F0B9"/><stop offset="1" stop-color="#ADEEBC" stop-opacity="0"/></linearGradient><linearGradient id="F" x1="86.212" y1="56.951" x2="85.191" y2="57.364" gradientUnits="userSpaceOnUse"><stop stop-color="#E2DDE2"/><stop offset="1" stop-color="#E2DDE2" stop-opacity="0"/></linearGradient><linearGradient id="H" x1="89.776" y1="68.398" x2="88.921" y2="68.7" gradientUnits="userSpaceOnUse"><stop stop-color="#373637"/><stop offset="1" stop-color="#373637" stop-opacity="0"/></linearGradient><linearGradient id="O" x1="92.331" y1="61.164" x2="88.086" y2="62.662" gradientUnits="userSpaceOnUse"><stop stop-color="#A8F0B9"/><stop offset="1" stop-color="#ADEEBC" stop-opacity="0"/></linearGradient><linearGradient id="Q" x1="92.331" y1="61.164" x2="88.086" y2="62.662" gradientUnits="userSpaceOnUse"><stop stop-color="#A8F0B9"/><stop offset="1" stop-color="#ADEEBC" stop-opacity="0"/></linearGradient><linearGradient id="R" x1="60.209" y1="75.081" x2="78.764" y2="73.616" gradientUnits="userSpaceOnUse" gradientTransform="matrix(66.718353, 0, 0, 60.546047, -1736.700824, -1241.079133)"><stop stop-color="#4285F4"/><stop offset="0.703" stop-color="#044FCB"/></linearGradient><linearGradient id="S" x1="39.018" y1="99.585" x2="43.018" y2="97.223" gradientUnits="userSpaceOnUse" gradientTransform="matrix(66.718353, 0, 0, 60.546047, -1736.700824, -1241.079133)"><stop stop-color="#4285F4"/><stop offset="1" stop-color="#034ECA"/></linearGradient><linearGradient id="T" x1="57.372" y1="65.999" x2="55.24" y2="65.26" gradientUnits="userSpaceOnUse" gradientTransform="matrix(66.718353, 0, 0, 60.546047, -1736.700824, -1241.079133)"><stop stop-color="#73A7FF"/><stop offset="1" stop-color="#5893F6" stop-opacity="0"/></linearGradient><linearGradient id="U" x1="64.115" y1="26.802" x2="67.468" y2="29.818" gradientUnits="userSpaceOnUse" gradientTransform="matrix(66.718353, 0, 0, 60.546047, -1736.700824, -1241.079133)"><stop stop-color="#4285F4"/><stop offset="1" stop-color="#034ECA"/></linearGradient><linearGradient id="W" x1="67.866" y1="46.531" x2="78.004" y2="67.72" gradientUnits="userSpaceOnUse" gradientTransform="matrix(66.718353, 0, 0, 60.546047, -1736.700824, -1241.079133)"><stop stop-color="#034DC9"/><stop offset="1" stop-color="#4285F4"/></linearGradient><linearGradient id="X" x1="43.333" y1="63.99" x2="48.675" y2="65.823" gradientUnits="userSpaceOnUse" gradientTransform="matrix(66.718353, 0, 0, 60.546047, -1736.700824, -1241.079133)"><stop stop-color="#9BC0FF"/><stop offset="1" stop-color="#5893F6" stop-opacity="0"/></linearGradient><radialGradient id="l" cx="0" cy="0" r="1" gradientUnits="userSpaceOnUse" gradientTransform="matrix(-.53643 -.73571 .53314 -.38873 92.673 52.02)"><stop stop-color="#fff"/><stop offset="0.948" stop-color="#fff" stop-opacity="0"/></radialGradient><radialGradient id="m" cx="0" cy="0" r="1" gradientUnits="userSpaceOnUse" gradientTransform="rotate(-126.097 66.088 8.52) scale(.91051 .65981)"><stop stop-color="#fff"/><stop offset="0.948" stop-color="#fff" stop-opacity="0"/></radialGradient><radialGradient id="w" cx="0" cy="0" r="1" gradientUnits="userSpaceOnUse" gradientTransform="matrix(-21.684799, -8.679276, 17.418825, -35.84144, 3983.470744, 2261.634374)"><stop stop-color="#93E19F"/><stop offset="1" stop-color="#93E19F" stop-opacity="0"/></radialGradient><radialGradient id="x" cx="0" cy="0" r="1" gradientUnits="userSpaceOnUse" gradientTransform="matrix(-10.875494, 19.099432, -38.333439, -17.9757, 4218.173872, 2867.878688)"><stop stop-color="#93E19F"/><stop offset="1" stop-color="#93E19F" stop-opacity="0"/></radialGradient><radialGradient id="Y" cx="0" cy="0" r="1" gradientUnits="userSpaceOnUse" gradientTransform="matrix(-78.6436, 72.619527, -55.749859, -49.720412, 2459.226344, 275.839146)"><stop stop-color="#fff"/><stop offset="0.948" stop-color="#fff" stop-opacity="0"/></radialGradient><radialGradient id="Z" cx="0" cy="0" r="1" gradientUnits="userSpaceOnUse" gradientTransform="matrix(-172.597046, 275.605619, -165.919891, -85.57033, 2078.120627, 1537.993835)"><stop stop-color="#fff"/><stop offset="0.948" stop-color="#fff" stop-opacity="0"/></radialGradient><filter id="drop-shadow-filter-0" bx:preset="drop-shadow 1 1 1 40 0.98 #00000039" color-interpolation-filters="sRGB" x="-50%" y="-50%" width="200%" height="200%"><feGaussianBlur in="SourceAlpha" stdDeviation="40"/><feOffset dx="1" dy="1"/><feComponentTransfer result="offsetblur"><feFuncA id="spread-ctrl" type="linear" slope="1.96"/></feComponentTransfer><feFlood flood-color="#00000039"/><feComposite in2="offsetblur" operator="in"/><feMerge><feMergeNode/><feMergeNode in="SourceGraphic"/></feMerge></filter><bx:export><bx:file format="png" path="未命名.png" excluded="true"/><bx:file format="webp" path="未命名.webp"/><bx:file format="svg" path="未命名.svg"/><bx:file format="svg" href="#object-0" path="未命名 2.svg"/></bx:export><filter id="pixelete-filter-0" bx:preset="pixelete 1 3" color-interpolation-filters="sRGB" x="0" y="0" width="100%" height="100%"><feFlood height="2" width="2"/><feComposite width="3" height="3"/><feTile result="a"/><feComposite in="SourceGraphic" in2="a" operator="in"/><feMorphology operator="dilate" radius="1.5"/></filter><filter id="drop-shadow-filter-1" bx:preset="drop-shadow 1 10 10 70 1 #3c3c3c59" color-interpolation-filters="sRGB" x="-50%" y="-50%" width="200%" height="200%"><feGaussianBlur in="SourceAlpha" stdDeviation="70"/><feOffset dx="10" dy="10"/><feComponentTransfer result="offsetblur"><feFuncA id="spread-ctrl-2" type="linear" slope="2"/></feComponentTransfer><feFlood flood-color="#3c3c3c59"/><feComposite in2="offsetblur" operator="in"/><feMerge><feMergeNode/><feMergeNode in="SourceGraphic"/></feMerge></filter><linearGradient gradientUnits="userSpaceOnUse" id="color-3" gradientTransform="matrix(0.788569, 0, 0, 0.788571, -641.244217, -294.974638)"><stop style="stop-color: color(a98-rgb 1 1 1 / 0);"/></linearGradient><linearGradient id="gradient-0" x1="1051.014" x2="1051.014" y1="485.645" y2="2387.645" gradientUnits="userSpaceOnUse" gradientTransform="matrix(-0.833982, -0.438479, 0.243327, -0.462809, 924.237117, 1908.490636)"><stop style="stop-color: #ece9e6;" offset="0"/><stop style="stop-color: #ffffff;" offset="1"/></linearGradient><filter id="inner-shadow-filter-0" bx:preset="inner-shadow 1 -10 17 33 0.42 #c2c2c2b3" color-interpolation-filters="sRGB" x="-50%" y="-50%" width="200%" height="200%"><feOffset dx="-10" dy="17"/><feGaussianBlur stdDeviation="33"/><feComposite operator="out" in="SourceGraphic"/><feComponentTransfer result="choke"><feFuncA type="linear" slope="0.84"/></feComponentTransfer><feFlood flood-color="#c2c2c2b3" result="color"/><feComposite operator="in" in="color" in2="choke" result="shadow"/><feComposite operator="over" in="shadow" in2="SourceGraphic"/></filter><filter id="inner-shadow-filter-1" bx:preset="inner-shadow 1 62 -57 40 0.46 #bfbfbfb3" color-interpolation-filters="sRGB" x="-50%" y="-50%" width="200%" height="200%"><feOffset dx="62" dy="-57"/><feGaussianBlur stdDeviation="40"/><feComposite operator="out" in="SourceGraphic"/><feComponentTransfer result="choke"><feFuncA type="linear" slope="0.92"/></feComponentTransfer><feFlood flood-color="#bfbfbfb3" result="color"/><feComposite operator="in" in="color" in2="choke" result="shadow"/><feComposite operator="over" in="shadow" in2="SourceGraphic"/></filter><linearGradient id="gradient-1" x1="1051.014" x2="1051.014" y1="485.645" y2="2387.645" gradientUnits="userSpaceOnUse" gradientTransform="matrix(-0.833982, -0.438479, 0.243327, -0.462809, 840.513081, 4075.030314)"><stop style="stop-color: #ece9e6;" offset="0"/><stop style="stop-color: #ffffff;" offset="1"/></linearGradient><filter id="filter-1" bx:preset="inner-shadow 1 -10 17 33 0.42 #c2c2c2b3" color-interpolation-filters="sRGB" x="-50%" y="-50%" width="200%" height="200%"><feOffset dx="-10" dy="17"/><feGaussianBlur stdDeviation="33"/><feComposite operator="out" in="SourceGraphic"/><feComponentTransfer result="choke"><feFuncA type="linear" slope="0.84"/></feComponentTransfer><feFlood flood-color="#c2c2c2b3" result="color"/><feComposite operator="in" in="color" in2="choke" result="shadow"/><feComposite operator="over" in="shadow" in2="SourceGraphic"/></filter><filter id="filter-2" bx:preset="inner-shadow 1 62 -57 40 0.46 #bfbfbfb3" color-interpolation-filters="sRGB" x="-50%" y="-50%" width="200%" height="200%"><feOffset dx="62" dy="-57"/><feGaussianBlur stdDeviation="40"/><feComposite operator="out" in="SourceGraphic"/><feComponentTransfer result="choke"><feFuncA type="linear" slope="0.92"/></feComponentTransfer><feFlood flood-color="#bfbfbfb3" result="color"/><feComposite operator="in" in="color" in2="choke" result="shadow"/><feComposite operator="over" in="shadow" in2="SourceGraphic"/></filter><filter id="filter-3" bx:preset="drop-shadow 1 1 1 40 0.98 #00000039" color-interpolation-filters="sRGB" x="-50%" y="-50%" width="200%" height="200%"><feGaussianBlur in="SourceAlpha" stdDeviation="40"/><feOffset dx="1" dy="1"/><feComponentTransfer result="offsetblur"><feFuncA id="feFuncA-1" type="linear" slope="1.96"/></feComponentTransfer><feFlood flood-color="#00000039"/><feComposite in2="offsetblur" operator="in"/><feMerge><feMergeNode/><feMergeNode in="SourceGraphic"/></feMerge></filter><filter id="filter-4" bx:preset="inner-shadow 1 -10 17 33 0.42 #c2c2c2b3" color-interpolation-filters="sRGB" x="-50%" y="-50%" width="200%" height="200%"><feOffset dx="-10" dy="17"/><feGaussianBlur stdDeviation="33"/><feComposite operator="out" in="SourceGraphic"/><feComponentTransfer result="choke"><feFuncA type="linear" slope="0.84"/></feComponentTransfer><feFlood flood-color="#c2c2c2b3" result="color"/><feComposite operator="in" in="color" in2="choke" result="shadow"/><feComposite operator="over" in="shadow" in2="SourceGraphic"/></filter><filter id="filter-5" bx:preset="inner-shadow 1 62 -57 40 0.46 #bfbfbfb3" color-interpolation-filters="sRGB" x="-50%" y="-50%" width="200%" height="200%"><feOffset dx="62" dy="-57"/><feGaussianBlur stdDeviation="40"/><feComposite operator="out" in="SourceGraphic"/><feComponentTransfer result="choke"><feFuncA type="linear" slope="0.92"/></feComponentTransfer><feFlood flood-color="#bfbfbfb3" result="color"/><feComposite operator="in" in="color" in2="choke" result="shadow"/><feComposite operator="over" in="shadow" in2="SourceGraphic"/></filter><filter id="filter-6" bx:preset="drop-shadow 1 1 1 40 0.98 #00000039" color-interpolation-filters="sRGB" x="-50%" y="-50%" width="200%" height="200%"><feGaussianBlur in="SourceAlpha" stdDeviation="40"/><feOffset dx="1" dy="1"/><feComponentTransfer result="offsetblur"><feFuncA id="feFuncA-2" type="linear" slope="1.96"/></feComponentTransfer><feFlood flood-color="#00000039"/><feComposite in2="offsetblur" operator="in"/><feMerge><feMergeNode/><feMergeNode in="SourceGraphic"/></feMerge></filter></defs><g transform="matrix(0.528163, 0, 0, 0.528716, 412.046446, 231.162444)"><rect x="-761.66" y="-418.74" width="2028.67" height="2026.54" rx="297" ry="297" style="stroke: url(&quot;#color-3&quot;); paint-order: fill; stroke-width: 0; stroke-linejoin: round; stroke-dasharray: 1, 4; filter: url(&quot;#inner-shadow-filter-0&quot;) url(&quot;#inner-shadow-filter-1&quot;) url(&quot;#drop-shadow-filter-0&quot;); stroke-opacity: 0; fill: rgb(236, 233, 230); fill-opacity: 0; pointer-events: none; visibility: hidden;"/><rect x="-655.22" y="-297.06" width="1794" height="1792.12" rx="297" ry="297" style="stroke: url(&quot;#color-3&quot;); paint-order: fill; stroke-opacity: 0.52; stroke-width: 0; stroke-linejoin: round; stroke-dasharray: 1, 4; fill: url(&quot;#gradient-0&quot;); filter: url(&quot;#inner-shadow-filter-0&quot;) url(&quot;#inner-shadow-filter-1&quot;) url(&quot;#drop-shadow-filter-0&quot;); pointer-events: none; visibility: hidden;"/><rect x="-498.05" y="-155.4" width="1501.43" height="1499.86" rx="297" ry="297" style="stroke: url(&quot;#color-3&quot;); paint-order: fill; stroke-width: 0; stroke-linejoin: round; stroke-dasharray: 1, 4; filter: url(&quot;#inner-shadow-filter-0&quot;) url(&quot;#inner-shadow-filter-1&quot;) url(&quot;#drop-shadow-filter-0&quot;); stroke-opacity: 0; fill: rgb(236, 233, 230); fill-opacity: 0; pointer-events: none;"/><g transform="matrix(0.291378, 0, 0, 0.291072, -488.886533, -127.133087)" style="filter: url(&quot;#drop-shadow-filter-1&quot;);"><title>studio</title><path d="M 4324.44 4753.73 C 4347.13 4819.15 4283.75 4882.1 4210.36 4867.58 C 4183 4862.12 4158.99 4845.77 4145.64 4822.76 L 3910.8 4426.8 C 3858.08 4339 3930.82 4231.84 4041.56 4234.87 C 4102.28 4236.69 4155.65 4273.01 4173.67 4325.69 L 4324.44 4753.73 Z" fill="#034ECA" style="stroke-width: 1; pointer-events: none;"/><path d="M 4324.44 4753.73 C 4347.13 4819.15 4283.75 4882.1 4210.36 4867.58 C 4183 4862.12 4158.99 4845.77 4145.64 4822.76 L 3910.8 4426.8 C 3858.08 4339 3930.82 4231.84 4041.56 4234.87 C 4102.28 4236.69 4155.65 4273.01 4173.67 4325.69 L 4324.44 4753.73 Z" fill="url(#a)" style="stroke-width: 1; pointer-events: none;"/><g mask="url(#b)" transform="matrix(66.718353, 0, 0, 60.546043, -1736.699115, -1241.076795)" style="pointer-events: none;"><path d="m100.745 71.537-8.84-25.05-14.093 4.973 8.84 25.05 14.093-4.973Z" fill="#4FAF53"/><g opacity=".8" filter="url(#c)"><path d="M92.34 62.13c-.875 3.1-3.533-3.82-8.313-5.169-4.78-1.349-10.664 3.16-9.789.06 1.562-2.275 5.744-4.013 10.524-2.664 4.78 1.35 7.62 5.39 7.578 7.773Z" fill="url(#d)" fill-opacity=".3"/></g><g opacity=".7" filter="url(#e)"><path d="M91.738 60.426c-2.627-1.865-.354 5.19-3.228 9.24-2.875 4.05-10.286 4.233-7.659 6.097 2.644.791 6.99-.48 9.865-4.53 2.875-4.05 2.55-8.978 1.022-10.807Z" fill="url(#f)" fill-opacity=".4"/></g><g opacity=".6" filter="url(#g)"><path d="M81.522 51.431c-3.337.105-6.032.504-6.02.891.013.387 2.727.616 6.064.51 3.337-.104 7.996 2.675 7.984 2.288-.012-.387-4.691-3.793-8.028-3.689Z" fill="#8BD8A0"/></g><g opacity=".5" filter="url(#h)"><path d="M89.978 75.393c-2.663 2.013-5.012 3.394-5.245 3.085-.234-.31 1.736-2.191 4.4-4.204 2.664-2.012 4.547-7.1 4.78-6.791.234.309-1.271 5.898-3.935 7.91Z" fill="#8BD8A0"/></g><g opacity=".7" filter="url(#i)"><path d="M91.21 53.386c-1.219 1.492-1.812 2.166-1.944 2.058-.132-.107.248-.956 1.466-2.448.75-1.87 2.98-.96 3.113-.852.132.108-1.076-.887-2.636 1.242Z" fill="#0D652D"/></g><g opacity=".1" filter="url(#j)"><path d="M89.034 55.32c.113.086 1.015-.903 2.013-2.21 1-1.306 1.716-2.436 1.603-2.523-.114-.087-1.015.902-2.014 2.21-.999 1.306-1.716 2.436-1.602 2.522Z" fill="#000"/></g><g opacity=".3" filter="url(#k)"><path d="M92.414 54.285c-1.274 1.561-1.847 2.305-1.742 2.392.106.086.85-.519 2.124-2.08 1.831-1.717-.068-2.979-.245-2.726-.519.555 1.692.348-.137 2.414Z" fill="#fff"/></g><path opacity=".15" d="M91.83 50.843c-.553.395-.624 1.243-.158 1.894.465.65 1.29.857 1.844.462.552-.396.623-1.244.158-1.895-.465-.65-1.291-.857-1.844-.461Z" fill="url(#l)" fill-opacity=".9"/><path opacity=".15" d="M97.296 65.762c-.552.396-.623 1.244-.158 1.895.465.65 1.291.857 1.844.462.553-.396.624-1.244.158-1.895-.465-.65-1.29-.857-1.844-.462Z" fill="url(#m)" fill-opacity=".9"/><g opacity=".1" filter="url(#n)"><path d="M93.33 67.75c.03-.14 1.356.043 2.96.408 1.604.365 2.878.773 2.846.913-.031.14-1.357-.043-2.96-.408-1.604-.365-2.879-.773-2.847-.913Z" fill="#000"/></g><mask id="o" style="mask-type:alpha" maskUnits="userSpaceOnUse" x="93" y="65" width="3" height="5"><path d="M93.37 67.938c.15-.678.298-2.157.353-2.812l1.453-.093-.18 4.167c-.605-.138-1.776-.584-1.626-1.262Z" fill="#000"/></mask><g mask="url(#o)"><g style="mix-blend-mode:multiply" opacity=".3" filter="url(#p)"><path d="M93.702 68.237c.07-1.142.01-2.076-.133-2.084-.142-.01-.225.868-.295 2.01-.07 1.143-.099 2.118.044 2.127.142.009.314-.91.384-2.053Z" fill="#0D652D"/></g><g style="mix-blend-mode:screen" opacity=".3" filter="url(#q)"><path d="M93.776 65.922c.039-.325.019-.594-.045-.602-.063-.007-.106.241-.144.566-.039.325-.058.604.005.611.064.008.146-.25.184-.575Z" fill="#81C995"/></g></g><mask id="r" style="mask-type:alpha" maskUnits="userSpaceOnUse" x="88" y="53" width="4" height="5"><path d="M88.735 55.151c.552.422 1.617 1.46 2.08 1.926l1.172-.864-2.82-3.074c-.374.495-.983 1.59-.432 2.012Z" fill="#000"/></mask><g mask="url(#r)"><g style="mix-blend-mode:multiply" opacity=".3" filter="url(#s)"><path d="M88.797 54.71c.788.829 1.343 1.582 1.24 1.68-.104.099-.732-.52-1.52-1.35-.79-.83-1.44-1.556-1.336-1.655.104-.098.827.495 1.616 1.324Z" fill="#0D652D"/></g><g style="mix-blend-mode:screen" opacity=".3" filter="url(#t)"><path d="M90.344 56.432c.238.224.396.444.352.49-.044.047-.236-.116-.475-.34-.238-.224-.432-.425-.389-.471.044-.047.273.097.512.321Z" fill="#81C995"/></g></g><g opacity=".7" filter="url(#u)"><path d="M96.294 68.007c-1.894-.354-2.782-.485-2.813-.318-.032.168.806.57 2.7.924 1.78.943 2.896-1.192 2.927-1.36.031-.167-.249 1.372-2.814.754Z" fill="#0D652D"/></g><g opacity=".3" filter="url(#v)"><path d="M96.623 66.49c-1.927-.36-2.82-.555-2.794-.695.027-.14.962-.174 2.889.185 3.152.072 3.521 2.29 1.88 2.484-.72-.05.683-1.597-1.975-1.975Z" fill="#fff"/></g></g><path d="M 3958.16 2251.97 C 3947.48 2275.58 3950.15 2298.61 3964.17 2304.05 C 3978.83 2308.88 3998.2 2294.36 4008.88 2271.36 C 4019.54 2247.74 4016.88 2224.74 4002.86 2219.28 C 3988.19 2214.44 3968.17 2228.97 3958.16 2251.97 Z" fill="url(#w)" fill-opacity=".7" style="stroke-width: 1; pointer-events: none;"/><path d="M 4205.02 2889.53 C 4180.34 2877.42 4166.98 2858.04 4174.33 2845.93 C 4181.67 2833.82 4207.01 2833.82 4231.7 2845.93 C 4255.74 2858.04 4269.74 2878.02 4262.41 2890.12 C 4255.06 2902.24 4229.03 2902.24 4205.02 2889.53 Z" fill="url(#x)" fill-opacity=".7" style="stroke-width: 1; pointer-events: none;"/><g style="mix-blend-mode: multiply; pointer-events: none;" opacity=".09" filter="url(#y)" transform="matrix(66.718353, 0, 0, 60.546043, -1736.699115, -1241.076795)"><path d="M84.336 58.813c1 .044 1.414-.52 1.495-.807.585-.95-.365-1.62-.809-1.763-.443-.143-1.196-.312-1.91.364-.712.676-.026 2.15 1.224 2.206Z" fill="#011B04"/></g><g style="mix-blend-mode: multiply; pointer-events: none;" opacity=".09" filter="url(#z)" transform="matrix(66.718353, 0, 0, 60.546043, -1736.699115, -1241.076795)"><path d="M87.562 67.997c.747-.66 1.42-.48 1.662-.307 1.048.376.732 1.49.478 1.88-.253.39-.73.993-1.705.913-.975-.08-1.368-1.66-.435-2.486Z" fill="#011B04"/></g><path d="M 4115.62 3008.81 C 4152.97 3034.23 4211.02 3021.51 4245.05 2980.95 C 4279.08 2939.77 4275.75 2885.91 4238.38 2860.47 C 4201.02 2835.03 4142.97 2847.74 4109.62 2888.32 C 4075.59 2929.49 4078.26 2983.37 4115.62 3008.81 Z" fill="#000" style="stroke-width: 1; pointer-events: none;"/><g filter="url(#A)" transform="matrix(66.718353, 0, 0, 60.546043, -1736.699115, -1241.076795)" style="pointer-events: none;"><path d="M84.263 58.605c.82.207 1.621-.163 1.79-.827.168-.664-.36-1.37-1.18-1.577-.82-.207-1.622.163-1.79.827-.168.664.36 1.37 1.18 1.577Z" fill="#000"/></g><g filter="url(#B)" transform="matrix(66.718353, 0, 0, 60.546043, -1736.699115, -1241.076795)" style="pointer-events: none;"><path d="M87.638 68.2c.508-.675 1.364-.889 1.912-.478.548.411.58 1.292.072 1.967-.507.675-1.363.889-1.911.478-.548-.412-.58-1.292-.073-1.967Z" fill="#000"/></g><g mask="url(#C)" transform="matrix(66.718353, 0, 0, 60.546043, -1736.699115, -1241.076795)" style="pointer-events: none;"><g filter="url(#D)"><path d="M84.963 56.346c-.667-.24-1.287-.074-1.526.068.464-.283.969-.418 1.605-.183.35.13.622.419.783.643a.981.981 0 0 1 .067.1c.037.059.064.108.08.144-.025-.04-.047-.089-.08-.144a2.167 2.167 0 0 0-.067-.1c-.12-.154-.344-.342-.862-.528Z" fill="#D8D8D8" fill-opacity=".29"/></g><g opacity=".8" filter="url(#E)"><path d="M85.508 58.295c.67-.433.536-1.057.385-1.315.188.202.208.678.064.932-.115.204-.347.34-.449.383Z" fill="url(#F)"/></g></g><g mask="url(#G)" transform="matrix(66.718353, 0, 0, 60.546043, -1736.699115, -1241.076795)" style="pointer-events: none;"><path d="M89.72 68.247a.932.932 0 0 0-1.073-.587c.171.011.566.127.779.498.212.37-.057 1.057-.219 1.354l.29.12c.183-.206.484-.77.223-1.385Z" fill="url(#H)"/><g filter="url(#I)"><path d="M89.596 69.523c-.368.604-.955.865-1.23.904.539-.07 1.016-.283 1.364-.864.191-.32.22-.716.205-.992a.947.947 0 0 0-.01-.12 1.317 1.317 0 0 0-.028-.162c.006.046.019.098.028.162.004.036.008.077.01.12.004.195-.052.482-.339.952Z" fill="#D8D8D8" fill-opacity=".29"/></g></g><g opacity=".8" filter="url(#J)" transform="matrix(66.718353, 0, 0, 60.546043, -1736.699115, -1241.076795)" style="pointer-events: none;"><path d="M85.359 56.834c-.136-.228-.459-.321-.603-.34l-.141.188c.048.006.178.034.31.098.133.064.292.173.354.22l.08-.166Z" fill="#E2DCE1"/></g><g opacity=".8" filter="url(#K)" transform="matrix(66.718353, 0, 0, 60.546043, -1736.699115, -1241.076795)" style="pointer-events: none;"><path d="M89.603 68.904c.038.26-.145.529-.241.631l-.22-.059c.032-.034.112-.135.172-.265.06-.13.11-.312.128-.387l.16.08Z" fill="#E2DCE1"/></g><g opacity=".8" filter="url(#L)" fill="#E2DCE1" transform="matrix(66.718353, 0, 0, 60.546043, -1736.699115, -1241.076795)" style="pointer-events: none;"><path d="M84.386 58.31a5.615 5.615 0 0 1-.317-.312l-.237.001c.124.164.28.264.341.294l.213.018ZM85.445 58.35a1.21 1.21 0 0 0 .159-.138l-.083.03a.988.988 0 0 1-.204.154.27.27 0 0 0 .129-.045Z"/></g><g opacity=".8" filter="url(#M)" fill="#E2DCE1" transform="matrix(66.718353, 0, 0, 60.546043, -1736.699115, -1241.076795)" style="pointer-events: none;"><path d="M87.905 68.342a5.526 5.526 0 0 0-.05.443l-.186.148c-.007-.205.051-.38.081-.443l.155-.148ZM88.704 67.646c.064-.006.167.003.21.009l-.083.03a.97.97 0 0 0-.256.007.268.268 0 0 1 .129-.046Z"/></g><g opacity=".3" filter="url(#N)" transform="matrix(66.718353, 0, 0, 60.546043, -1736.699115, -1241.076795)" style="pointer-events: none;"><path d="M90.184 71.894c-3.038 1.072 1.085-5.089-.568-9.772-1.653-4.684-8.73-6.892-5.69-7.965 2.758-.035 6.589 2.381 8.242 7.065 1.652 4.683-.013 9.333-1.984 10.672Z" fill="url(#O)" fill-opacity=".4"/></g><g opacity=".2" filter="url(#P)" transform="matrix(66.718353, 0, 0, 60.546043, -1736.699115, -1241.076795)" style="pointer-events: none;"><path d="M90.184 71.894c-3.038 1.072 1.085-5.089-.568-9.772-1.653-4.684-8.73-6.892-5.69-7.965 2.758-.035 6.589 2.381 8.242 7.065 1.652 4.683-.013 9.333-1.984 10.672Z" fill="url(#Q)" fill-opacity=".4"/></g><path d="M 894.47 2341.59 C 850.436 2271.95 776.376 2222.3 687.653 2202.95 C 598.241 2183.57 502.162 2196.28 420.099 2238.66 C 337.364 2281.04 275.98 2349.46 248.63 2428.17 C 220.611 2507.47 237.287 2603.14 280.656 2672.77 L 598.241 2523.84 L 894.47 2341.59 Z" fill="#4386F5" style="stroke-width: 1; pointer-events: none;"/><path fill-rule="evenodd" clip-rule="evenodd" d="M 891.124 2337.34 C 1350.82 3026.97 2311.56 3322.42 3151.54 2996.7 L 3432.42 3591.87 C 2260.17 4046.55 921.15 3634.25 280.656 2672.18 L 891.124 2337.34 Z" fill="url(#R)" style="stroke-width: 1; pointer-events: none;"/><path d="M 757.013 4753.73 C 734.334 4819.15 797.721 4882.1 871.104 4867.58 C 898.472 4862.12 922.495 4845.77 935.825 4822.76 L 1170.67 4426.8 C 1223.37 4339 1150.66 4231.84 1039.9 4234.87 C 979.19 4236.69 926.497 4273.01 907.81 4325.69 L 757.013 4753.73 Z" fill="#034ECA" style="stroke-width: 1; pointer-events: none;"/><path d="M 757.013 4753.73 C 734.334 4819.15 797.721 4882.1 871.104 4867.58 C 898.472 4862.12 922.495 4845.77 935.825 4822.76 L 1170.67 4426.8 C 1223.37 4339 1150.66 4231.84 1039.9 4234.87 C 979.19 4236.69 926.497 4273.01 907.81 4325.69 L 757.013 4753.73 Z" fill="url(#S)" style="stroke-width: 1; pointer-events: none;"/><path d="M 1955.95 1021.68 C 2062.02 756.49 2444.99 694.743 2645.13 911.495 C 2737.88 1011.39 2764.58 1149.44 2715.21 1272.34 L 1529.61 4228.2 C 1426.86 4494.61 1045.24 4560 841.745 4346.27 C 745.673 4244.55 718.325 4102.88 770.363 3977.55 L 1955.95 1021.68 Z" fill="#4285F4" style="stroke-width: 1; pointer-events: none;"/><path d="M 1119.96 4467.36 C 1302.77 4484.31 1475.58 4386.22 1538.96 4228.81 L 2501.71 1828.16 C 2557.07 1689.5 2515.71 1535.13 2396.95 1434.61 L 1119.96 4467.36 Z" fill="url(#T)" style="stroke-width: 1; pointer-events: none;"/><path d="M 2795.25 354.467 C 2798.59 177.063 2588.43 62.631 2417.64 149.213 C 2335.57 190.381 2285.53 269.101 2286.87 354.467 L 2286.87 791.619 C 2283.54 969.617 2493.69 1083.44 2664.5 997.471 C 2746.56 955.7 2796.61 876.981 2795.25 791.619 L 2795.25 354.467 Z" fill="#4285F4" style="stroke-width: 1; pointer-events: none;"/><path d="M 2795.25 354.467 C 2798.59 177.063 2588.43 62.631 2417.64 149.213 C 2335.57 190.381 2285.53 269.101 2286.87 354.467 L 2286.87 791.619 C 2283.54 969.617 2493.69 1083.44 2664.5 997.471 C 2746.56 955.7 2796.61 876.981 2795.25 791.619 L 2795.25 354.467 Z" fill="url(#U)" style="stroke-width: 1; pointer-events: none;"/><g opacity=".5" filter="url(#V)" transform="matrix(66.718353, 0, 0, 60.546043, -1736.699115, -1241.076795)" style="pointer-events: none;"><path d="M71.662 81.487c-1.49.128.91-1.714.543-5.998-.247-2.89.76-5.335 2.249-5.462 1.489-.128 2.897 2.11 3.144 5 1.233 4.628-4.447 6.332-5.936 6.46Z" fill="#044FCB"/></g><path d="M 2358.25 1268.71 C 2256.19 1005.95 2505.71 740.752 2807.95 791.619 C 2944.7 814.625 3058.8 901.206 3108.83 1019.26 L 4304.43 3980.57 C 4414.52 4241.52 4172.33 4512.16 3868.76 4468.58 C 3723.32 4447.99 3602.55 4355.95 3554.5 4230.02 L 2358.25 1268.71 Z" fill="url(#W)" style="stroke-width: 1; pointer-events: none;"/><path d="M 2221.48 904.238 C 2070.7 938.751 1949.29 1039.25 1895.91 1171.24 L 772.374 3972.09 C 703.641 4142.83 772.374 4327.51 918.472 4410.43 L 2221.48 904.238 Z" fill="url(#X)" style="stroke-width: 1; pointer-events: none;"/><path opacity=".3" d="M 2332.91 390.19 C 2390.28 442.257 2492.35 432.574 2562.42 369.601 C 2631.8 306.038 2642.47 212.787 2585.1 161.328 C 2528.38 109.859 2425.64 118.945 2356.27 182.519 C 2286.19 245.492 2276.2 338.721 2332.91 390.19 Z" fill="url(#Y)" fill-opacity=".9" style="stroke-width: 1; pointer-events: none;"/><path opacity=".3" d="M 1800.49 1974.67 C 1970.63 2063.68 2232.82 1940.78 2386.28 1699.8 C 2539.72 1458.23 2526.39 1190.6 2356.27 1101 C 2185.45 1012.01 1923.24 1134.92 1769.81 1376.48 C 1616.34 1617.47 1629.69 1885.68 1800.49 1974.67 Z" fill="url(#Z)" fill-opacity=".9" style="stroke-width: 1; pointer-events: none;"/><path d="M 2534.39 1672.55 C 2915.36 1672.55 3153.54 1298.39 2963.39 998.683 C 2874.67 860.033 2711.21 774.054 2534.39 774.054 C 2153.43 774.054 1915.25 1148.83 2105.39 1447.93 C 2194.13 1587.2 2357.59 1672.55 2534.39 1672.55 Z" fill="#fff" style="stroke-width: 1; pointer-events: none;"/><path fill-rule="evenodd" clip-rule="evenodd" d="M 2534.39 892.121 C 2253.51 892.121 2078.03 1168.21 2218.15 1389.2 C 2283.54 1491.53 2404.29 1554.49 2534.39 1554.49 C 2815.28 1554.49 2990.74 1279.01 2850.64 1058.01 C 2785.25 955.7 2665.17 892.121 2534.39 892.121 Z M 1909.25 1223.31 C 1909.25 786.764 2430.31 513.699 2847.31 731.672 C 3040.78 833.392 3160.21 1020.47 3160.21 1223.31 C 3160.21 1660.45 2638.47 1933.5 2221.48 1714.93 C 2028.01 1613.82 1909.25 1426.14 1909.25 1223.31 Z" fill="#202124" style="stroke-width: 1; pointer-events: none;"/></g><text style="white-space: pre; fill: rgb(51, 51, 51); font-family: Arial, sans-serif; font-size: 28px; filter: url(&quot;#pixelete-filter-0&quot;);" x="3828.69" y="601.031" transform="matrix(1.871168, 0, 0, 3.457284, -7016.587367, -1812.508536)" id="object-0">&lt;/code&gt;</text></g><mask id="b" style="mask-type:alpha" maskUnits="userSpaceOnUse" x="78" y="51" width="21" height="26"><path d="M88.095 75.55a12.443 12.443 0 0 0 3.382-3.272 12.496 12.496 0 0 0 1.42-2.646c.234-.599.422-1.217.562-1.847l.028.005 1.478.278a2295.78 2295.78 0 0 0 2.48.467 1.146 1.146 0 0 0 1.32-1.41 1.156 1.156 0 0 0-.163-.358 1.144 1.144 0 0 0-.733-.478c-.345-.066-.691-.13-1.037-.195l-1.443-.272-1.478-.279-.162-.03.004-.122c.037-1.48-.19-2.992-.713-4.472l-.044-.12a12.483 12.483 0 0 0-2.274-3.881l.1-.117.975-1.143.953-1.116.685-.802a1.14 1.14 0 0 0-.139-1.62 1.14 1.14 0 0 0-1.604.137l-.684.802-.953 1.116-.976 1.143-.008.01a12.59 12.59 0 0 0-6.087-2.635 12.477 12.477 0 0 0-4.617.207l8.288 23.458a12.56 12.56 0 0 0 1.44-.809Z" fill="#fff"/></mask><mask id="C" style="mask-type:alpha" maskUnits="userSpaceOnUse" x="83" y="56" width="4" height="3"><path d="M84.263 58.605c.82.207 1.621-.163 1.79-.827.168-.664-.36-1.37-1.18-1.577-.82-.207-1.621.163-1.79.827-.168.663.36 1.37 1.18 1.577Z" fill="#202124"/></mask><mask id="G" style="mask-type:alpha" maskUnits="userSpaceOnUse" x="87" y="67" width="3" height="4"><path d="M87.64 68.2c.507-.675 1.363-.889 1.911-.478.548.411.58 1.292.073 1.967-.508.675-1.364.889-1.912.478-.548-.412-.58-1.292-.073-1.967Z" fill="#202124"/></mask></svg>